<svg xmlns="http://www.w3.org/2000/svg" width="48" height="48" viewBox="3.5 3.5 41 41"><path d="M11 5 H30 L38 13 V43 H11 Z" fill="#ffffff" stroke="#cdd1d7" stroke-width="1.6" stroke-linejoin="round"/><path d="M30 5 V13 H38 Z" fill="#9cafc4" stroke="#cdd1d7" stroke-width="1.2" stroke-linejoin="round"/><line x1="16" y1="14.5" x2="24" y2="17" stroke="#9aa2ad" stroke-width="0.8"/><line x1="16" y1="14.5" x2="24" y2="23.5" stroke="#9aa2ad" stroke-width="0.8"/><line x1="16" y1="20" x2="24" y2="17" stroke="#9aa2ad" stroke-width="0.8"/><line x1="16" y1="20" x2="24" y2="23.5" stroke="#9aa2ad" stroke-width="0.8"/><line x1="16" y1="25.5" x2="24" y2="17" stroke="#9aa2ad" stroke-width="0.8"/><line x1="16" y1="25.5" x2="24" y2="23.5" stroke="#9aa2ad" stroke-width="0.8"/><line x1="24" y1="17" x2="32" y2="20.5" stroke="#9aa2ad" stroke-width="0.8"/><line x1="24" y1="23.5" x2="32" y2="20.5" stroke="#9aa2ad" stroke-width="0.8"/><circle cx="16" cy="14.5" r="2.2" fill="#4a3fa0" stroke="#cdd1d7" stroke-width="0.7"/><circle cx="16" cy="20" r="2.2" fill="#4a3fa0" stroke="#cdd1d7" stroke-width="0.7"/><circle cx="16" cy="25.5" r="2.2" fill="#4a3fa0" stroke="#cdd1d7" stroke-width="0.7"/><circle cx="24" cy="17" r="2.2" fill="#4a3fa0" stroke="#cdd1d7" stroke-width="0.7"/><circle cx="24" cy="23.5" r="2.2" fill="#4a3fa0" stroke="#cdd1d7" stroke-width="0.7"/><circle cx="32" cy="20.5" r="2.2" fill="#4a3fa0" stroke="#cdd1d7" stroke-width="0.7"/><rect x="11" y="30" width="27" height="9" fill="#9a3a7a"/><text x="24.5" y="37" font-family="Helvetica,Arial,sans-serif" font-size="6" font-weight="bold" text-anchor="middle" fill="#ffffff">GGUF</text></svg>