<svg xmlns="http://www.w3.org/2000/svg" width="48" height="48" viewBox="3.5 3.5 41 41"><path d="M11 5 H30 L38 13 V43 H11 Z" fill="#ffffff" stroke="#cdd1d7" stroke-width="1.6" stroke-linejoin="round"/><path d="M30 5 V13 H38 Z" fill="#9cafc4" stroke="#cdd1d7" stroke-width="1.2" stroke-linejoin="round"/><rect x="23.4" y="12" width="1.6" height="16" fill="#5d6975"/><rect x="20" y="14" width="3.4" height="1.8" fill="#8a9099"/><rect x="24.6" y="14" width="3.4" height="1.8" fill="#8a9099"/><rect x="20" y="17" width="3.4" height="1.8" fill="#8a9099"/><rect x="24.6" y="17" width="3.4" height="1.8" fill="#8a9099"/><rect x="20" y="20" width="3.4" height="1.8" fill="#8a9099"/><rect x="24.6" y="20" width="3.4" height="1.8" fill="#8a9099"/><rect x="20" y="23" width="3.4" height="1.8" fill="#8a9099"/><rect x="24.6" y="23" width="3.4" height="1.8" fill="#8a9099"/><rect x="20" y="26" width="3.4" height="1.8" fill="#8a9099"/><rect x="24.6" y="26" width="3.4" height="1.8" fill="#8a9099"/><path d="M22 9 h4.4 l-0.8 4 h-2.8 z" fill="#6a7480" stroke="#cdd1d7" stroke-width="0.8" stroke-linejoin="round"/><rect x="11" y="30" width="27" height="9" fill="#a5762f"/><text x="24.5" y="37" font-family="Helvetica,Arial,sans-serif" font-size="7" font-weight="bold" text-anchor="middle" fill="#ffffff">7Z</text></svg>