<svg xmlns="http://www.w3.org/2000/svg" width="48" height="48" viewBox="3.5 3.5 41 41"><path d="M11 5 H30 L38 13 V43 H11 Z" fill="#ffffff" stroke="#cdd1d7" stroke-width="1.6" stroke-linejoin="round"/><path d="M30 5 V13 H38 Z" fill="#9cafc4" stroke="#cdd1d7" stroke-width="1.2" stroke-linejoin="round"/><rect x="14" y="13" width="20" height="16" rx="1.5" fill="#ffffff" stroke="#cdd1d7" stroke-width="1.2"/><rect x="14" y="13" width="20" height="5" fill="#c0453a"/><path d="M19 11 V16 M29 11 V16" stroke="#cdd1d7" stroke-width="1.5" stroke-linecap="round"/><rect x="17" y="21" width="2" height="2" fill="#8a929c"/><rect x="21" y="21" width="2" height="2" fill="#8a929c"/><rect x="25" y="21" width="2" height="2" fill="#8a929c"/><rect x="29" y="21" width="2" height="2" fill="#8a929c"/><rect x="17" y="25" width="2" height="2" fill="#8a929c"/><rect x="21" y="25" width="2" height="2" fill="#8a929c"/><rect x="25" y="25" width="2" height="2" fill="#8a929c"/><rect x="29" y="25" width="2" height="2" fill="#8a929c"/><rect x="11" y="30" width="27" height="9" fill="#c0453a"/><text x="24.5" y="37" font-family="Helvetica,Arial,sans-serif" font-size="7" font-weight="bold" text-anchor="middle" fill="#ffffff">ICS</text></svg>