<?xml version="1.0" encoding="UTF-8" standalone="no"?>
<svg xmlns="http://www.w3.org/2000/svg" width="48" height="48" viewBox="3.5 3.5 41 41">
  <!-- TenshiSTEP calendar -->
  <rect x="7" y="9" width="34" height="32" rx="2.5" fill="#ffffff" stroke="#cdd1d7" stroke-width="1.8"/>
  <rect x="7" y="9" width="34" height="9" rx="2.5" fill="#c25a4d"/>
  <rect x="7" y="14" width="34" height="4" fill="#c25a4d"/>
  <rect x="14" y="6" width="4" height="7" rx="1.5" fill="#9a9a9a" stroke="#cdd1d7" stroke-width="1.2"/>
  <rect x="30" y="6" width="4" height="7" rx="1.5" fill="#9a9a9a" stroke="#cdd1d7" stroke-width="1.2"/>
  <g fill="#6e6e6e">
    <rect x="12" y="22" width="4" height="4"/><rect x="19" y="22" width="4" height="4"/><rect x="26" y="22" width="4" height="4"/><rect x="33" y="22" width="3" height="4"/>
    <rect x="12" y="29" width="4" height="4"/><rect x="19" y="29" width="4" height="4"/><rect x="33" y="29" width="3" height="4"/>
    <rect x="12" y="36" width="4" height="3"/><rect x="26" y="36" width="4" height="3"/>
  </g>
  <rect x="26" y="29" width="4" height="4" fill="#cdd1d7"/>
</svg>
