<svg xmlns="http://www.w3.org/2000/svg" width="48" height="48" viewBox="0 0 48 48"><path d="M34 24 L45 16 L42 24 L45 32 Z" fill="#e6c14a" stroke="#1a1a1a" stroke-width="1.3" stroke-linejoin="round"/><path d="M12.6 14 L15 8 L17.4 14 Z" fill="#e6c14a" stroke="#1a1a1a" stroke-width="1"/><path d="M18.6 13 L21 7 L23.4 13 Z" fill="#e6c14a" stroke="#1a1a1a" stroke-width="1"/><path d="M24.6 14.5 L27 8.5 L29.4 14.5 Z" fill="#e6c14a" stroke="#1a1a1a" stroke-width="1"/><path d="M12.6 34 L15 40 L17.4 34 Z" fill="#e6c14a" stroke="#1a1a1a" stroke-width="1"/><path d="M18.6 35 L21 41 L23.4 35 Z" fill="#e6c14a" stroke="#1a1a1a" stroke-width="1"/><path d="M24.6 33.5 L27 39.5 L29.4 33.5 Z" fill="#e6c14a" stroke="#1a1a1a" stroke-width="1"/><ellipse cx="22" cy="24" rx="13" ry="11" fill="#e6c14a" stroke="#1a1a1a" stroke-width="1.5"/><path d="M18 33 L22 40 L27 33 Z" fill="#e6c14a" stroke="#1a1a1a" stroke-width="1.2" stroke-linejoin="round"/><path d="M18 15 Q16 24 18 33" fill="none" stroke="#c99a2e" stroke-width="1.3"/><circle cx="14" cy="21" r="3" fill="#ffffff" stroke="#1a1a1a" stroke-width="1"/><circle cx="13.2" cy="21.4" r="1.5" fill="#1a1a1a"/><ellipse cx="9.4" cy="27.4" rx="1.7" ry="2.1" fill="#c99a2e" stroke="#1a1a1a" stroke-width="1"/></svg>