<svg xmlns="http://www.w3.org/2000/svg" width="48" height="48" viewBox="0 0 48 48"><path d="M34.9 22.6 L42.0 24.0 L34.9 25.4 Z" fill="#d0722e" stroke="#1a1a1a" stroke-width="0.9"/><path d="M34.2 28.2 L39.6 33.0 L32.7 30.7 Z" fill="#d0722e" stroke="#1a1a1a" stroke-width="0.9"/><path d="M30.7 32.7 L33.0 39.6 L28.2 34.2 Z" fill="#d0722e" stroke="#1a1a1a" stroke-width="0.9"/><path d="M25.4 34.9 L24.0 42.0 L22.6 34.9 Z" fill="#d0722e" stroke="#1a1a1a" stroke-width="0.9"/><path d="M19.8 34.2 L15.0 39.6 L17.3 32.7 Z" fill="#d0722e" stroke="#1a1a1a" stroke-width="0.9"/><path d="M15.3 30.7 L8.4 33.0 L13.8 28.2 Z" fill="#d0722e" stroke="#1a1a1a" stroke-width="0.9"/><path d="M13.1 25.4 L6.0 24.0 L13.1 22.6 Z" fill="#d0722e" stroke="#1a1a1a" stroke-width="0.9"/><path d="M13.8 19.8 L8.4 15.0 L15.3 17.3 Z" fill="#d0722e" stroke="#1a1a1a" stroke-width="0.9"/><path d="M17.3 15.3 L15.0 8.4 L19.8 13.8 Z" fill="#d0722e" stroke="#1a1a1a" stroke-width="0.9"/><path d="M22.6 13.1 L24.0 6.0 L25.4 13.1 Z" fill="#d0722e" stroke="#1a1a1a" stroke-width="0.9"/><path d="M28.2 13.8 L33.0 8.4 L30.7 15.3 Z" fill="#d0722e" stroke="#1a1a1a" stroke-width="0.9"/><path d="M32.7 17.3 L39.6 15.0 L34.2 19.8 Z" fill="#d0722e" stroke="#1a1a1a" stroke-width="0.9"/><circle cx="24" cy="24" r="9" fill="#e08a3a" stroke="#1a1a1a" stroke-width="1.5"/></svg>