<?xml version="1.0" encoding="UTF-8" standalone="no"?>
<svg xmlns="http://www.w3.org/2000/svg" width="48" height="48" viewBox="3.5 3.5 41 41">
  <!-- TenshiSTEP on-screen keyboard -->
  <rect x="5" y="10" width="38" height="28" rx="3" fill="#202020" stroke="#cdd1d7" stroke-width="1.6"/>
  <g fill="#9cafc4">
    <rect x="9" y="14" width="4" height="4" rx="0.8"/><rect x="15" y="14" width="4" height="4" rx="0.8"/><rect x="21" y="14" width="4" height="4" rx="0.8"/><rect x="27" y="14" width="4" height="4" rx="0.8"/><rect x="33" y="14" width="4" height="4" rx="0.8"/>
    <rect x="9" y="20" width="4" height="4" rx="0.8"/><rect x="15" y="20" width="4" height="4" rx="0.8"/><rect x="21" y="20" width="4" height="4" rx="0.8"/><rect x="27" y="20" width="4" height="4" rx="0.8"/><rect x="33" y="20" width="4" height="4" rx="0.8"/>
    <rect x="9" y="26" width="4" height="4" rx="0.8"/><rect x="33" y="26" width="4" height="4" rx="0.8"/>
    <rect x="15" y="26" width="16" height="4" rx="0.8"/>
  </g>
</svg>
