<?xml version="1.0" encoding="UTF-8"?>
<svg xmlns="http://www.w3.org/2000/svg" width="48" height="48" viewBox="2 2 44 44">
  <!-- antenna -->
  <path d="M36 16 V6" fill="none" stroke="#cdd1d7" stroke-width="1.6" stroke-linecap="round"/>
  <circle cx="36" cy="5" r="1.6" fill="#b0b0b0" stroke="#cdd1d7" stroke-width="1"/>
  <!-- signal waves -->
  <path d="M39 8 A5 5 0 0 1 39 14" fill="none" stroke="#5fd07a" stroke-width="1.4" stroke-linecap="round"/>
  <path d="M41.5 6 A8.5 8.5 0 0 1 41.5 16" fill="none" stroke="#5fd07a" stroke-width="1.4" stroke-linecap="round" opacity="0.7"/>
  <!-- modem box -->
  <rect x="6" y="16" width="34" height="24" rx="2.5" fill="#9cafc4" stroke="#cdd1d7" stroke-width="1.6"/>
  <path d="M7.5 17.5 H38.5" fill="none" stroke="#ffffff" stroke-width="1"/>
  <path d="M7.5 38.5 H38.5" fill="none" stroke="#5d6975" stroke-width="1"/>
  <!-- status LEDs -->
  <circle cx="12" cy="23" r="1.4" fill="#5fd07a" stroke="#cdd1d7" stroke-width="1"/>
  <circle cx="18" cy="23" r="1.4" fill="#e0b04a" stroke="#cdd1d7" stroke-width="1"/>
  <circle cx="24" cy="23" r="1.4" fill="#e05a5a" stroke="#cdd1d7" stroke-width="1"/>
  <circle cx="30" cy="23" r="1.4" fill="#3daee9" stroke="#cdd1d7" stroke-width="1"/>
  <!-- ports -->
  <rect x="10" y="30" width="6" height="5" rx="0.6" fill="#31353c" stroke="#cdd1d7" stroke-width="1.2"/>
  <rect x="19" y="30" width="6" height="5" rx="0.6" fill="#31353c" stroke="#cdd1d7" stroke-width="1.2"/>
  <rect x="28" y="30" width="6" height="5" rx="0.6" fill="#31353c" stroke="#cdd1d7" stroke-width="1.2"/>
</svg>
