<svg xmlns="http://www.w3.org/2000/svg" width="48" height="48" viewBox="3.5 3.5 41 41"><path d="M11 5 H30 L38 13 V43 H11 Z" fill="#ffffff" stroke="#1a1a1a" stroke-width="1.6" stroke-linejoin="round"/><path d="M30 5 V13 H38 Z" fill="#9cafc4" stroke="#1a1a1a" stroke-width="1.2" stroke-linejoin="round"/><rect x="22.5" y="10.200000000000001" width="3" height="4" rx="1" fill="#7a828c" stroke="#1a1a1a" stroke-width="0.7" transform="rotate(0 24 19.5)"/><rect x="22.5" y="10.200000000000001" width="3" height="4" rx="1" fill="#7a828c" stroke="#1a1a1a" stroke-width="0.7" transform="rotate(45 24 19.5)"/><rect x="22.5" y="10.200000000000001" width="3" height="4" rx="1" fill="#7a828c" stroke="#1a1a1a" stroke-width="0.7" transform="rotate(90 24 19.5)"/><rect x="22.5" y="10.200000000000001" width="3" height="4" rx="1" fill="#7a828c" stroke="#1a1a1a" stroke-width="0.7" transform="rotate(135 24 19.5)"/><rect x="22.5" y="10.200000000000001" width="3" height="4" rx="1" fill="#7a828c" stroke="#1a1a1a" stroke-width="0.7" transform="rotate(180 24 19.5)"/><rect x="22.5" y="10.200000000000001" width="3" height="4" rx="1" fill="#7a828c" stroke="#1a1a1a" stroke-width="0.7" transform="rotate(225 24 19.5)"/><rect x="22.5" y="10.200000000000001" width="3" height="4" rx="1" fill="#7a828c" stroke="#1a1a1a" stroke-width="0.7" transform="rotate(270 24 19.5)"/><rect x="22.5" y="10.200000000000001" width="3" height="4" rx="1" fill="#7a828c" stroke="#1a1a1a" stroke-width="0.7" transform="rotate(315 24 19.5)"/><circle cx="24" cy="19.5" r="7.2" fill="#8a929c" stroke="#1a1a1a" stroke-width="1.2"/><circle cx="24" cy="19.5" r="2.8" fill="#5d6975" stroke="#1a1a1a" stroke-width="0.8"/><rect x="11" y="30" width="27" height="9" fill="#5f7186"/><text x="24.5" y="37" font-family="Helvetica,Arial,sans-serif" font-size="7" font-weight="bold" text-anchor="middle" fill="#ffffff">REG</text></svg>