<svg xmlns="http://www.w3.org/2000/svg" width="48" height="48" viewBox="3.5 3.5 41 41"><path d="M11 5 H30 L38 13 V43 H11 Z" fill="#ffffff" stroke="#1a1a1a" stroke-width="1.6" stroke-linejoin="round"/><path d="M30 5 V13 H38 Z" fill="#9cafc4" stroke="#1a1a1a" stroke-width="1.2" stroke-linejoin="round"/><g transform="translate(11,6.5) scale(0.52)"><path d="M31 13 c3 -3 3 -6 3 -6 c-3 0 -5 2 -5 2 c-1 -1 -3 -1 -5 -1 c-6 0 -12 5 -12 13 c0 9 6 20 11 20 c2 0 3 -1 5 -1 c2 0 3 1 5 1 c4 0 8 -6 9 -10 c-3 -1 -5 -4 -5 -8 c0 -5 4 -8 4 -8 c-2 -2 -5 -2 -5 -2 z" fill="#a6adb8" stroke="#1a1a1a" stroke-width="1.6" stroke-linejoin="round"/><path d="M27 12 c1 -4 5 -6 8 -6 c0 4 -3 7 -6 7 z" fill="#8f96a1" stroke="#1a1a1a" stroke-width="1.4" stroke-linejoin="round"/></g><rect x="11" y="30" width="27" height="9" fill="#5f7186"/><text x="24.5" y="37" font-family="Helvetica,Arial,sans-serif" font-size="6.5" font-weight="bold" text-anchor="middle" fill="#ffffff">PKG</text></svg>