<?xml version="1.0" encoding="UTF-8" standalone="no"?>
<svg xmlns="http://www.w3.org/2000/svg" width="60" height="132" viewBox="0 0 60 132">
  <g id="normal-topleft"><rect x="4" y="4" width="6" height="6" fill="#a6adb8"/><rect x="4" y="4" width="6" height="1" fill="#1a1a1a"/><rect x="4" y="4" width="1" height="6" fill="#1a1a1a"/><rect x="4" y="5" width="6" height="1" fill="#ffffff"/><rect x="5" y="4" width="1" height="6" fill="#ffffff"/></g>
  <g id="normal-top"><rect x="10" y="4" width="36" height="6" fill="#a6adb8"/><rect x="10" y="4" width="36" height="1" fill="#1a1a1a"/><rect x="10" y="5" width="36" height="1" fill="#ffffff"/></g>
  <g id="normal-topright"><rect x="46" y="4" width="6" height="6" fill="#a6adb8"/><rect x="46" y="4" width="6" height="1" fill="#1a1a1a"/><rect x="51" y="4" width="1" height="6" fill="#1a1a1a"/><rect x="46" y="5" width="6" height="1" fill="#ffffff"/><rect x="50" y="4" width="1" height="6" fill="#5c626b"/></g>
  <g id="normal-left"><rect x="4" y="10" width="6" height="12" fill="#a6adb8"/><rect x="4" y="10" width="1" height="12" fill="#1a1a1a"/><rect x="5" y="10" width="1" height="12" fill="#ffffff"/></g>
  <g id="normal-center"><rect x="10" y="10" width="36" height="12" fill="#a6adb8"/></g>
  <g id="normal-right"><rect x="46" y="10" width="6" height="12" fill="#a6adb8"/><rect x="51" y="10" width="1" height="12" fill="#1a1a1a"/><rect x="50" y="10" width="1" height="12" fill="#5c626b"/></g>
  <g id="normal-bottomleft"><rect x="4" y="22" width="6" height="6" fill="#a6adb8"/><rect x="4" y="27" width="6" height="1" fill="#1a1a1a"/><rect x="4" y="22" width="1" height="6" fill="#1a1a1a"/><rect x="5" y="22" width="1" height="6" fill="#ffffff"/><rect x="4" y="26" width="6" height="1" fill="#5c626b"/></g>
  <g id="normal-bottom"><rect x="10" y="22" width="36" height="6" fill="#a6adb8"/><rect x="10" y="27" width="36" height="1" fill="#1a1a1a"/><rect x="10" y="26" width="36" height="1" fill="#5c626b"/></g>
  <g id="normal-bottomright"><rect x="46" y="22" width="6" height="6" fill="#a6adb8"/><rect x="46" y="27" width="6" height="1" fill="#1a1a1a"/><rect x="51" y="22" width="1" height="6" fill="#1a1a1a"/><rect x="46" y="26" width="6" height="1" fill="#5c626b"/><rect x="50" y="22" width="1" height="6" fill="#5c626b"/></g>
  <g id="hover-topleft"><rect x="4" y="36" width="6" height="6" fill="#b0b7c2"/><rect x="4" y="36" width="6" height="1" fill="#1a1a1a"/><rect x="4" y="36" width="1" height="6" fill="#1a1a1a"/><rect x="4" y="37" width="6" height="1" fill="#ffffff"/><rect x="5" y="36" width="1" height="6" fill="#ffffff"/></g>
  <g id="hover-top"><rect x="10" y="36" width="36" height="6" fill="#b0b7c2"/><rect x="10" y="36" width="36" height="1" fill="#1a1a1a"/><rect x="10" y="37" width="36" height="1" fill="#ffffff"/></g>
  <g id="hover-topright"><rect x="46" y="36" width="6" height="6" fill="#b0b7c2"/><rect x="46" y="36" width="6" height="1" fill="#1a1a1a"/><rect x="51" y="36" width="1" height="6" fill="#1a1a1a"/><rect x="46" y="37" width="6" height="1" fill="#ffffff"/><rect x="50" y="36" width="1" height="6" fill="#5c626b"/></g>
  <g id="hover-left"><rect x="4" y="42" width="6" height="12" fill="#b0b7c2"/><rect x="4" y="42" width="1" height="12" fill="#1a1a1a"/><rect x="5" y="42" width="1" height="12" fill="#ffffff"/></g>
  <g id="hover-center"><rect x="10" y="42" width="36" height="12" fill="#b0b7c2"/></g>
  <g id="hover-right"><rect x="46" y="42" width="6" height="12" fill="#b0b7c2"/><rect x="51" y="42" width="1" height="12" fill="#1a1a1a"/><rect x="50" y="42" width="1" height="12" fill="#5c626b"/></g>
  <g id="hover-bottomleft"><rect x="4" y="54" width="6" height="6" fill="#b0b7c2"/><rect x="4" y="59" width="6" height="1" fill="#1a1a1a"/><rect x="4" y="54" width="1" height="6" fill="#1a1a1a"/><rect x="5" y="54" width="1" height="6" fill="#ffffff"/><rect x="4" y="58" width="6" height="1" fill="#5c626b"/></g>
  <g id="hover-bottom"><rect x="10" y="54" width="36" height="6" fill="#b0b7c2"/><rect x="10" y="59" width="36" height="1" fill="#1a1a1a"/><rect x="10" y="58" width="36" height="1" fill="#5c626b"/></g>
  <g id="hover-bottomright"><rect x="46" y="54" width="6" height="6" fill="#b0b7c2"/><rect x="46" y="59" width="6" height="1" fill="#1a1a1a"/><rect x="51" y="54" width="1" height="6" fill="#1a1a1a"/><rect x="46" y="58" width="6" height="1" fill="#5c626b"/><rect x="50" y="54" width="1" height="6" fill="#5c626b"/></g>
  <g id="focus-topleft"><rect x="4" y="68" width="6" height="6" fill="#b6b6b6"/><rect x="4" y="68" width="6" height="1" fill="#4a3fa0"/><rect x="4" y="68" width="1" height="6" fill="#4a3fa0"/><rect x="4" y="69" width="6" height="1" fill="#ffffff"/><rect x="5" y="68" width="1" height="6" fill="#ffffff"/></g>
  <g id="focus-top"><rect x="10" y="68" width="36" height="6" fill="#b6b6b6"/><rect x="10" y="68" width="36" height="1" fill="#4a3fa0"/><rect x="10" y="69" width="36" height="1" fill="#ffffff"/></g>
  <g id="focus-topright"><rect x="46" y="68" width="6" height="6" fill="#b6b6b6"/><rect x="46" y="68" width="6" height="1" fill="#4a3fa0"/><rect x="51" y="68" width="1" height="6" fill="#4a3fa0"/><rect x="46" y="69" width="6" height="1" fill="#ffffff"/><rect x="50" y="68" width="1" height="6" fill="#5c626b"/></g>
  <g id="focus-left"><rect x="4" y="74" width="6" height="12" fill="#b6b6b6"/><rect x="4" y="74" width="1" height="12" fill="#4a3fa0"/><rect x="5" y="74" width="1" height="12" fill="#ffffff"/></g>
  <g id="focus-center"><rect x="10" y="74" width="36" height="12" fill="#b6b6b6"/></g>
  <g id="focus-right"><rect x="46" y="74" width="6" height="12" fill="#b6b6b6"/><rect x="51" y="74" width="1" height="12" fill="#4a3fa0"/><rect x="50" y="74" width="1" height="12" fill="#5c626b"/></g>
  <g id="focus-bottomleft"><rect x="4" y="86" width="6" height="6" fill="#b6b6b6"/><rect x="4" y="91" width="6" height="1" fill="#4a3fa0"/><rect x="4" y="86" width="1" height="6" fill="#4a3fa0"/><rect x="5" y="86" width="1" height="6" fill="#ffffff"/><rect x="4" y="90" width="6" height="1" fill="#5c626b"/></g>
  <g id="focus-bottom"><rect x="10" y="86" width="36" height="6" fill="#b6b6b6"/><rect x="10" y="91" width="36" height="1" fill="#4a3fa0"/><rect x="10" y="90" width="36" height="1" fill="#5c626b"/></g>
  <g id="focus-bottomright"><rect x="46" y="86" width="6" height="6" fill="#b6b6b6"/><rect x="46" y="91" width="6" height="1" fill="#4a3fa0"/><rect x="51" y="86" width="1" height="6" fill="#4a3fa0"/><rect x="46" y="90" width="6" height="1" fill="#5c626b"/><rect x="50" y="86" width="1" height="6" fill="#5c626b"/></g>
  <g id="pressed-topleft"><rect x="4" y="100" width="6" height="6" fill="#8e95a0"/><rect x="4" y="100" width="6" height="1" fill="#1a1a1a"/><rect x="4" y="100" width="1" height="6" fill="#1a1a1a"/><rect x="4" y="101" width="6" height="1" fill="#767c86"/><rect x="5" y="100" width="1" height="6" fill="#767c86"/></g>
  <g id="pressed-top"><rect x="10" y="100" width="36" height="6" fill="#8e95a0"/><rect x="10" y="100" width="36" height="1" fill="#1a1a1a"/><rect x="10" y="101" width="36" height="1" fill="#767c86"/></g>
  <g id="pressed-topright"><rect x="46" y="100" width="6" height="6" fill="#8e95a0"/><rect x="46" y="100" width="6" height="1" fill="#1a1a1a"/><rect x="51" y="100" width="1" height="6" fill="#1a1a1a"/><rect x="46" y="101" width="6" height="1" fill="#767c86"/><rect x="50" y="100" width="1" height="6" fill="#ffffff"/></g>
  <g id="pressed-left"><rect x="4" y="106" width="6" height="12" fill="#8e95a0"/><rect x="4" y="106" width="1" height="12" fill="#1a1a1a"/><rect x="5" y="106" width="1" height="12" fill="#767c86"/></g>
  <g id="pressed-center"><rect x="10" y="106" width="36" height="12" fill="#8e95a0"/></g>
  <g id="pressed-right"><rect x="46" y="106" width="6" height="12" fill="#8e95a0"/><rect x="51" y="106" width="1" height="12" fill="#1a1a1a"/><rect x="50" y="106" width="1" height="12" fill="#ffffff"/></g>
  <g id="pressed-bottomleft"><rect x="4" y="118" width="6" height="6" fill="#8e95a0"/><rect x="4" y="123" width="6" height="1" fill="#1a1a1a"/><rect x="4" y="118" width="1" height="6" fill="#1a1a1a"/><rect x="5" y="118" width="1" height="6" fill="#767c86"/><rect x="4" y="122" width="6" height="1" fill="#ffffff"/></g>
  <g id="pressed-bottom"><rect x="10" y="118" width="36" height="6" fill="#8e95a0"/><rect x="10" y="123" width="36" height="1" fill="#1a1a1a"/><rect x="10" y="122" width="36" height="1" fill="#ffffff"/></g>
  <g id="pressed-bottomright"><rect x="46" y="118" width="6" height="6" fill="#8e95a0"/><rect x="46" y="123" width="6" height="1" fill="#1a1a1a"/><rect x="51" y="118" width="1" height="6" fill="#1a1a1a"/><rect x="46" y="122" width="6" height="1" fill="#ffffff"/><rect x="50" y="118" width="1" height="6" fill="#ffffff"/></g>
</svg>
