<?xml version="1.0" encoding="UTF-8" standalone="no"?>
<svg xmlns="http://www.w3.org/2000/svg" width="76" height="56" viewBox="0 0 76 56">
  <g id="topleft"><rect x="4" y="4" width="8" height="8" fill="#a6b0bb"/><rect x="4" y="4" width="8" height="1" fill="#1a1a1a"/><rect x="4" y="4" width="1" height="8" fill="#1a1a1a"/><rect x="4" y="5" width="8" height="1" fill="#ffffff"/><rect x="5" y="4" width="1" height="8" fill="#ffffff"/></g>
  <g id="top"><rect x="12" y="4" width="48" height="8" fill="#a6b0bb"/><rect x="12" y="4" width="48" height="1" fill="#1a1a1a"/><rect x="12" y="5" width="48" height="1" fill="#ffffff"/></g>
  <g id="topright"><rect x="60" y="4" width="8" height="8" fill="#a6b0bb"/><rect x="60" y="4" width="8" height="1" fill="#1a1a1a"/><rect x="67" y="4" width="1" height="8" fill="#1a1a1a"/><rect x="60" y="5" width="8" height="1" fill="#ffffff"/><rect x="66" y="4" width="1" height="8" fill="#5c626b"/></g>
  <g id="left"><rect x="4" y="12" width="8" height="28" fill="#a6b0bb"/><rect x="4" y="12" width="1" height="28" fill="#1a1a1a"/><rect x="5" y="12" width="1" height="28" fill="#ffffff"/></g>
  <g id="center"><rect x="12" y="12" width="48" height="28" fill="#a6b0bb"/></g>
  <g id="right"><rect x="60" y="12" width="8" height="28" fill="#a6b0bb"/><rect x="67" y="12" width="1" height="28" fill="#1a1a1a"/><rect x="66" y="12" width="1" height="28" fill="#5c626b"/></g>
  <g id="bottomleft"><rect x="4" y="40" width="8" height="8" fill="#a6b0bb"/><rect x="4" y="47" width="8" height="1" fill="#1a1a1a"/><rect x="4" y="40" width="1" height="8" fill="#1a1a1a"/><rect x="5" y="40" width="1" height="8" fill="#ffffff"/><rect x="4" y="46" width="8" height="1" fill="#5c626b"/></g>
  <g id="bottom"><rect x="12" y="40" width="48" height="8" fill="#a6b0bb"/><rect x="12" y="47" width="48" height="1" fill="#1a1a1a"/><rect x="12" y="46" width="48" height="1" fill="#5c626b"/></g>
  <g id="bottomright"><rect x="60" y="40" width="8" height="8" fill="#a6b0bb"/><rect x="60" y="47" width="8" height="1" fill="#1a1a1a"/><rect x="67" y="40" width="1" height="8" fill="#1a1a1a"/><rect x="60" y="46" width="8" height="1" fill="#5c626b"/><rect x="66" y="40" width="1" height="8" fill="#5c626b"/></g>
</svg>
