<?xml version="1.0" encoding="UTF-8" standalone="no"?>
<svg xmlns="http://www.w3.org/2000/svg" width="60" height="68" viewBox="0 0 60 68">
  <g id="groove-topleft"><rect x="4" y="4" width="6" height="6" fill="#9aa1ac"/><rect x="4" y="4" width="6" height="1" fill="#1a1a1a"/><rect x="4" y="4" width="1" height="6" fill="#1a1a1a"/><rect x="4" y="5" width="6" height="1" fill="#767c86"/><rect x="5" y="4" width="1" height="6" fill="#767c86"/></g>
  <g id="groove-top"><rect x="10" y="4" width="36" height="6" fill="#9aa1ac"/><rect x="10" y="4" width="36" height="1" fill="#1a1a1a"/><rect x="10" y="5" width="36" height="1" fill="#767c86"/></g>
  <g id="groove-topright"><rect x="46" y="4" width="6" height="6" fill="#9aa1ac"/><rect x="46" y="4" width="6" height="1" fill="#1a1a1a"/><rect x="51" y="4" width="1" height="6" fill="#1a1a1a"/><rect x="46" y="5" width="6" height="1" fill="#767c86"/><rect x="50" y="4" width="1" height="6" fill="#ffffff"/></g>
  <g id="groove-left"><rect x="4" y="10" width="6" height="12" fill="#9aa1ac"/><rect x="4" y="10" width="1" height="12" fill="#1a1a1a"/><rect x="5" y="10" width="1" height="12" fill="#767c86"/></g>
  <g id="groove-center"><rect x="10" y="10" width="36" height="12" fill="#9aa1ac"/></g>
  <g id="groove-right"><rect x="46" y="10" width="6" height="12" fill="#9aa1ac"/><rect x="51" y="10" width="1" height="12" fill="#1a1a1a"/><rect x="50" y="10" width="1" height="12" fill="#ffffff"/></g>
  <g id="groove-bottomleft"><rect x="4" y="22" width="6" height="6" fill="#9aa1ac"/><rect x="4" y="27" width="6" height="1" fill="#1a1a1a"/><rect x="4" y="22" width="1" height="6" fill="#1a1a1a"/><rect x="5" y="22" width="1" height="6" fill="#767c86"/><rect x="4" y="26" width="6" height="1" fill="#ffffff"/></g>
  <g id="groove-bottom"><rect x="10" y="22" width="36" height="6" fill="#9aa1ac"/><rect x="10" y="27" width="36" height="1" fill="#1a1a1a"/><rect x="10" y="26" width="36" height="1" fill="#ffffff"/></g>
  <g id="groove-bottomright"><rect x="46" y="22" width="6" height="6" fill="#9aa1ac"/><rect x="46" y="27" width="6" height="1" fill="#1a1a1a"/><rect x="51" y="22" width="1" height="6" fill="#1a1a1a"/><rect x="46" y="26" width="6" height="1" fill="#ffffff"/><rect x="50" y="22" width="1" height="6" fill="#ffffff"/></g>
  <g id="handle-topleft"><rect x="4" y="36" width="6" height="6" fill="#a6adb8"/><rect x="4" y="36" width="6" height="1" fill="#1a1a1a"/><rect x="4" y="36" width="1" height="6" fill="#1a1a1a"/><rect x="4" y="37" width="6" height="1" fill="#ffffff"/><rect x="5" y="36" width="1" height="6" fill="#ffffff"/></g>
  <g id="handle-top"><rect x="10" y="36" width="36" height="6" fill="#a6adb8"/><rect x="10" y="36" width="36" height="1" fill="#1a1a1a"/><rect x="10" y="37" width="36" height="1" fill="#ffffff"/></g>
  <g id="handle-topright"><rect x="46" y="36" width="6" height="6" fill="#a6adb8"/><rect x="46" y="36" width="6" height="1" fill="#1a1a1a"/><rect x="51" y="36" width="1" height="6" fill="#1a1a1a"/><rect x="46" y="37" width="6" height="1" fill="#ffffff"/><rect x="50" y="36" width="1" height="6" fill="#5c626b"/></g>
  <g id="handle-left"><rect x="4" y="42" width="6" height="12" fill="#a6adb8"/><rect x="4" y="42" width="1" height="12" fill="#1a1a1a"/><rect x="5" y="42" width="1" height="12" fill="#ffffff"/></g>
  <g id="handle-center"><rect x="10" y="42" width="36" height="12" fill="#a6adb8"/></g>
  <g id="handle-right"><rect x="46" y="42" width="6" height="12" fill="#a6adb8"/><rect x="51" y="42" width="1" height="12" fill="#1a1a1a"/><rect x="50" y="42" width="1" height="12" fill="#5c626b"/></g>
  <g id="handle-bottomleft"><rect x="4" y="54" width="6" height="6" fill="#a6adb8"/><rect x="4" y="59" width="6" height="1" fill="#1a1a1a"/><rect x="4" y="54" width="1" height="6" fill="#1a1a1a"/><rect x="5" y="54" width="1" height="6" fill="#ffffff"/><rect x="4" y="58" width="6" height="1" fill="#5c626b"/></g>
  <g id="handle-bottom"><rect x="10" y="54" width="36" height="6" fill="#a6adb8"/><rect x="10" y="59" width="36" height="1" fill="#1a1a1a"/><rect x="10" y="58" width="36" height="1" fill="#5c626b"/></g>
  <g id="handle-bottomright"><rect x="46" y="54" width="6" height="6" fill="#a6adb8"/><rect x="46" y="59" width="6" height="1" fill="#1a1a1a"/><rect x="51" y="54" width="1" height="6" fill="#1a1a1a"/><rect x="46" y="58" width="6" height="1" fill="#5c626b"/><rect x="50" y="54" width="1" height="6" fill="#5c626b"/></g>
</svg>
