<?xml version="1.0" encoding="UTF-8" standalone="no"?>
<svg xmlns="http://www.w3.org/2000/svg" width="48" height="48" viewBox="2.5 2.5 43 43">
  <!-- TenshiSTEP-zirconium document-properties: doc + gear -->
  <path d="M9 6 H26 L34 14 V38 H9 Z" fill="#ffffff" stroke="#1a1a1a" stroke-width="1.5" stroke-linejoin="round"/>
  <path d="M26 6 V14 H34 Z" fill="#b0b0b0" stroke="#1a1a1a" stroke-width="1.1" stroke-linejoin="round"/>
  <path d="M10.4 7.4 H25 V13.4 H33" fill="none" stroke="#ffffff" stroke-width="1.1"/>
  <path d="M13 19 H29 M13 23 H29 M13 27 H24" fill="none" stroke="#6e6e6e" stroke-width="1.3"/>
  <g fill="#b0b0b0" stroke="#1a1a1a" stroke-width="1.3" stroke-linejoin="round">
    <rect x="30.7" y="23" width="4.6" height="21" rx="1.2"/>
    <rect x="30.7" y="23" width="4.6" height="21" rx="1.2" transform="rotate(45 33 33.5)"/>
    <rect x="30.7" y="23" width="4.6" height="21" rx="1.2" transform="rotate(90 33 33.5)"/>
    <rect x="30.7" y="23" width="4.6" height="21" rx="1.2" transform="rotate(135 33 33.5)"/>
  </g>
  <circle cx="33" cy="33.5" r="7.4" fill="#9a9a9a" stroke="#1a1a1a" stroke-width="1.3"/>
  <path d="M28.3 30.8 A6 6 0 0 1 31.5 28.3" fill="none" stroke="#ffffff" stroke-width="1"/>
  <circle cx="33" cy="33.5" r="3" fill="#3a3a3a" stroke="#1a1a1a" stroke-width="1"/>
</svg>
