<?xml version="1.0" encoding="UTF-8" standalone="no"?>
<svg xmlns="http://www.w3.org/2000/svg" width="48" height="48" viewBox="3.5 3.5 41 41">
  <!-- TenshiSTEP-zirconium help-faq: question mark speech bubble -->
  <path d="M8 8 H40 A3 3 0 0 1 43 11 V29 A3 3 0 0 1 40 32 H21 L13 40 V32 H8 A3 3 0 0 1 5 29 V11 A3 3 0 0 1 8 8 Z" fill="#9cafc4" stroke="#1a1a1a" stroke-width="1.6" stroke-linejoin="round"/>
  <path d="M6.5 29 V11 A2 2 0 0 1 8.5 9 H39" fill="none" stroke="#ffffff" stroke-width="1.1"/>
  <path d="M41.5 11.5 V29 A2 2 0 0 1 39.5 30.5 H21" fill="none" stroke="#5d6975" stroke-width="1.1"/>
  <path d="M18.5 16.5 A6 6 0 1 1 24 23.5 V25.5" fill="none" stroke="#1a1a1a" stroke-width="3.4" stroke-linecap="round"/>
  <circle cx="24" cy="30" r="2.3" fill="#1a1a1a"/>
</svg>
