<?xml version="1.0" encoding="UTF-8" standalone="no"?>
<svg xmlns="http://www.w3.org/2000/svg" width="48" height="48" viewBox="3.5 3.5 41 41">
  <!-- TenshiSTEP-zirconium tab-close: browser tab + red x -->
  <rect x="5" y="20" width="31" height="18" rx="2" fill="#e8e8e8" stroke="#1a1a1a" stroke-width="1.5" stroke-linejoin="round"/>
  <path d="M9 21 V15.5 A2.5 2.5 0 0 1 11.5 13 H21.5 A2.5 2.5 0 0 1 24 15.5 V21 Z" fill="#9cafc4" stroke="#1a1a1a" stroke-width="1.5" stroke-linejoin="round"/>
  <path d="M10.5 20.5 V16 A1.5 1.5 0 0 1 12 14.5 H20.5" fill="none" stroke="#ffffff" stroke-width="1.1"/>
  <path d="M6.5 36.5 V21.5 H34.5" fill="none" stroke="#ffffff" stroke-width="1.1"/>
  <circle cx="35" cy="35" r="8" fill="#c25a4d" stroke="#1a1a1a" stroke-width="1.5"/>
  <path d="M30 32 A8 8 0 0 1 33 29.4" fill="none" stroke="#ffffff" stroke-width="1"/>
  <path d="M31.6 31.6 L38.4 38.4 M38.4 31.6 L31.6 38.4" fill="none" stroke="#ffffff" stroke-width="2.6" stroke-linecap="round"/>
</svg>
