<svg xmlns="http://www.w3.org/2000/svg" width="16" height="16" viewBox="0 0 16 16">
  <defs><style>.ColorScheme-Text{color:#232629;}</style></defs>
  <g class="ColorScheme-Text" fill="currentColor">
    <path fill-rule="evenodd" d="M6 3.5 A2 2 0 0 1 10 3.5 V7.5 A2 2 0 0 1 6 7.5 ZM3.8 8.5 A4.2 4.2 0 0 1 12.2 8.5 L10.7 8.5 A2.7 2.7 0 0 0 5.3 8.5 ZM7.3 12.7 h1.4 v2.3 h-1.4 zM5 14.7 h6 v1.1 h-6 zM3.7 14.7 L14.7 3.7 L12.3 1.3 L1.3 12.3 z"/>
    <path d="M3.03 14.03 L14.03 3.03 L12.97 1.97 L1.97 12.97 z"/>
  </g>
</svg>
