<?xml version="1.0" encoding="UTF-8" standalone="no"?>
<svg xmlns="http://www.w3.org/2000/svg" width="48" height="48" viewBox="3.5 3.5 41 41">
  <!-- TenshiSTEP clouds -->
  <path d="M20 37 Q15 37 15 33 Q15 29 20 29 Q21 23.5 27.5 23.5 Q34 23.5 34.5 29 Q39 29 39 33 Q39 37 34 37 Z" fill="#adb4b9" stroke="#1a1a1a" stroke-width="1.6" stroke-linejoin="round"/>
  <path d="M15 36 Q8 36 8 29 Q8 23 15 23 Q16 15 25 15 Q34 15 35 23 Q42 23 42 29 Q42 36 35 36 Z" fill="#ccd4da" stroke="#1a1a1a" stroke-width="1.8" stroke-linejoin="round"/>
  <path d="M15.5 24.3 Q16.4 16.3 25 16.3" fill="none" stroke="#ffffff" stroke-width="1.2"/>
</svg>
