<?xml version="1.0" encoding="UTF-8" standalone="no"?>
<svg xmlns="http://www.w3.org/2000/svg" width="68" height="52" viewBox="0 0 68 52">
  <g id="topleft"><rect x="4" y="4" width="7" height="7" fill="#33373e"/><rect x="4" y="4" width="7" height="1" fill="#1a1a1a"/><rect x="4" y="4" width="1" height="7" fill="#1a1a1a"/><rect x="4" y="5" width="7" height="1" fill="#565d67"/><rect x="5" y="4" width="1" height="7" fill="#565d67"/></g>
  <g id="top"><rect x="11" y="4" width="42" height="7" fill="#33373e"/><rect x="11" y="4" width="42" height="1" fill="#1a1a1a"/><rect x="11" y="5" width="42" height="1" fill="#565d67"/></g>
  <g id="topright"><rect x="53" y="4" width="7" height="7" fill="#33373e"/><rect x="53" y="4" width="7" height="1" fill="#1a1a1a"/><rect x="59" y="4" width="1" height="7" fill="#1a1a1a"/><rect x="53" y="5" width="7" height="1" fill="#565d67"/><rect x="58" y="4" width="1" height="7" fill="#14161a"/></g>
  <g id="left"><rect x="4" y="11" width="7" height="26" fill="#33373e"/><rect x="4" y="11" width="1" height="26" fill="#1a1a1a"/><rect x="5" y="11" width="1" height="26" fill="#565d67"/></g>
  <g id="center"><rect x="11" y="11" width="42" height="26" fill="#33373e"/></g>
  <g id="right"><rect x="53" y="11" width="7" height="26" fill="#33373e"/><rect x="59" y="11" width="1" height="26" fill="#1a1a1a"/><rect x="58" y="11" width="1" height="26" fill="#14161a"/></g>
  <g id="bottomleft"><rect x="4" y="37" width="7" height="7" fill="#33373e"/><rect x="4" y="43" width="7" height="1" fill="#1a1a1a"/><rect x="4" y="37" width="1" height="7" fill="#1a1a1a"/><rect x="5" y="37" width="1" height="7" fill="#565d67"/><rect x="4" y="42" width="7" height="1" fill="#14161a"/></g>
  <g id="bottom"><rect x="11" y="37" width="42" height="7" fill="#33373e"/><rect x="11" y="43" width="42" height="1" fill="#1a1a1a"/><rect x="11" y="42" width="42" height="1" fill="#14161a"/></g>
  <g id="bottomright"><rect x="53" y="37" width="7" height="7" fill="#33373e"/><rect x="53" y="43" width="7" height="1" fill="#1a1a1a"/><rect x="59" y="37" width="1" height="7" fill="#1a1a1a"/><rect x="53" y="42" width="7" height="1" fill="#14161a"/><rect x="58" y="37" width="1" height="7" fill="#14161a"/></g>
</svg>
