<?xml version="1.0" encoding="UTF-8" standalone="no"?>
<svg xmlns="http://www.w3.org/2000/svg" width="84" height="132" viewBox="0 0 84 132">
  <g id="normal-topleft"><rect x="4" y="4" width="6" height="6" fill="#3b4048"/><rect x="4" y="4" width="6" height="1" fill="#1a1a1a"/><rect x="4" y="4" width="1" height="6" fill="#1a1a1a"/><rect x="4" y="5" width="6" height="1" fill="#565d67"/><rect x="5" y="4" width="1" height="6" fill="#565d67"/></g>
  <g id="normal-top"><rect x="10" y="4" width="40" height="6" fill="#3b4048"/><rect x="10" y="4" width="40" height="1" fill="#1a1a1a"/><rect x="10" y="5" width="40" height="1" fill="#565d67"/></g>
  <g id="normal-left"><rect x="4" y="10" width="6" height="16" fill="#3b4048"/><rect x="4" y="10" width="1" height="16" fill="#1a1a1a"/><rect x="5" y="10" width="1" height="16" fill="#565d67"/></g>
  <g id="normal-center"><rect x="10" y="10" width="40" height="16" fill="#3b4048"/></g>
  <g id="normal-bottomleft"><rect x="4" y="26" width="6" height="6" fill="#3b4048"/><rect x="4" y="31" width="6" height="1" fill="#1a1a1a"/><rect x="4" y="26" width="1" height="6" fill="#1a1a1a"/><rect x="5" y="26" width="1" height="6" fill="#565d67"/><rect x="4" y="30" width="6" height="1" fill="#14161a"/></g>
  <g id="normal-bottom"><rect x="10" y="26" width="40" height="6" fill="#3b4048"/><rect x="10" y="31" width="40" height="1" fill="#1a1a1a"/><rect x="10" y="30" width="40" height="1" fill="#14161a"/></g>
  <g id="normal-topright"><rect x="50" y="4" width="26" height="6" fill="#3b4048"/><rect x="50" y="4" width="26" height="1" fill="#1a1a1a"/><rect x="75" y="4" width="1" height="6" fill="#1a1a1a"/><rect x="50" y="5" width="26" height="1" fill="#565d67"/><rect x="74" y="4" width="1" height="6" fill="#14161a"/><rect x="53" y="8" width="19" height="2" fill="#2f343b"/><rect x="53" y="8" width="19" height="1" fill="#1a1a1a"/><rect x="54" y="9" width="17" height="1" fill="#14161a"/><rect x="53" y="8" width="1" height="2" fill="#1a1a1a"/><rect x="71" y="8" width="1" height="2" fill="#1a1a1a"/></g>
  <g id="normal-right"><rect x="50" y="10" width="26" height="16" fill="#3b4048"/><rect x="75" y="10" width="1" height="16" fill="#1a1a1a"/><rect x="74" y="10" width="1" height="16" fill="#14161a"/><rect x="53" y="10" width="19" height="16" fill="#2f343b"/><rect x="53" y="10" width="1" height="16" fill="#1a1a1a"/><rect x="54" y="10" width="1" height="16" fill="#14161a"/><rect x="71" y="10" width="1" height="16" fill="#1a1a1a"/><rect x="70" y="10" width="1" height="16" fill="#565d67"/><polygon points="58.5,16.0 66.5,16.0 62.5,21.0" fill="#cdd1d7"/></g>
  <g id="normal-bottomright"><rect x="50" y="26" width="26" height="6" fill="#3b4048"/><rect x="50" y="31" width="26" height="1" fill="#1a1a1a"/><rect x="75" y="26" width="1" height="6" fill="#1a1a1a"/><rect x="50" y="30" width="26" height="1" fill="#14161a"/><rect x="74" y="26" width="1" height="6" fill="#14161a"/><rect x="53" y="26" width="19" height="2" fill="#2f343b"/><rect x="53" y="27" width="19" height="1" fill="#565d67"/><rect x="53" y="26" width="1" height="2" fill="#1a1a1a"/><rect x="71" y="26" width="1" height="2" fill="#1a1a1a"/></g>
  <g id="hover-topleft"><rect x="4" y="36" width="6" height="6" fill="#40454e"/><rect x="4" y="36" width="6" height="1" fill="#1a1a1a"/><rect x="4" y="36" width="1" height="6" fill="#1a1a1a"/><rect x="4" y="37" width="6" height="1" fill="#565d67"/><rect x="5" y="36" width="1" height="6" fill="#565d67"/></g>
  <g id="hover-top"><rect x="10" y="36" width="40" height="6" fill="#40454e"/><rect x="10" y="36" width="40" height="1" fill="#1a1a1a"/><rect x="10" y="37" width="40" height="1" fill="#565d67"/></g>
  <g id="hover-left"><rect x="4" y="42" width="6" height="16" fill="#40454e"/><rect x="4" y="42" width="1" height="16" fill="#1a1a1a"/><rect x="5" y="42" width="1" height="16" fill="#565d67"/></g>
  <g id="hover-center"><rect x="10" y="42" width="40" height="16" fill="#40454e"/></g>
  <g id="hover-bottomleft"><rect x="4" y="58" width="6" height="6" fill="#40454e"/><rect x="4" y="63" width="6" height="1" fill="#1a1a1a"/><rect x="4" y="58" width="1" height="6" fill="#1a1a1a"/><rect x="5" y="58" width="1" height="6" fill="#565d67"/><rect x="4" y="62" width="6" height="1" fill="#14161a"/></g>
  <g id="hover-bottom"><rect x="10" y="58" width="40" height="6" fill="#40454e"/><rect x="10" y="63" width="40" height="1" fill="#1a1a1a"/><rect x="10" y="62" width="40" height="1" fill="#14161a"/></g>
  <g id="hover-topright"><rect x="50" y="36" width="26" height="6" fill="#40454e"/><rect x="50" y="36" width="26" height="1" fill="#1a1a1a"/><rect x="75" y="36" width="1" height="6" fill="#1a1a1a"/><rect x="50" y="37" width="26" height="1" fill="#565d67"/><rect x="74" y="36" width="1" height="6" fill="#14161a"/><rect x="53" y="40" width="19" height="2" fill="#2f343b"/><rect x="53" y="40" width="19" height="1" fill="#1a1a1a"/><rect x="54" y="41" width="17" height="1" fill="#14161a"/><rect x="53" y="40" width="1" height="2" fill="#1a1a1a"/><rect x="71" y="40" width="1" height="2" fill="#1a1a1a"/></g>
  <g id="hover-right"><rect x="50" y="42" width="26" height="16" fill="#40454e"/><rect x="75" y="42" width="1" height="16" fill="#1a1a1a"/><rect x="74" y="42" width="1" height="16" fill="#14161a"/><rect x="53" y="42" width="19" height="16" fill="#2f343b"/><rect x="53" y="42" width="1" height="16" fill="#1a1a1a"/><rect x="54" y="42" width="1" height="16" fill="#14161a"/><rect x="71" y="42" width="1" height="16" fill="#1a1a1a"/><rect x="70" y="42" width="1" height="16" fill="#565d67"/><polygon points="58.5,48.0 66.5,48.0 62.5,53.0" fill="#cdd1d7"/></g>
  <g id="hover-bottomright"><rect x="50" y="58" width="26" height="6" fill="#40454e"/><rect x="50" y="63" width="26" height="1" fill="#1a1a1a"/><rect x="75" y="58" width="1" height="6" fill="#1a1a1a"/><rect x="50" y="62" width="26" height="1" fill="#14161a"/><rect x="74" y="58" width="1" height="6" fill="#14161a"/><rect x="53" y="58" width="19" height="2" fill="#2f343b"/><rect x="53" y="59" width="19" height="1" fill="#565d67"/><rect x="53" y="58" width="1" height="2" fill="#1a1a1a"/><rect x="71" y="58" width="1" height="2" fill="#1a1a1a"/></g>
  <g id="focus-topleft"><rect x="4" y="68" width="6" height="6" fill="#3b4048"/><rect x="4" y="68" width="6" height="1" fill="#6a5fd6"/><rect x="4" y="68" width="1" height="6" fill="#6a5fd6"/><rect x="4" y="69" width="6" height="1" fill="#565d67"/><rect x="5" y="68" width="1" height="6" fill="#565d67"/></g>
  <g id="focus-top"><rect x="10" y="68" width="40" height="6" fill="#3b4048"/><rect x="10" y="68" width="40" height="1" fill="#6a5fd6"/><rect x="10" y="69" width="40" height="1" fill="#565d67"/></g>
  <g id="focus-left"><rect x="4" y="74" width="6" height="16" fill="#3b4048"/><rect x="4" y="74" width="1" height="16" fill="#6a5fd6"/><rect x="5" y="74" width="1" height="16" fill="#565d67"/></g>
  <g id="focus-center"><rect x="10" y="74" width="40" height="16" fill="#3b4048"/></g>
  <g id="focus-bottomleft"><rect x="4" y="90" width="6" height="6" fill="#3b4048"/><rect x="4" y="95" width="6" height="1" fill="#6a5fd6"/><rect x="4" y="90" width="1" height="6" fill="#6a5fd6"/><rect x="5" y="90" width="1" height="6" fill="#565d67"/><rect x="4" y="94" width="6" height="1" fill="#14161a"/></g>
  <g id="focus-bottom"><rect x="10" y="90" width="40" height="6" fill="#3b4048"/><rect x="10" y="95" width="40" height="1" fill="#6a5fd6"/><rect x="10" y="94" width="40" height="1" fill="#14161a"/></g>
  <g id="focus-topright"><rect x="50" y="68" width="26" height="6" fill="#3b4048"/><rect x="50" y="68" width="26" height="1" fill="#6a5fd6"/><rect x="75" y="68" width="1" height="6" fill="#6a5fd6"/><rect x="50" y="69" width="26" height="1" fill="#565d67"/><rect x="74" y="68" width="1" height="6" fill="#14161a"/><rect x="53" y="72" width="19" height="2" fill="#2f343b"/><rect x="53" y="72" width="19" height="1" fill="#6a5fd6"/><rect x="54" y="73" width="17" height="1" fill="#14161a"/><rect x="53" y="72" width="1" height="2" fill="#6a5fd6"/><rect x="71" y="72" width="1" height="2" fill="#6a5fd6"/></g>
  <g id="focus-right"><rect x="50" y="74" width="26" height="16" fill="#3b4048"/><rect x="75" y="74" width="1" height="16" fill="#6a5fd6"/><rect x="74" y="74" width="1" height="16" fill="#14161a"/><rect x="53" y="74" width="19" height="16" fill="#2f343b"/><rect x="53" y="74" width="1" height="16" fill="#6a5fd6"/><rect x="54" y="74" width="1" height="16" fill="#14161a"/><rect x="71" y="74" width="1" height="16" fill="#6a5fd6"/><rect x="70" y="74" width="1" height="16" fill="#565d67"/><polygon points="58.5,80.0 66.5,80.0 62.5,85.0" fill="#cdd1d7"/></g>
  <g id="focus-bottomright"><rect x="50" y="90" width="26" height="6" fill="#3b4048"/><rect x="50" y="95" width="26" height="1" fill="#6a5fd6"/><rect x="75" y="90" width="1" height="6" fill="#6a5fd6"/><rect x="50" y="94" width="26" height="1" fill="#14161a"/><rect x="74" y="90" width="1" height="6" fill="#14161a"/><rect x="53" y="90" width="19" height="2" fill="#2f343b"/><rect x="53" y="91" width="19" height="1" fill="#565d67"/><rect x="53" y="90" width="1" height="2" fill="#6a5fd6"/><rect x="71" y="90" width="1" height="2" fill="#6a5fd6"/></g>
  <g id="pressed-topleft"><rect x="4" y="100" width="6" height="6" fill="#2c3138"/><rect x="4" y="100" width="6" height="1" fill="#1a1a1a"/><rect x="4" y="100" width="1" height="6" fill="#1a1a1a"/><rect x="4" y="101" width="6" height="1" fill="#101216"/><rect x="5" y="100" width="1" height="6" fill="#101216"/></g>
  <g id="pressed-top"><rect x="10" y="100" width="40" height="6" fill="#2c3138"/><rect x="10" y="100" width="40" height="1" fill="#1a1a1a"/><rect x="10" y="101" width="40" height="1" fill="#101216"/></g>
  <g id="pressed-left"><rect x="4" y="106" width="6" height="16" fill="#2c3138"/><rect x="4" y="106" width="1" height="16" fill="#1a1a1a"/><rect x="5" y="106" width="1" height="16" fill="#101216"/></g>
  <g id="pressed-center"><rect x="10" y="106" width="40" height="16" fill="#2c3138"/></g>
  <g id="pressed-bottomleft"><rect x="4" y="122" width="6" height="6" fill="#2c3138"/><rect x="4" y="127" width="6" height="1" fill="#1a1a1a"/><rect x="4" y="122" width="1" height="6" fill="#1a1a1a"/><rect x="5" y="122" width="1" height="6" fill="#101216"/><rect x="4" y="126" width="6" height="1" fill="#565d67"/></g>
  <g id="pressed-bottom"><rect x="10" y="122" width="40" height="6" fill="#2c3138"/><rect x="10" y="127" width="40" height="1" fill="#1a1a1a"/><rect x="10" y="126" width="40" height="1" fill="#565d67"/></g>
  <g id="pressed-topright"><rect x="50" y="100" width="26" height="6" fill="#2c3138"/><rect x="50" y="100" width="26" height="1" fill="#1a1a1a"/><rect x="75" y="100" width="1" height="6" fill="#1a1a1a"/><rect x="50" y="101" width="26" height="1" fill="#101216"/><rect x="74" y="100" width="1" height="6" fill="#565d67"/><rect x="53" y="104" width="19" height="2" fill="#2f343b"/><rect x="53" y="104" width="19" height="1" fill="#1a1a1a"/><rect x="54" y="105" width="17" height="1" fill="#14161a"/><rect x="53" y="104" width="1" height="2" fill="#1a1a1a"/><rect x="71" y="104" width="1" height="2" fill="#1a1a1a"/></g>
  <g id="pressed-right"><rect x="50" y="106" width="26" height="16" fill="#2c3138"/><rect x="75" y="106" width="1" height="16" fill="#1a1a1a"/><rect x="74" y="106" width="1" height="16" fill="#565d67"/><rect x="53" y="106" width="19" height="16" fill="#2f343b"/><rect x="53" y="106" width="1" height="16" fill="#1a1a1a"/><rect x="54" y="106" width="1" height="16" fill="#14161a"/><rect x="71" y="106" width="1" height="16" fill="#1a1a1a"/><rect x="70" y="106" width="1" height="16" fill="#565d67"/><polygon points="58.5,112.0 66.5,112.0 62.5,117.0" fill="#cdd1d7"/></g>
  <g id="pressed-bottomright"><rect x="50" y="122" width="26" height="6" fill="#2c3138"/><rect x="50" y="127" width="26" height="1" fill="#1a1a1a"/><rect x="75" y="122" width="1" height="6" fill="#1a1a1a"/><rect x="50" y="126" width="26" height="1" fill="#565d67"/><rect x="74" y="122" width="1" height="6" fill="#565d67"/><rect x="53" y="122" width="19" height="2" fill="#2f343b"/><rect x="53" y="123" width="19" height="1" fill="#565d67"/><rect x="53" y="122" width="1" height="2" fill="#1a1a1a"/><rect x="71" y="122" width="1" height="2" fill="#1a1a1a"/></g>
</svg>
