<?xml version="1.0" encoding="UTF-8" standalone="no"?>
<svg xmlns="http://www.w3.org/2000/svg" width="60" height="32" viewBox="0 0 60 32">
  <g id="topleft"><rect x="4" y="4" width="5" height="5" fill="#3b4048"/><rect x="4" y="4" width="5" height="1" fill="#1a1a1a"/><rect x="4" y="4" width="1" height="5" fill="#1a1a1a"/><rect x="4" y="5" width="5" height="1" fill="#565d67"/><rect x="5" y="4" width="1" height="5" fill="#565d67"/></g>
  <g id="top"><rect x="9" y="4" width="38" height="5" fill="#3b4048"/><rect x="9" y="4" width="38" height="1" fill="#1a1a1a"/><rect x="9" y="5" width="38" height="1" fill="#565d67"/></g>
  <g id="topright"><rect x="47" y="4" width="5" height="5" fill="#3b4048"/><rect x="47" y="4" width="5" height="1" fill="#1a1a1a"/><rect x="51" y="4" width="1" height="5" fill="#1a1a1a"/><rect x="47" y="5" width="5" height="1" fill="#565d67"/><rect x="50" y="4" width="1" height="5" fill="#14161a"/></g>
  <g id="left"><rect x="4" y="9" width="5" height="14" fill="#3b4048"/><rect x="4" y="9" width="1" height="14" fill="#1a1a1a"/><rect x="5" y="9" width="1" height="14" fill="#565d67"/></g>
  <g id="center"><rect x="9" y="9" width="38" height="14" fill="#3b4048"/></g>
  <g id="right"><rect x="47" y="9" width="5" height="14" fill="#3b4048"/><rect x="51" y="9" width="1" height="14" fill="#1a1a1a"/><rect x="50" y="9" width="1" height="14" fill="#14161a"/></g>
  <g id="bottomleft"><rect x="4" y="23" width="5" height="5" fill="#3b4048"/><rect x="4" y="27" width="5" height="1" fill="#1a1a1a"/><rect x="4" y="23" width="1" height="5" fill="#1a1a1a"/><rect x="5" y="23" width="1" height="5" fill="#565d67"/><rect x="4" y="26" width="5" height="1" fill="#14161a"/></g>
  <g id="bottom"><rect x="9" y="23" width="38" height="5" fill="#3b4048"/><rect x="9" y="27" width="38" height="1" fill="#1a1a1a"/><rect x="9" y="26" width="38" height="1" fill="#14161a"/></g>
  <g id="bottomright"><rect x="47" y="23" width="5" height="5" fill="#3b4048"/><rect x="47" y="27" width="5" height="1" fill="#1a1a1a"/><rect x="51" y="23" width="1" height="5" fill="#1a1a1a"/><rect x="47" y="26" width="5" height="1" fill="#14161a"/><rect x="50" y="23" width="1" height="5" fill="#14161a"/></g>
</svg>
