<?xml version="1.0" encoding="UTF-8" standalone="no"?>
<svg xmlns="http://www.w3.org/2000/svg" width="60" height="68" viewBox="0 0 60 68">
  <g id="slider-topleft"><rect x="4" y="4" width="6" height="6" fill="#3b4048"/><rect x="4" y="4" width="6" height="1" fill="#1a1a1a"/><rect x="4" y="4" width="1" height="6" fill="#1a1a1a"/><rect x="4" y="5" width="6" height="1" fill="#565d67"/><rect x="5" y="4" width="1" height="6" fill="#565d67"/></g>
  <g id="slider-top"><rect x="10" y="4" width="36" height="6" fill="#3b4048"/><rect x="10" y="4" width="36" height="1" fill="#1a1a1a"/><rect x="10" y="5" width="36" height="1" fill="#565d67"/></g>
  <g id="slider-topright"><rect x="46" y="4" width="6" height="6" fill="#3b4048"/><rect x="46" y="4" width="6" height="1" fill="#1a1a1a"/><rect x="51" y="4" width="1" height="6" fill="#1a1a1a"/><rect x="46" y="5" width="6" height="1" fill="#565d67"/><rect x="50" y="4" width="1" height="6" fill="#14161a"/></g>
  <g id="slider-left"><rect x="4" y="10" width="6" height="12" fill="#3b4048"/><rect x="4" y="10" width="1" height="12" fill="#1a1a1a"/><rect x="5" y="10" width="1" height="12" fill="#565d67"/></g>
  <g id="slider-center"><rect x="10" y="10" width="36" height="12" fill="#3b4048"/></g>
  <g id="slider-right"><rect x="46" y="10" width="6" height="12" fill="#3b4048"/><rect x="51" y="10" width="1" height="12" fill="#1a1a1a"/><rect x="50" y="10" width="1" height="12" fill="#14161a"/></g>
  <g id="slider-bottomleft"><rect x="4" y="22" width="6" height="6" fill="#3b4048"/><rect x="4" y="27" width="6" height="1" fill="#1a1a1a"/><rect x="4" y="22" width="1" height="6" fill="#1a1a1a"/><rect x="5" y="22" width="1" height="6" fill="#565d67"/><rect x="4" y="26" width="6" height="1" fill="#14161a"/></g>
  <g id="slider-bottom"><rect x="10" y="22" width="36" height="6" fill="#3b4048"/><rect x="10" y="27" width="36" height="1" fill="#1a1a1a"/><rect x="10" y="26" width="36" height="1" fill="#14161a"/></g>
  <g id="slider-bottomright"><rect x="46" y="22" width="6" height="6" fill="#3b4048"/><rect x="46" y="27" width="6" height="1" fill="#1a1a1a"/><rect x="51" y="22" width="1" height="6" fill="#1a1a1a"/><rect x="46" y="26" width="6" height="1" fill="#14161a"/><rect x="50" y="22" width="1" height="6" fill="#14161a"/></g>
  <g id="groove-topleft"><rect x="4" y="36" width="6" height="6" fill="#2c3138"/><rect x="4" y="36" width="6" height="1" fill="#1a1a1a"/><rect x="4" y="36" width="1" height="6" fill="#1a1a1a"/><rect x="4" y="37" width="6" height="1" fill="#101216"/><rect x="5" y="36" width="1" height="6" fill="#101216"/></g>
  <g id="groove-top"><rect x="10" y="36" width="36" height="6" fill="#2c3138"/><rect x="10" y="36" width="36" height="1" fill="#1a1a1a"/><rect x="10" y="37" width="36" height="1" fill="#101216"/></g>
  <g id="groove-topright"><rect x="46" y="36" width="6" height="6" fill="#2c3138"/><rect x="46" y="36" width="6" height="1" fill="#1a1a1a"/><rect x="51" y="36" width="1" height="6" fill="#1a1a1a"/><rect x="46" y="37" width="6" height="1" fill="#101216"/><rect x="50" y="36" width="1" height="6" fill="#565d67"/></g>
  <g id="groove-left"><rect x="4" y="42" width="6" height="12" fill="#2c3138"/><rect x="4" y="42" width="1" height="12" fill="#1a1a1a"/><rect x="5" y="42" width="1" height="12" fill="#101216"/></g>
  <g id="groove-center"><rect x="10" y="42" width="36" height="12" fill="#2c3138"/></g>
  <g id="groove-right"><rect x="46" y="42" width="6" height="12" fill="#2c3138"/><rect x="51" y="42" width="1" height="12" fill="#1a1a1a"/><rect x="50" y="42" width="1" height="12" fill="#565d67"/></g>
  <g id="groove-bottomleft"><rect x="4" y="54" width="6" height="6" fill="#2c3138"/><rect x="4" y="59" width="6" height="1" fill="#1a1a1a"/><rect x="4" y="54" width="1" height="6" fill="#1a1a1a"/><rect x="5" y="54" width="1" height="6" fill="#101216"/><rect x="4" y="58" width="6" height="1" fill="#565d67"/></g>
  <g id="groove-bottom"><rect x="10" y="54" width="36" height="6" fill="#2c3138"/><rect x="10" y="59" width="36" height="1" fill="#1a1a1a"/><rect x="10" y="58" width="36" height="1" fill="#565d67"/></g>
  <g id="groove-bottomright"><rect x="46" y="54" width="6" height="6" fill="#2c3138"/><rect x="46" y="59" width="6" height="1" fill="#1a1a1a"/><rect x="51" y="54" width="1" height="6" fill="#1a1a1a"/><rect x="46" y="58" width="6" height="1" fill="#565d67"/><rect x="50" y="54" width="1" height="6" fill="#565d67"/></g>
</svg>
