<?xml version="1.0" encoding="UTF-8" standalone="no"?>
<svg xmlns="http://www.w3.org/2000/svg" width="68" height="48" viewBox="0 0 68 48">
  <g id="topleft"><rect x="4" y="4" width="6" height="6" fill="#33373e"/><rect x="4" y="4" width="6" height="1" fill="#1a1a1a"/><rect x="4" y="4" width="1" height="6" fill="#1a1a1a"/><rect x="4" y="5" width="6" height="1" fill="#565d67"/><rect x="5" y="4" width="1" height="6" fill="#565d67"/></g>
  <g id="top"><rect x="10" y="4" width="44" height="6" fill="#33373e"/><rect x="10" y="4" width="44" height="1" fill="#1a1a1a"/><rect x="10" y="5" width="44" height="1" fill="#565d67"/></g>
  <g id="topright"><rect x="54" y="4" width="6" height="6" fill="#33373e"/><rect x="54" y="4" width="6" height="1" fill="#1a1a1a"/><rect x="59" y="4" width="1" height="6" fill="#1a1a1a"/><rect x="54" y="5" width="6" height="1" fill="#565d67"/><rect x="58" y="4" width="1" height="6" fill="#14161a"/></g>
  <g id="left"><rect x="4" y="10" width="6" height="24" fill="#33373e"/><rect x="4" y="10" width="1" height="24" fill="#1a1a1a"/><rect x="5" y="10" width="1" height="24" fill="#565d67"/></g>
  <g id="center"><rect x="10" y="10" width="44" height="24" fill="#33373e"/></g>
  <g id="right"><rect x="54" y="10" width="6" height="24" fill="#33373e"/><rect x="59" y="10" width="1" height="24" fill="#1a1a1a"/><rect x="58" y="10" width="1" height="24" fill="#14161a"/></g>
  <g id="bottomleft"><rect x="4" y="34" width="6" height="6" fill="#33373e"/><rect x="4" y="39" width="6" height="1" fill="#1a1a1a"/><rect x="4" y="34" width="1" height="6" fill="#1a1a1a"/><rect x="5" y="34" width="1" height="6" fill="#565d67"/><rect x="4" y="38" width="6" height="1" fill="#14161a"/></g>
  <g id="bottom"><rect x="10" y="34" width="44" height="6" fill="#33373e"/><rect x="10" y="39" width="44" height="1" fill="#1a1a1a"/><rect x="10" y="38" width="44" height="1" fill="#14161a"/></g>
  <g id="bottomright"><rect x="54" y="34" width="6" height="6" fill="#33373e"/><rect x="54" y="39" width="6" height="1" fill="#1a1a1a"/><rect x="59" y="34" width="1" height="6" fill="#1a1a1a"/><rect x="54" y="38" width="6" height="1" fill="#14161a"/><rect x="58" y="34" width="1" height="6" fill="#14161a"/></g>
</svg>
