<?xml version="1.0" encoding="UTF-8" standalone="no"?>
<svg xmlns="http://www.w3.org/2000/svg" width="48" height="48" viewBox="3.5 3.5 41 41">
  <!-- TenshiSTEP graphics card -->
  <path d="M5 12 H43 V33 H12 L12 38 H8 L8 33 H5 Z" fill="#9cafc4" stroke="#1a1a1a" stroke-width="1.6" stroke-linejoin="round"/>
  <path d="M6.5 13.5 H41.5" fill="none" stroke="#ffffff" stroke-width="1"/>
  <path d="M41.5 14 V31.5 H6.5" fill="none" stroke="#5d6975" stroke-width="1"/>
  <!-- gold edge connector -->
  <rect x="14" y="33" width="20" height="4" fill="#d3b64f" stroke="#1a1a1a" stroke-width="1"/>
  <path d="M18 33 V37 M22 33 V37 M26 33 V37 M30 33 V37" stroke="#1a1a1a" stroke-width="0.8"/>
  <!-- fan -->
  <circle cx="18" cy="22" r="8" fill="#31353c" stroke="#1a1a1a" stroke-width="1.2"/>
  <circle cx="18" cy="22" r="2" fill="#5d6975" stroke="#1a1a1a" stroke-width="0.8"/>
  <g stroke="#5d6975" stroke-width="1.4" stroke-linecap="round">
    <path d="M18 22 L18 15"/>
    <path d="M18 22 L24 25"/>
    <path d="M18 22 L12 25"/>
    <path d="M18 22 L23 17"/>
    <path d="M18 22 L13 17"/>
  </g>
  <!-- GPU chip / heatsink -->
  <rect x="30" y="16" width="9" height="12" rx="0.6" fill="#5d6975" stroke="#1a1a1a" stroke-width="1"/>
  <path d="M32 16 V28 M34.5 16 V28 M37 16 V28" stroke="#31353c" stroke-width="1"/>
</svg>
