<svg xmlns="http://www.w3.org/2000/svg" width="16" height="16" viewBox="0 0 16 16">
  <defs><style>.ColorScheme-Text{color:#232629;}</style></defs>
  <g class="ColorScheme-Text" fill="currentColor">
    <path fill-rule="evenodd" d="M1 4 h14 v8 h-14 zM2.5 5.3 h1.4 v1.6 h-1.4 zM4.4 5.3 h1.4 v1.6 h-1.4 zM6.3 5.3 h1.4 v1.6 h-1.4 zM8.2 5.3 h1.4 v1.6 h-1.4 zM10.1 5.3 h1.4 v1.6 h-1.4 zM12 5.3 h1.4 v1.6 h-1.4 zM2.5 7.4 h1.4 v1.6 h-1.4 zM4.4 7.4 h1.4 v1.6 h-1.4 zM6.3 7.4 h1.4 v1.6 h-1.4 zM8.2 7.4 h1.4 v1.6 h-1.4 zM10.1 7.4 h1.4 v1.6 h-1.4 zM12 7.4 h1.4 v1.6 h-1.4 zM4.5 9.5 h7 v1.4 h-7 zM2.5 9.5 h1.4 v1.4 h-1.4 zM12 9.5 h1.4 v1.4 h-1.4 z"/>
  </g>
</svg>
