<?xml version="1.0" encoding="UTF-8" standalone="no"?>
<svg xmlns="http://www.w3.org/2000/svg" width="48" height="48" viewBox="2.5 2.5 43 43">
  <!-- TenshiSTEP-zirconium keyboard -->
  <rect x="4" y="14" width="40" height="20" rx="2.5" fill="#9cafc4" stroke="#1a1a1a" stroke-width="1.6"/>
  <path d="M5.5 15.5 H42.5" fill="none" stroke="#ffffff" stroke-width="1"/>
  <g fill="#5d6975">
    <rect x="8" y="18" width="3" height="3"/><rect x="13" y="18" width="3" height="3"/><rect x="18" y="18" width="3" height="3"/><rect x="23" y="18" width="3" height="3"/><rect x="28" y="18" width="3" height="3"/><rect x="33" y="18" width="3" height="3"/><rect x="38" y="18" width="2" height="3"/>
    <rect x="8" y="23" width="3" height="3"/><rect x="13" y="23" width="3" height="3"/><rect x="18" y="23" width="3" height="3"/><rect x="23" y="23" width="3" height="3"/><rect x="28" y="23" width="3" height="3"/><rect x="33" y="23" width="3" height="3"/><rect x="38" y="23" width="2" height="3"/>
  </g>
  <rect x="15" y="28" width="18" height="3" fill="#5d6975"/>
</svg>
