<?xml version="1.0" encoding="UTF-8"?>
<svg xmlns="http://www.w3.org/2000/svg" width="48" height="48" viewBox="3.5 3.5 41 41">
  <!-- panel -->
  <rect x="10" y="5" width="28" height="38" rx="3" fill="#9cafc4" stroke="#1a1a1a" stroke-width="1.6"/>
  <path d="M11.5 6.5 H36.5" fill="none" stroke="#ffffff" stroke-width="1"/>
  <path d="M11.5 41.5 H36.5" fill="none" stroke="#5d6975" stroke-width="1"/>
  <!-- small display -->
  <rect x="14" y="8" width="20" height="4" rx="1" fill="#31353c" stroke="#1a1a1a" stroke-width="1.2"/>
  <!-- 3x4 grid of keys -->
  <g fill="#ffffff" stroke="#1a1a1a" stroke-width="1.3">
    <rect x="14" y="15" width="5" height="5" rx="1"/>
    <rect x="21.5" y="15" width="5" height="5" rx="1"/>
    <rect x="29" y="15" width="5" height="5" rx="1"/>
    <rect x="14" y="22" width="5" height="5" rx="1"/>
    <rect x="21.5" y="22" width="5" height="5" rx="1"/>
    <rect x="29" y="22" width="5" height="5" rx="1"/>
    <rect x="14" y="29" width="5" height="5" rx="1"/>
    <rect x="21.5" y="29" width="5" height="5" rx="1"/>
    <rect x="29" y="29" width="5" height="5" rx="1"/>
    <rect x="14" y="36" width="5" height="5" rx="1"/>
    <rect x="21.5" y="36" width="5" height="5" rx="1"/>
    <rect x="29" y="36" width="5" height="5" rx="1"/>
  </g>
</svg>
