<?xml version="1.0" encoding="UTF-8" standalone="no"?>
<svg xmlns="http://www.w3.org/2000/svg" width="48" height="48" viewBox="1 1 46 46">
  <!-- TenshiSTEP appointment-new: calendar + green plus -->
  <rect x="14" y="6" width="3.5" height="7" rx="1.5" fill="#9a9a9a" stroke="#1a1a1a" stroke-width="1.2"/>
  <rect x="28" y="6" width="3.5" height="7" rx="1.5" fill="#9a9a9a" stroke="#1a1a1a" stroke-width="1.2"/>
  <rect x="7" y="9" width="32" height="30" rx="2" fill="#ffffff" stroke="#1a1a1a" stroke-width="1.6"/>
  <path d="M7 16 V11 Q7 9 9 9 H37 Q39 9 39 11 V16 Z" fill="#c25a4d" stroke="#1a1a1a" stroke-width="1.4" stroke-linejoin="round"/>
  <path d="M8.6 11 Q8.6 10.4 9.4 10.4 H36" fill="none" stroke="#ffffff" stroke-width="1"/>
  <path d="M12 22 H16 M20 22 H24 M28 22 H32 M12 27 H16 M20 27 H24" fill="none" stroke="#6e6e6e" stroke-width="1.8" stroke-linecap="round"/>
  <circle cx="38" cy="35" r="7.5" fill="#3e8e5a" stroke="#1a1a1a" stroke-width="1.5"/>
  <path d="M33.8 32.2 A5.2 5.2 0 0 1 36.6 29.9" fill="none" stroke="#ffffff" stroke-width="1.1"/>
  <path d="M38 31 V39 M34 35 H42" fill="none" stroke="#ffffff" stroke-width="2.3" stroke-linecap="round"/>
</svg>
