<?xml version="1.0" encoding="UTF-8" standalone="no"?>
<svg xmlns="http://www.w3.org/2000/svg" width="48" height="48" viewBox="3.5 3.5 41 41">
  <!-- TenshiSTEP hibernate: snowflake (frozen state) -->
  <g stroke="#1a1a1a" stroke-width="2.6" stroke-linecap="round" fill="none">
    <path d="M24 7 V41"/>
    <path d="M9.3 15.5 L38.7 32.5"/>
    <path d="M38.7 15.5 L9.3 32.5"/>
    <path d="M24 7 L20 11 M24 7 L28 11 M24 41 L20 37 M24 41 L28 37"/>
    <path d="M9.3 15.5 L9 20.6 M9.3 15.5 L14.2 14.5 M38.7 32.5 L38.9 27.4 M38.7 32.5 L33.8 33.5"/>
    <path d="M38.7 15.5 L33.8 14.5 M38.7 15.5 L38.9 20.6 M9.3 32.5 L14.2 33.5 M9.3 32.5 L9 27.4"/>
  </g>
</svg>
