<svg xmlns="http://www.w3.org/2000/svg" width="48" height="48" viewBox="3.5 3.5 41 41">
  <path d="M13 34 C10 24 14 12 24 10 C34 12 38 24 35 34 L30 34 C30 26 27 22 27 22 L21 22 C21 22 18 26 18 34 Z" fill="#b5893f" stroke="#1a1a1a" stroke-width="1.5" stroke-linejoin="round"/>
  <path d="M20 22 L20 40 L28 40 L28 22 Z" fill="#c99a4a" stroke="#1a1a1a" stroke-width="1.4" stroke-linejoin="round"/>
  <path d="M24 8 C24 8 30 9 32 14 L24 16 L16 14 C18 9 24 8 24 8 Z" fill="#8a1f1f" stroke="#1a1a1a" stroke-width="1.3" stroke-linejoin="round"/>
  <circle cx="21" cy="28" r="1.4" fill="#1a1a1a"/>
  <circle cx="27" cy="28" r="1.4" fill="#1a1a1a"/>
</svg>
