<svg xmlns="http://www.w3.org/2000/svg" width="48" height="48" viewBox="2.5 2.5 43 43">
  <rect x="20" y="4" width="8" height="7" rx="1" fill="#8a6a4a" stroke="#1a1a1a" stroke-width="1.2"/>
  <path d="M20 11 H28 V16 C28 18 31 20 31 24 V40 C31 42 30 43 28 43 H20 C18 43 17 42 17 40 V24 C17 20 20 18 20 16 Z" fill="#3e8e5a" stroke="#1a1a1a" stroke-width="1.5" stroke-linejoin="round"/>
  <path d="M17 28 H31 V40 C31 42 30 43 28 43 H20 C18 43 17 42 17 40 Z" fill="#c99a4a" stroke="#1a1a1a" stroke-width="1.4" stroke-linejoin="round"/>
  <rect x="20" y="20" width="8" height="5" rx="1" fill="#ffffff"/>
</svg>
