<svg xmlns="http://www.w3.org/2000/svg" width="48" height="48" viewBox="3.5 3.5 41 41">
  <path d="M8 38 C10 24 16 30 16 22 C16 20 14 19 14 15 C20 13 28 13 34 15 C34 19 32 20 32 22 C32 30 38 24 40 38 Z" fill="#5d6975" stroke="#1a1a1a" stroke-width="1.4" stroke-linejoin="round"/>
  <path d="M16 22 C20 24 28 24 32 22" fill="none" stroke="#1a1a1a" stroke-width="1.2"/>
  <path d="M24 26 L22 40 L26 40 Z" fill="#8a6a4a" stroke="#1a1a1a" stroke-width="1" stroke-linejoin="round"/>
  <path d="M9 8 C15 10 19 14 21 19" fill="none" stroke="#1a1a1a" stroke-width="3.2" stroke-linecap="round"/>
  <path d="M9 8 C15 10 19 14 21 19" fill="none" stroke="#a5b7c9" stroke-width="1.6" stroke-linecap="round"/>
  <path d="M39 8 C33 10 29 14 27 19" fill="none" stroke="#1a1a1a" stroke-width="3.2" stroke-linecap="round"/>
  <path d="M39 8 C33 10 29 14 27 19" fill="none" stroke="#a5b7c9" stroke-width="1.6" stroke-linecap="round"/>
</svg>
