<svg xmlns="http://www.w3.org/2000/svg" width="48" height="48" viewBox="2.5 2.5 43 43">
  <path d="M18 22 H41 A2 2 0 0 1 43 24 V37 A2 2 0 0 1 41 39 H30 L24 44 V39 H18 A2 2 0 0 1 16 37 V24 A2 2 0 0 1 18 22 Z" fill="#2b7fb0" stroke="#1a1a1a" stroke-width="1.4" stroke-linejoin="round"/>
  <path d="M7 6 H30 A2 2 0 0 1 32 8 V21 A2 2 0 0 1 30 23 H19 L13 28 V23 H7 A2 2 0 0 1 5 21 V8 A2 2 0 0 1 7 6 Z" fill="#3daee9" stroke="#1a1a1a" stroke-width="1.4" stroke-linejoin="round"/>
  <circle cx="12" cy="14.5" r="1.7" fill="#ffffff"/>
  <circle cx="18.5" cy="14.5" r="1.7" fill="#ffffff"/>
  <circle cx="25" cy="14.5" r="1.7" fill="#ffffff"/>
</svg>
