<svg xmlns="http://www.w3.org/2000/svg" width="48" height="48" viewBox="3.5 3.5 41 41">
  <rect x="6" y="8" width="30" height="24" rx="1.5" fill="#92a4b8" stroke="#1a1a1a" stroke-width="1.5"/>
  <rect x="7.5" y="9.5" width="27" height="5" fill="#8494a6"/>
  <path d="M7.5 9.5 H34.5" fill="none" stroke="#ffffff" stroke-width="0.9"/>
  <rect x="12" y="18" width="20" height="10" fill="#eef2f6"/>
  <path d="M23 33 h5 l0.7 2.6 2.2 1.1 2.6-1.3 1.8 1.8 -1.3 2.6 1.1 2.2 2.6 0.7 v5 l-2.6 0.7" fill="none" stroke="none"/>
  <path d="M33 30 h3 l0.6 2.4 2 1 2.4-1.2 1.6 1.6 -1.2 2.4 1 2 2.4 0.6 v3 l-2.4 0.6 -1 2 1.2 2.4 -1.6 1.6 -2.4-1.2 -2 1 -0.6 2.4 h-3 l-0.6-2.4 -2-1 -2.4 1.2 -1.6-1.6 1.2-2.4 -1-2 -2.4-0.6 v-3 l2.4-0.6 1-2 -1.2-2.4 1.6-1.6 2.4 1.2 2-1 Z" fill="#5d6975" stroke="#1a1a1a" stroke-width="1.2" stroke-linejoin="round" transform="translate(-2 -4) scale(0.72)"/>
  <circle cx="34.5" cy="34.5" r="3.2" fill="#eef2f6" stroke="#1a1a1a" stroke-width="1.1"/>
</svg>
