<svg xmlns="http://www.w3.org/2000/svg" width="48" height="48" viewBox="2.5 2.5 43 43">
  <path d="M24 7 C14 7 11 16 11 24 C11 34 16 41 24 41 C32 41 37 34 37 24 C37 16 34 7 24 7 Z" fill="#1a1a1a"/>
  <path d="M24 20 C18 20 15 26 15 31 C15 37 19 41 24 41 C29 41 33 37 33 31 C33 26 30 20 24 20 Z" fill="#ffffff"/>
  <circle cx="20" cy="18" r="2.4" fill="#ffffff"/>
  <circle cx="28" cy="18" r="2.4" fill="#ffffff"/>
  <circle cx="20.5" cy="18.5" r="1.2" fill="#1a1a1a"/>
  <circle cx="27.5" cy="18.5" r="1.2" fill="#1a1a1a"/>
  <path d="M22 21 L26 21 L27 25 L24 27 L21 25 Z" fill="#e0a020" stroke="#1a1a1a" stroke-width="1" stroke-linejoin="round"/>
  <path d="M4 30 L15 27 L15 33 Z" fill="#e0a020" stroke="#1a1a1a" stroke-width="1.1" stroke-linejoin="round"/>
</svg>
