<svg xmlns="http://www.w3.org/2000/svg" width="48" height="48" viewBox="3.5 3.5 41 41"><rect x="22" y="8" width="4" height="6" rx="1" fill="#5f7186" stroke="#1a1a1a" stroke-width="1" transform="rotate(0 24 24)"/><rect x="22" y="8" width="4" height="6" rx="1" fill="#5f7186" stroke="#1a1a1a" stroke-width="1" transform="rotate(45 24 24)"/><rect x="22" y="8" width="4" height="6" rx="1" fill="#5f7186" stroke="#1a1a1a" stroke-width="1" transform="rotate(90 24 24)"/><rect x="22" y="8" width="4" height="6" rx="1" fill="#5f7186" stroke="#1a1a1a" stroke-width="1" transform="rotate(135 24 24)"/><rect x="22" y="8" width="4" height="6" rx="1" fill="#5f7186" stroke="#1a1a1a" stroke-width="1" transform="rotate(180 24 24)"/><rect x="22" y="8" width="4" height="6" rx="1" fill="#5f7186" stroke="#1a1a1a" stroke-width="1" transform="rotate(225 24 24)"/><rect x="22" y="8" width="4" height="6" rx="1" fill="#5f7186" stroke="#1a1a1a" stroke-width="1" transform="rotate(270 24 24)"/><rect x="22" y="8" width="4" height="6" rx="1" fill="#5f7186" stroke="#1a1a1a" stroke-width="1" transform="rotate(315 24 24)"/><circle cx="24" cy="24" r="11" fill="#6a7a8a" stroke="#1a1a1a" stroke-width="1.4"/><circle cx="24" cy="24" r="4.5" fill="#a0a7b2" stroke="#1a1a1a" stroke-width="1.3"/></svg>