<svg xmlns="http://www.w3.org/2000/svg" width="48" height="48" viewBox="3.5 3.5 41 41">
  <rect x="6" y="10" width="36" height="10" rx="1" fill="#31353c" stroke="#1a1a1a" stroke-width="1.3"/>
  <rect x="9" y="12" width="4" height="6" fill="#8494a6"/>
  <rect x="16" y="12" width="4" height="6" fill="#8494a6"/>
  <rect x="23" y="12" width="4" height="6" fill="#8494a6"/>
  <rect x="30" y="12" width="4" height="6" fill="#8494a6"/>
  <circle cx="24" cy="32" r="9" fill="none" stroke="#1a1a1a" stroke-width="1.4"/>
  <path d="M24 23 A9 9 0 0 1 31.8 27.5 L24 32 Z" fill="#c0492f"/>
  <path d="M31.8 27.5 A9 9 0 0 1 31.8 36.5 L24 32 Z" fill="#3e8e5a"/>
  <path d="M31.8 36.5 A9 9 0 0 1 24 41 A9 9 0 0 1 16.2 36.5 L24 32 Z" fill="#3b6fb0"/>
  <path d="M16.2 36.5 A9 9 0 0 1 24 23 L24 32 Z" fill="#d8b83a"/>
  <circle cx="24" cy="32" r="2.4" fill="#31353c" stroke="#1a1a1a" stroke-width="1"/>
</svg>
