<svg xmlns="http://www.w3.org/2000/svg" width="48" height="48" viewBox="0.5 0.5 47 47"><path d="M14 16 L11 6 L20 11 Z" fill="#c9b78f" stroke="#1a1a1a" stroke-width="1.2" stroke-linejoin="round"/><path d="M34 16 L37 6 L28 11 Z" fill="#c9b78f" stroke="#1a1a1a" stroke-width="1.2" stroke-linejoin="round"/><path d="M13 18 Q13 10 24 10 Q35 10 35 18 Q35 28 28 33 L24 36 L20 33 Q13 28 13 18 Z" fill="#c9b78f" stroke="#1a1a1a" stroke-width="1.4" stroke-linejoin="round"/><circle cx="20" cy="20" r="1.8" fill="#1a1a1a"/><circle cx="28" cy="20" r="1.8" fill="#1a1a1a"/><path d="M24 26 L21 29 L24 31.5 L27 29 Z" fill="#5a4a30"/><g transform="rotate(28 24 34)"><rect x="22.3" y="31" width="3.4" height="13" fill="#c07a2a" stroke="#1a1a1a" stroke-width="1"/><rect x="22.1" y="30" width="3.8" height="3" fill="#8a8f96" stroke="#1a1a1a" stroke-width="0.8"/><path d="M22.4 44 L24 47.5 L25.6 44 Z" fill="#e05a5a" stroke="#1a1a1a" stroke-width="0.8"/></g></svg>