<svg xmlns="http://www.w3.org/2000/svg" width="48" height="48" viewBox="3.5 3.5 41 41"><path d="M17 13 Q13 6 17 5 Q16 10 20 13 Z" fill="#f0ece0" stroke="#1a1a1a" stroke-width="1.3" stroke-linejoin="round"/><path d="M31 13 Q35 6 31 5 Q32 10 28 13 Z" fill="#f0ece0" stroke="#1a1a1a" stroke-width="1.3" stroke-linejoin="round"/><path d="M18 13 Q17 24 20 32 Q22 40 24 43 Q26 40 28 32 Q31 24 30 13 Q27 11 24 11 Q21 11 18 13 Z" fill="#f0ece0" stroke="#1a1a1a" stroke-width="1.4" stroke-linejoin="round"/><circle cx="21" cy="18" r="1.5" fill="#1a1a1a"/><circle cx="27" cy="18" r="1.5" fill="#1a1a1a"/><path d="M22 25 Q24 27 26 25" fill="none" stroke="#1a1a1a" stroke-width="1.2"/><path d="M21 32 Q20 37 22 40 M27 32 Q28 37 26 40 M24 34 V42" fill="none" stroke="#a49a86" stroke-width="1"/></svg>