<svg xmlns="http://www.w3.org/2000/svg" width="48" height="48" viewBox="0 0 48 48">
  <path d="M20 5 h6 l1 5 3.5 1.7 4.5-2.3 4 4 -2.3 4.5 1.7 3.5 5 1 v6 l-5 1 -1.7 3.5 2.3 4.5 -4 4 -4.5-2.3 -3.5 1.7 -1 5 h-6 l-1-5 -3.5-1.7 -4.5 2.3 -4-4 2.3-4.5 -1.7-3.5 -5-1 v-6 l5-1 1.7-3.5 -2.3-4.5 4-4 4.5 2.3 3.5-1.7 Z" fill="#5d6975" stroke="#1a1a1a" stroke-width="1.4" stroke-linejoin="round" transform="translate(-1 -1) scale(0.92)"/>
  <circle cx="21" cy="21" r="6" fill="#eef2f6" stroke="#1a1a1a" stroke-width="1.3"/>
  <path d="M30 30 L38 24 L42 28 L34 34 L36 40 L31 41 L29 35 Z" fill="#8494a6" stroke="#1a1a1a" stroke-width="1.3" stroke-linejoin="round"/>
</svg>
