<svg xmlns="http://www.w3.org/2000/svg" width="48" height="48" viewBox="3.5 3.5 41 41">
  <path d="M9 8 H33 Q37 8 37 12 V40 H13 Q9 40 9 36 Z" fill="#c0492f" stroke="#1a1a1a" stroke-width="1.5" stroke-linejoin="round"/>
  <path d="M13 40 Q9 40 9 36 Q9 39 13 38 H37 V40 Z" fill="#a5762f" stroke="#1a1a1a" stroke-width="1.1" stroke-linejoin="round"/>
  <rect x="14" y="12" width="18" height="22" fill="#f0ece0" stroke="#1a1a1a" stroke-width="1.1"/>
  <g fill="none" stroke="#5d6975" stroke-width="1.4">
    <circle cx="23" cy="23" r="4.5"/>
    <path d="M23 15 V17 M23 29 V31 M15 23 H17 M29 23 H31 M17.5 17.5 L18.9 18.9 M28.5 17.5 L27.1 18.9 M17.5 28.5 L18.9 27.1 M28.5 28.5 L27.1 27.1"/>
  </g>
  <circle cx="23" cy="23" r="1.8" fill="#31353c"/>
</svg>
