<?xml version="1.0" encoding="UTF-8" standalone="no"?>
<svg xmlns="http://www.w3.org/2000/svg" version="1.1" width="160" height="16">
  <!-- NeXT square button, raised bevel; glyph = menu. States laid out in a row. -->

  <g id="menu" transform="translate(0,0)">
    <rect x="0" y="0" width="18" height="16" fill="#000000" fill-opacity="0"/>
    <rect x="0" y="0" width="18" height="16" fill="#1a1a1a"/>
    <rect x="1" y="1" width="16" height="14" fill="#a6adb8"/>
    <rect x="1" y="1" width="16" height="1"  fill="#ffffff"/>
    <rect x="1" y="1" width="1"  height="14" fill="#ffffff"/>
    <rect x="1" y="14" width="16" height="1" fill="#5c626b"/>
    <rect x="16" y="1" width="1" height="14" fill="#5c626b"/>
    <path d="M4 5 L14 5 M4 8 L14 8 M4 11 L14 11" stroke="#000000" stroke-width="2" stroke-linecap="round" fill="none"/>
  </g>

  <g id="active-center" transform="translate(22,0)">
    <rect x="0" y="0" width="18" height="16" fill="#000000" fill-opacity="0"/>
    <rect x="0" y="0" width="18" height="16" fill="#1a1a1a"/>
    <rect x="1" y="1" width="16" height="14" fill="#a6adb8"/>
    <rect x="1" y="1" width="16" height="1"  fill="#ffffff"/>
    <rect x="1" y="1" width="1"  height="14" fill="#ffffff"/>
    <rect x="1" y="14" width="16" height="1" fill="#5c626b"/>
    <rect x="16" y="1" width="1" height="14" fill="#5c626b"/>
    <path d="M4 5 L14 5 M4 8 L14 8 M4 11 L14 11" stroke="#000000" stroke-width="2" stroke-linecap="round" fill="none"/>
  </g>

  <g id="hover-center" transform="translate(44,0)">
    <rect x="0" y="0" width="18" height="16" fill="#000000" fill-opacity="0"/>
    <rect x="0" y="0" width="18" height="16" fill="#1a1a1a"/>
    <rect x="1" y="1" width="16" height="14" fill="#b6bdc8"/>
    <rect x="1" y="1" width="16" height="1"  fill="#ffffff"/>
    <rect x="1" y="1" width="1"  height="14" fill="#ffffff"/>
    <rect x="1" y="14" width="16" height="1" fill="#5c626b"/>
    <rect x="16" y="1" width="1" height="14" fill="#5c626b"/>
    <path d="M4 5 L14 5 M4 8 L14 8 M4 11 L14 11" stroke="#000000" stroke-width="2" stroke-linecap="round" fill="none"/>
  </g>

  <g id="pressed-center" transform="translate(66,0)">
    <rect x="0" y="0" width="18" height="16" fill="#000000" fill-opacity="0"/>
    <rect x="0" y="0" width="18" height="16" fill="#1a1a1a"/>
    <rect x="1" y="1" width="16" height="14" fill="#8e95a0"/>
    <rect x="1" y="1" width="16" height="1"  fill="#5c626b"/>
    <rect x="1" y="1" width="1"  height="14" fill="#5c626b"/>
    <rect x="1" y="14" width="16" height="1" fill="#ffffff"/>
    <rect x="16" y="1" width="1" height="14" fill="#ffffff"/>
    <path d="M5 6 L15 6 M5 9 L15 9 M5 12 L15 12" stroke="#000000" stroke-width="2" stroke-linecap="round" fill="none"/>
  </g>

  <g id="inactive-center" transform="translate(88,0)">
    <rect x="0" y="0" width="18" height="16" fill="#000000" fill-opacity="0"/>
    <rect x="0" y="0" width="18" height="16" fill="#2a2a2a"/>
    <rect x="1" y="1" width="16" height="14" fill="#a8a8a8"/>
    <rect x="1" y="1" width="16" height="1"  fill="#e6e6e6"/>
    <rect x="1" y="1" width="1"  height="14" fill="#e6e6e6"/>
    <rect x="1" y="14" width="16" height="1" fill="#8a8a8a"/>
    <rect x="16" y="1" width="1" height="14" fill="#8a8a8a"/>
    <path d="M4 5 L14 5 M4 8 L14 8 M4 11 L14 11" stroke="#555555" stroke-width="2" stroke-linecap="round" fill="none"/>
  </g>

  <g id="deactivated-center" transform="translate(110,0)">
    <rect x="0" y="0" width="18" height="16" fill="#000000" fill-opacity="0"/>
    <rect x="0" y="0" width="18" height="16" fill="#2a2a2a"/>
    <rect x="1" y="1" width="16" height="14" fill="#a8a8a8"/>
    <rect x="1" y="1" width="16" height="1"  fill="#e6e6e6"/>
    <rect x="1" y="1" width="1"  height="14" fill="#e6e6e6"/>
    <rect x="1" y="14" width="16" height="1" fill="#8a8a8a"/>
    <rect x="16" y="1" width="1" height="14" fill="#8a8a8a"/>
    <path d="M4 5 L14 5 M4 8 L14 8 M4 11 L14 11" stroke="#777777" stroke-width="2" stroke-linecap="round" fill="none"/>
  </g>

</svg>
