<?xml version="1.0" encoding="UTF-8" standalone="no"?>
<svg xmlns="http://www.w3.org/2000/svg" version="1.1" width="160" height="16">
  <!-- NeXT square button, raised bevel; glyph = alldesktops. States laid out in a row. -->

  <g id="alldesktops" transform="translate(0,0)">
    <rect x="0" y="0" width="18" height="16" fill="#000000" fill-opacity="0"/>
    <rect x="0" y="0" width="18" height="16" fill="#cfd3d9"/>
    <rect x="1" y="1" width="16" height="14" fill="#3b4048"/>
    <rect x="1" y="1" width="16" height="1"  fill="#565d67"/>
    <rect x="1" y="1" width="1"  height="14" fill="#565d67"/>
    <rect x="1" y="14" width="16" height="1" fill="#14161a"/>
    <rect x="16" y="1" width="1" height="14" fill="#14161a"/>
    <rect x="5" y="5" width="3" height="3" fill="#dfe3e8"/>
    <rect x="9" y="5" width="3" height="3" fill="#dfe3e8"/>
    <rect x="5" y="9" width="3" height="3" fill="#dfe3e8"/>
    <rect x="9" y="9" width="3" height="3" fill="#dfe3e8"/>
  </g>

  <g id="active-center" transform="translate(22,0)">
    <rect x="0" y="0" width="18" height="16" fill="#000000" fill-opacity="0"/>
    <rect x="0" y="0" width="18" height="16" fill="#cfd3d9"/>
    <rect x="1" y="1" width="16" height="14" fill="#3b4048"/>
    <rect x="1" y="1" width="16" height="1"  fill="#565d67"/>
    <rect x="1" y="1" width="1"  height="14" fill="#565d67"/>
    <rect x="1" y="14" width="16" height="1" fill="#14161a"/>
    <rect x="16" y="1" width="1" height="14" fill="#14161a"/>
    <rect x="5" y="5" width="3" height="3" fill="#dfe3e8"/>
    <rect x="9" y="5" width="3" height="3" fill="#dfe3e8"/>
    <rect x="5" y="9" width="3" height="3" fill="#dfe3e8"/>
    <rect x="9" y="9" width="3" height="3" fill="#dfe3e8"/>
  </g>

  <g id="hover-center" transform="translate(44,0)">
    <rect x="0" y="0" width="18" height="16" fill="#000000" fill-opacity="0"/>
    <rect x="0" y="0" width="18" height="16" fill="#cfd3d9"/>
    <rect x="1" y="1" width="16" height="14" fill="#454b54"/>
    <rect x="1" y="1" width="16" height="1"  fill="#565d67"/>
    <rect x="1" y="1" width="1"  height="14" fill="#565d67"/>
    <rect x="1" y="14" width="16" height="1" fill="#14161a"/>
    <rect x="16" y="1" width="1" height="14" fill="#14161a"/>
    <rect x="5" y="5" width="3" height="3" fill="#dfe3e8"/>
    <rect x="9" y="5" width="3" height="3" fill="#dfe3e8"/>
    <rect x="5" y="9" width="3" height="3" fill="#dfe3e8"/>
    <rect x="9" y="9" width="3" height="3" fill="#dfe3e8"/>
  </g>

  <g id="pressed-center" transform="translate(66,0)">
    <rect x="0" y="0" width="18" height="16" fill="#000000" fill-opacity="0"/>
    <rect x="0" y="0" width="18" height="16" fill="#cfd3d9"/>
    <rect x="1" y="1" width="16" height="14" fill="#2c3138"/>
    <rect x="1" y="1" width="16" height="1"  fill="#14161a"/>
    <rect x="1" y="1" width="1"  height="14" fill="#14161a"/>
    <rect x="1" y="14" width="16" height="1" fill="#565d67"/>
    <rect x="16" y="1" width="1" height="14" fill="#565d67"/>
    <rect x="6" y="6" width="3" height="3" fill="#dfe3e8"/>
    <rect x="10" y="6" width="3" height="3" fill="#dfe3e8"/>
    <rect x="6" y="10" width="3" height="3" fill="#dfe3e8"/>
    <rect x="10" y="10" width="3" height="3" fill="#dfe3e8"/>
  </g>

  <g id="inactive-center" transform="translate(88,0)">
    <rect x="0" y="0" width="18" height="16" fill="#000000" fill-opacity="0"/>
    <rect x="0" y="0" width="18" height="16" fill="#5a5f66"/>
    <rect x="1" y="1" width="16" height="14" fill="#3d4045"/>
    <rect x="1" y="1" width="16" height="1"  fill="#4f545c"/>
    <rect x="1" y="1" width="1"  height="14" fill="#4f545c"/>
    <rect x="1" y="14" width="16" height="1" fill="#26282c"/>
    <rect x="16" y="1" width="1" height="14" fill="#26282c"/>
    <rect x="5" y="5" width="3" height="3" fill="#8b9099"/>
    <rect x="9" y="5" width="3" height="3" fill="#8b9099"/>
    <rect x="5" y="9" width="3" height="3" fill="#8b9099"/>
    <rect x="9" y="9" width="3" height="3" fill="#8b9099"/>
  </g>

  <g id="deactivated-center" transform="translate(110,0)">
    <rect x="0" y="0" width="18" height="16" fill="#000000" fill-opacity="0"/>
    <rect x="0" y="0" width="18" height="16" fill="#5a5f66"/>
    <rect x="1" y="1" width="16" height="14" fill="#3d4045"/>
    <rect x="1" y="1" width="16" height="1"  fill="#4f545c"/>
    <rect x="1" y="1" width="1"  height="14" fill="#4f545c"/>
    <rect x="1" y="14" width="16" height="1" fill="#26282c"/>
    <rect x="16" y="1" width="1" height="14" fill="#26282c"/>
    <rect x="5" y="5" width="3" height="3" fill="#6b7178"/>
    <rect x="9" y="5" width="3" height="3" fill="#6b7178"/>
    <rect x="5" y="9" width="3" height="3" fill="#6b7178"/>
    <rect x="9" y="9" width="3" height="3" fill="#6b7178"/>
  </g>

</svg>
