<?xml version="1.0" encoding="UTF-8" standalone="no"?>
<svg xmlns="http://www.w3.org/2000/svg" version="1.1" width="160" height="16">
  <!-- NeXT square button, raised bevel; glyph = menu. States laid out in a row. -->

  <g id="menu" transform="translate(0,0)">
    <rect x="0" y="0" width="18" height="16" fill="#000000" fill-opacity="0"/>
    <rect x="0" y="0" width="18" height="16" fill="#cfd3d9"/>
    <rect x="1" y="1" width="16" height="14" fill="#3b4048"/>
    <rect x="1" y="1" width="16" height="1"  fill="#565d67"/>
    <rect x="1" y="1" width="1"  height="14" fill="#565d67"/>
    <rect x="1" y="14" width="16" height="1" fill="#14161a"/>
    <rect x="16" y="1" width="1" height="14" fill="#14161a"/>
    <path d="M4 5 L14 5 M4 8 L14 8 M4 11 L14 11" stroke="#dfe3e8" stroke-width="2" stroke-linecap="round" fill="none"/>
  </g>

  <g id="active-center" transform="translate(22,0)">
    <rect x="0" y="0" width="18" height="16" fill="#000000" fill-opacity="0"/>
    <rect x="0" y="0" width="18" height="16" fill="#cfd3d9"/>
    <rect x="1" y="1" width="16" height="14" fill="#3b4048"/>
    <rect x="1" y="1" width="16" height="1"  fill="#565d67"/>
    <rect x="1" y="1" width="1"  height="14" fill="#565d67"/>
    <rect x="1" y="14" width="16" height="1" fill="#14161a"/>
    <rect x="16" y="1" width="1" height="14" fill="#14161a"/>
    <path d="M4 5 L14 5 M4 8 L14 8 M4 11 L14 11" stroke="#dfe3e8" stroke-width="2" stroke-linecap="round" fill="none"/>
  </g>

  <g id="hover-center" transform="translate(44,0)">
    <rect x="0" y="0" width="18" height="16" fill="#000000" fill-opacity="0"/>
    <rect x="0" y="0" width="18" height="16" fill="#cfd3d9"/>
    <rect x="1" y="1" width="16" height="14" fill="#454b54"/>
    <rect x="1" y="1" width="16" height="1"  fill="#565d67"/>
    <rect x="1" y="1" width="1"  height="14" fill="#565d67"/>
    <rect x="1" y="14" width="16" height="1" fill="#14161a"/>
    <rect x="16" y="1" width="1" height="14" fill="#14161a"/>
    <path d="M4 5 L14 5 M4 8 L14 8 M4 11 L14 11" stroke="#dfe3e8" stroke-width="2" stroke-linecap="round" fill="none"/>
  </g>

  <g id="pressed-center" transform="translate(66,0)">
    <rect x="0" y="0" width="18" height="16" fill="#000000" fill-opacity="0"/>
    <rect x="0" y="0" width="18" height="16" fill="#cfd3d9"/>
    <rect x="1" y="1" width="16" height="14" fill="#2c3138"/>
    <rect x="1" y="1" width="16" height="1"  fill="#14161a"/>
    <rect x="1" y="1" width="1"  height="14" fill="#14161a"/>
    <rect x="1" y="14" width="16" height="1" fill="#565d67"/>
    <rect x="16" y="1" width="1" height="14" fill="#565d67"/>
    <path d="M5 6 L15 6 M5 9 L15 9 M5 12 L15 12" stroke="#dfe3e8" stroke-width="2" stroke-linecap="round" fill="none"/>
  </g>

  <g id="inactive-center" transform="translate(88,0)">
    <rect x="0" y="0" width="18" height="16" fill="#000000" fill-opacity="0"/>
    <rect x="0" y="0" width="18" height="16" fill="#5a5f66"/>
    <rect x="1" y="1" width="16" height="14" fill="#3d4045"/>
    <rect x="1" y="1" width="16" height="1"  fill="#4f545c"/>
    <rect x="1" y="1" width="1"  height="14" fill="#4f545c"/>
    <rect x="1" y="14" width="16" height="1" fill="#26282c"/>
    <rect x="16" y="1" width="1" height="14" fill="#26282c"/>
    <path d="M4 5 L14 5 M4 8 L14 8 M4 11 L14 11" stroke="#8b9099" stroke-width="2" stroke-linecap="round" fill="none"/>
  </g>

  <g id="deactivated-center" transform="translate(110,0)">
    <rect x="0" y="0" width="18" height="16" fill="#000000" fill-opacity="0"/>
    <rect x="0" y="0" width="18" height="16" fill="#5a5f66"/>
    <rect x="1" y="1" width="16" height="14" fill="#3d4045"/>
    <rect x="1" y="1" width="16" height="1"  fill="#4f545c"/>
    <rect x="1" y="1" width="1"  height="14" fill="#4f545c"/>
    <rect x="1" y="14" width="16" height="1" fill="#26282c"/>
    <rect x="16" y="1" width="1" height="14" fill="#26282c"/>
    <path d="M4 5 L14 5 M4 8 L14 8 M4 11 L14 11" stroke="#6b7178" stroke-width="2" stroke-linecap="round" fill="none"/>
  </g>

</svg>
