<?xml version="1.0" encoding="UTF-8" standalone="no"?>
<svg xmlns="http://www.w3.org/2000/svg" width="48" height="48" viewBox="3.5 3.5 41 41">
  <!-- TenshiSTEP graphics: palette + brush -->
  <path d="M21 8 C32 8 41 15 41 24 C41 30 36 31 33 31 C30 31 29 34 31 37 C32 39 30 41 25 41 C14 41 6 33 6 23 C6 14 12 8 21 8 Z"
        fill="#9cafc4" stroke="#cdd1d7" stroke-width="1.6" stroke-linejoin="round"/>
  <circle cx="15" cy="17" r="2.4" fill="#3a3a3a"/>
  <circle cx="13" cy="26" r="2.4" fill="#5d6975"/>
  <circle cx="20" cy="32" r="2.4" fill="#3a3a3a"/>
  <circle cx="27" cy="15" r="2.4" fill="#5d6975"/>
  <path d="M9 10 C13 10 15 14 13.5 20" fill="none" stroke="#ffffff" stroke-width="1.1"/>
</svg>
