<svg xmlns="http://www.w3.org/2000/svg" width="48" height="48" viewBox="3.5 3.5 41 41">
  <path d="M22 6 C24 12 30 14 30 22 C30 30 25 34 20 34 C14 34 10 30 10 23 C10 18 13 15 15 17 C15 12 18 8 22 6 Z" fill="#d08a2e" stroke="#cdd1d7" stroke-width="1.5" stroke-linejoin="round"/>
  <path d="M20 18 C22 21 24 23 24 26 C24 30 21 32 19 32 C16 32 14 30 14 26 C14 23 16 22 17 24 C17 21 18 19 20 18 Z" fill="#c0492f" stroke="#cdd1d7" stroke-width="1.1" stroke-linejoin="round"/>
  <circle cx="32" cy="32" r="8" fill="none" stroke="#cdd1d7" stroke-width="1.5"/>
  <path d="M32 22 V27 M32 37 V42 M22 32 H27 M37 32 H42" fill="none" stroke="#cdd1d7" stroke-width="1.5" stroke-linecap="round"/>
  <circle cx="32" cy="32" r="1.6" fill="#cdd1d7"/>
</svg>
