<svg xmlns="http://www.w3.org/2000/svg" width="48" height="48" viewBox="3.5 3.5 41 41"><rect x="14" y="14" width="20" height="20" rx="2" fill="#3a9a8a" stroke="#cdd1d7" stroke-width="1.5"/><rect x="19" y="19" width="10" height="10" rx="1" fill="#2a7266"/><rect x="18" y="10" width="2" height="4" fill="#3a9a8a" stroke="#cdd1d7" stroke-width="0.7"/><rect x="23" y="10" width="2" height="4" fill="#3a9a8a" stroke="#cdd1d7" stroke-width="0.7"/><rect x="28" y="10" width="2" height="4" fill="#3a9a8a" stroke="#cdd1d7" stroke-width="0.7"/><rect x="18" y="34" width="2" height="4" fill="#3a9a8a" stroke="#cdd1d7" stroke-width="0.7"/><rect x="23" y="34" width="2" height="4" fill="#3a9a8a" stroke="#cdd1d7" stroke-width="0.7"/><rect x="28" y="34" width="2" height="4" fill="#3a9a8a" stroke="#cdd1d7" stroke-width="0.7"/><rect x="10" y="18" width="4" height="2" fill="#3a9a8a" stroke="#cdd1d7" stroke-width="0.7"/><rect x="10" y="23" width="4" height="2" fill="#3a9a8a" stroke="#cdd1d7" stroke-width="0.7"/><rect x="10" y="28" width="4" height="2" fill="#3a9a8a" stroke="#cdd1d7" stroke-width="0.7"/><rect x="34" y="18" width="4" height="2" fill="#3a9a8a" stroke="#cdd1d7" stroke-width="0.7"/><rect x="34" y="23" width="4" height="2" fill="#3a9a8a" stroke="#cdd1d7" stroke-width="0.7"/><rect x="34" y="28" width="4" height="2" fill="#3a9a8a" stroke="#cdd1d7" stroke-width="0.7"/><path d="M24 30 V19 M20 23 L24 18 L28 23" fill="none" stroke="#ffffff" stroke-width="2.4" stroke-linecap="round" stroke-linejoin="round"/></svg>