<svg xmlns="http://www.w3.org/2000/svg" width="48" height="48" viewBox="2 2 44 44">
  <path d="M17 5 L20 5 L21 9 L24 10.5 L28 8.5 L30 11 L28 15 L28 18 L32 20 L32 23 L28 25 L28 28 L30 30.5 L28 33 L24 31 L21 32.5 L20 36 L17 36 L16 32 L13 30.5 L9 32.5 L7 30 L9 26 L9 23 L5 21 L5 18 L9 16 L9 13 L7 10.5 L9 8 L13 10 L16 8.5 Z" fill="#8494a6" stroke="#cdd1d7" stroke-width="1.4" stroke-linejoin="round"/>
  <circle cx="18.5" cy="20.5" r="5.5" fill="#5d6975" stroke="#cdd1d7" stroke-width="1.3"/>
  <circle cx="18.5" cy="20.5" r="2" fill="#31353c"/>
  <rect x="14" y="39" width="30" height="4" rx="2" fill="#a5b7c9" stroke="#cdd1d7" stroke-width="1.3"/>
  <circle cx="33" cy="41" r="3.4" fill="#4a3fa0" stroke="#cdd1d7" stroke-width="1.3"/>
</svg>
