<svg xmlns="http://www.w3.org/2000/svg" width="48" height="48" viewBox="3.5 3.5 41 41">
  <path d="M10 32 C10 22 17 17 25 17 C33 17 39 22 39 30 C39 37 33 40 26 40 C17 40 10 38 10 32 Z" fill="#8a6a4a" stroke="#cdd1d7" stroke-width="1.5" stroke-linejoin="round"/>
  <path d="M12 24 L8 18 M16 20 L14 13 M21 18 L21 11 M26 18 L28 12 M31 19 L35 14" fill="none" stroke="#cdd1d7" stroke-width="1.6" stroke-linecap="round"/>
  <circle cx="33" cy="27" r="1.6" fill="#cdd1d7"/>
  <path d="M37 28 L41 28" fill="none" stroke="#cdd1d7" stroke-width="1.3" stroke-linecap="round"/>
  <circle cx="16" cy="35" r="5" fill="#3e8e5a" stroke="#cdd1d7" stroke-width="1.4"/>
  <rect x="14.5" y="28.5" width="3" height="3" rx="1" fill="#5d6975" stroke="#cdd1d7" stroke-width="1"/>
  <path d="M17 29 Q20 26 21 29" fill="none" stroke="#c0492f" stroke-width="1.3" stroke-linecap="round"/>
</svg>
