<svg xmlns="http://www.w3.org/2000/svg" width="48" height="48" viewBox="3.5 3.5 41 41">
  <path d="M24 8 Q34 8 34 20 V26 Q34 28 32 28 L30 25 L27 28 L24 25 L21 28 L18 25 L16 28 Q14 28 14 26 V20 Q14 8 24 8 Z" fill="#6a4fa0" stroke="#cdd1d7" stroke-width="1.5" stroke-linejoin="round"/>
  <circle cx="20.5" cy="18" r="1.8" fill="#f0ece0"/>
  <circle cx="27.5" cy="18" r="1.8" fill="#f0ece0"/>
  <circle cx="20.5" cy="18" r="0.9" fill="#cdd1d7"/>
  <circle cx="27.5" cy="18" r="0.9" fill="#cdd1d7"/>
  <path d="M18 30 L28 30 L30 42 L16 42 Z" fill="#a5762f" stroke="#cdd1d7" stroke-width="1.3" stroke-linejoin="round"/>
  <path d="M23 30 V42 M18 36 H30" fill="none" stroke="#cdd1d7" stroke-width="1"/>
</svg>
