<svg xmlns="http://www.w3.org/2000/svg" width="48" height="48" viewBox="3.5 3.5 41 41">
  <rect x="9" y="26" width="7" height="7" fill="#7a5fb0" stroke="#cdd1d7" stroke-width="1.2" stroke-linejoin="round"/>
  <rect x="17" y="26" width="7" height="7" fill="#7a5fb0" stroke="#cdd1d7" stroke-width="1.2" stroke-linejoin="round"/>
  <rect x="25" y="26" width="7" height="7" fill="#7a5fb0" stroke="#cdd1d7" stroke-width="1.2" stroke-linejoin="round"/>
  <rect x="17" y="18" width="7" height="7" fill="#7a5fb0" stroke="#cdd1d7" stroke-width="1.2" stroke-linejoin="round"/>
  <path d="M33 16 C29 15 26 17 25 21 C24 26 27 31 32 33 C35 34 39 33 41 30 C39 31 36 31 34 29 C37 29 40 27 41 24 C38 26 35 26 33 24 C36 23 38 20 38 17 C37 19 35 20 33 20 C34 18 34 17 33 16 Z" fill="#5a4a90" stroke="#cdd1d7" stroke-width="1.3" stroke-linejoin="round"/>
  <circle cx="31" cy="20.5" r="1" fill="#cdd1d7"/>
</svg>
