<svg xmlns="http://www.w3.org/2000/svg" width="48" height="48" viewBox="3.5 3.5 41 41"><path d="M6 14 H18 L21 11 H41 V38 H6 Z" fill="#d9a441" stroke="#cdd1d7" stroke-width="1.5" stroke-linejoin="round"/><rect x="6" y="14" width="35" height="1" fill="#f0d89a"/><rect x="28" y="17" width="4" height="6.5" rx="1" fill="#6a7a8a" stroke="#cdd1d7" stroke-width="0.9" transform="rotate(0 30 27)"/><rect x="28" y="17" width="4" height="6.5" rx="1" fill="#6a7a8a" stroke="#cdd1d7" stroke-width="0.9" transform="rotate(45 30 27)"/><rect x="28" y="17" width="4" height="6.5" rx="1" fill="#6a7a8a" stroke="#cdd1d7" stroke-width="0.9" transform="rotate(90 30 27)"/><rect x="28" y="17" width="4" height="6.5" rx="1" fill="#6a7a8a" stroke="#cdd1d7" stroke-width="0.9" transform="rotate(135 30 27)"/><rect x="28" y="17" width="4" height="6.5" rx="1" fill="#6a7a8a" stroke="#cdd1d7" stroke-width="0.9" transform="rotate(180 30 27)"/><rect x="28" y="17" width="4" height="6.5" rx="1" fill="#6a7a8a" stroke="#cdd1d7" stroke-width="0.9" transform="rotate(225 30 27)"/><rect x="28" y="17" width="4" height="6.5" rx="1" fill="#6a7a8a" stroke="#cdd1d7" stroke-width="0.9" transform="rotate(270 30 27)"/><rect x="28" y="17" width="4" height="6.5" rx="1" fill="#6a7a8a" stroke="#cdd1d7" stroke-width="0.9" transform="rotate(315 30 27)"/><circle cx="30" cy="27" r="5.5" fill="#6a7a8a" stroke="#cdd1d7" stroke-width="1.3"/><circle cx="30" cy="27" r="2.3" fill="#c0c8d0" stroke="#cdd1d7" stroke-width="1"/></svg>