<svg xmlns="http://www.w3.org/2000/svg" width="48" height="48" viewBox="2 2 44 44">
  <path d="M18 5 h4 l1 4 3 1.5 4-2 3 3 -2 4 1.5 3 4 1 v4 l-4 1 -1.5 3 2 4 -3 3 -4-2 -3 1.5 -1 4 h-4 l-1-4 -3-1.5 -4 2 -3-3 2-4 -1.5-3 -4-1 v-4 l4-1 1.5-3 -2-4 3-3 4 2 3-1.5 Z" fill="#5d6975" stroke="#cdd1d7" stroke-width="1.4" stroke-linejoin="round"/>
  <circle cx="20" cy="20" r="5.5" fill="#eef2f6" stroke="#cdd1d7" stroke-width="1.3"/>
  <path d="M32 26 h3 l0.8 3 2.4 1.2 3-1.5 2 2 -1.5 3 1.2 2.4 3 0.8 v3 l-3 0.8 -1.2 2.4 1.5 3 -2 2 -3-1.5 -2.4 1.2 -0.8 3 h-3 l-0.8-3 -2.4-1.2 -3 1.5 -2-2 1.5-3 -1.2-2.4 -3-0.8 v-3 l3-0.8 1.2-2.4 -1.5-3 2-2 3 1.5 2.4-1.2 Z" fill="#8494a6" stroke="#cdd1d7" stroke-width="1.2" stroke-linejoin="round" transform="translate(-3 -6) scale(0.62)"/>
  <circle cx="33" cy="33" r="4" fill="#eef2f6" stroke="#cdd1d7" stroke-width="1.2"/>
</svg>
