<?xml version="1.0" encoding="UTF-8" standalone="no"?>
<svg xmlns="http://www.w3.org/2000/svg" width="48" height="48" viewBox="3.5 3.5 41 41">
  <!-- TenshiSTEP mail-attachment: envelope + paperclip -->
  <rect x="6" y="13" width="30" height="22" rx="1.5" fill="#9cafc4" stroke="#cdd1d7" stroke-width="1.6" stroke-linejoin="round"/>
  <path d="M7.2 14.2 H34.8" fill="none" stroke="#ffffff" stroke-width="1.1"/>
  <path d="M6.5 13.5 L21 25 L35.5 13.5" fill="none" stroke="#cdd1d7" stroke-width="1.6" stroke-linejoin="round"/>
  <path d="M37 12 V30 A6 6 0 0 1 25 30 V15 A3.4 3.4 0 0 1 31.8 15 V28 A1.5 1.5 0 0 1 28.8 28 V18" fill="none" stroke="#cdd1d7" stroke-width="3.2" stroke-linecap="round" stroke-linejoin="round"/>
  <path d="M37 12 V30 A6 6 0 0 1 25 30 V15 A3.4 3.4 0 0 1 31.8 15 V28 A1.5 1.5 0 0 1 28.8 28 V18" fill="none" stroke="#b0b0b0" stroke-width="1.8" stroke-linecap="round" stroke-linejoin="round"/>
</svg>
