<?xml version="1.0" encoding="UTF-8" standalone="no"?>
<svg xmlns="http://www.w3.org/2000/svg" width="68" height="52" viewBox="0 0 68 52">
  <defs><linearGradient id="sheen82" x1="0" y1="0" x2="0" y2="1"><stop offset="0.0" stop-color="#acb0b2"/><stop offset="0.16" stop-color="#bfc3c5"/><stop offset="0.42" stop-color="#a3a6a9"/><stop offset="0.72" stop-color="#96989a"/><stop offset="1.0" stop-color="#878a8b"/></linearGradient><linearGradient id="sheen83" x1="0" y1="0" x2="0" y2="1"><stop offset="0.0" stop-color="#acb0b2"/><stop offset="0.16" stop-color="#bfc3c5"/><stop offset="0.42" stop-color="#a3a6a9"/><stop offset="0.72" stop-color="#96989a"/><stop offset="1.0" stop-color="#878a8b"/></linearGradient><linearGradient id="sheen84" x1="0" y1="0" x2="0" y2="1"><stop offset="0.0" stop-color="#acb0b2"/><stop offset="0.16" stop-color="#bfc3c5"/><stop offset="0.42" stop-color="#a3a6a9"/><stop offset="0.72" stop-color="#96989a"/><stop offset="1.0" stop-color="#878a8b"/></linearGradient><linearGradient id="sheen85" x1="0" y1="0" x2="0" y2="1"><stop offset="0.0" stop-color="#acb0b2"/><stop offset="0.16" stop-color="#bfc3c5"/><stop offset="0.42" stop-color="#a3a6a9"/><stop offset="0.72" stop-color="#96989a"/><stop offset="1.0" stop-color="#878a8b"/></linearGradient><linearGradient id="sheen86" x1="0" y1="0" x2="0" y2="1"><stop offset="0.0" stop-color="#acb0b2"/><stop offset="0.16" stop-color="#bfc3c5"/><stop offset="0.42" stop-color="#a3a6a9"/><stop offset="0.72" stop-color="#96989a"/><stop offset="1.0" stop-color="#878a8b"/></linearGradient><clipPath id="gc13488_10"><rect x="12" y="12" width="40" height="24"/></clipPath><linearGradient id="sheen87" x1="0" y1="0" x2="0" y2="1"><stop offset="0.0" stop-color="#acb0b2"/><stop offset="0.16" stop-color="#bfc3c5"/><stop offset="0.42" stop-color="#a3a6a9"/><stop offset="0.72" stop-color="#96989a"/><stop offset="1.0" stop-color="#878a8b"/></linearGradient><linearGradient id="sheen88" x1="0" y1="0" x2="0" y2="1"><stop offset="0.0" stop-color="#acb0b2"/><stop offset="0.16" stop-color="#bfc3c5"/><stop offset="0.42" stop-color="#a3a6a9"/><stop offset="0.72" stop-color="#96989a"/><stop offset="1.0" stop-color="#878a8b"/></linearGradient><linearGradient id="sheen89" x1="0" y1="0" x2="0" y2="1"><stop offset="0.0" stop-color="#acb0b2"/><stop offset="0.16" stop-color="#bfc3c5"/><stop offset="0.42" stop-color="#a3a6a9"/><stop offset="0.72" stop-color="#96989a"/><stop offset="1.0" stop-color="#878a8b"/></linearGradient><linearGradient id="sheen90" x1="0" y1="0" x2="0" y2="1"><stop offset="0.0" stop-color="#acb0b2"/><stop offset="0.16" stop-color="#bfc3c5"/><stop offset="0.42" stop-color="#a3a6a9"/><stop offset="0.72" stop-color="#96989a"/><stop offset="1.0" stop-color="#878a8b"/></linearGradient></defs>
  <g id="topleft"><rect x="4" y="4" width="7" height="7" fill="url(#sheen82)"/><rect x="4" y="4" width="7" height="1" fill="#1a1a1a"/><rect x="4" y="4" width="1" height="7" fill="#1a1a1a"/><rect x="4" y="5" width="7" height="1" fill="#ffffff"/><rect x="5" y="4" width="1" height="7" fill="#ffffff"/></g>
  <g id="top"><rect x="11" y="4" width="42" height="7" fill="url(#sheen83)"/><rect x="11" y="4" width="42" height="1" fill="#1a1a1a"/><rect x="11" y="5" width="42" height="1" fill="#ffffff"/></g>
  <g id="topright"><rect x="53" y="4" width="7" height="7" fill="url(#sheen84)"/><rect x="53" y="4" width="7" height="1" fill="#1a1a1a"/><rect x="59" y="4" width="1" height="7" fill="#1a1a1a"/><rect x="53" y="5" width="7" height="1" fill="#ffffff"/><rect x="58" y="4" width="1" height="7" fill="#5c5e60"/></g>
  <g id="left"><rect x="4" y="11" width="7" height="26" fill="url(#sheen85)"/><rect x="4" y="11" width="1" height="26" fill="#1a1a1a"/><rect x="5" y="11" width="1" height="26" fill="#ffffff"/></g>
  <g id="center"><rect x="11" y="11" width="42" height="26" fill="url(#sheen86)"/><g clip-path="url(#gc13488_10)"><line x1="14" y1="14" x2="49" y2="18" stroke="#000000" stroke-opacity="0.051"/><line x1="17" y1="16" x2="52" y2="20" stroke="#ffffff" stroke-opacity="0.094"/><line x1="19" y1="17" x2="47" y2="20" stroke="#ffffff" stroke-opacity="0.110"/><line x1="14" y1="25" x2="49" y2="29" stroke="#ffffff" stroke-opacity="0.106"/><line x1="15" y1="30" x2="48" y2="34" stroke="#ffffff" stroke-opacity="0.114"/><line x1="18" y1="32" x2="47" y2="35" stroke="#ffffff" stroke-opacity="0.102"/><line x1="13" y1="34" x2="44" y2="38" stroke="#000000" stroke-opacity="0.071"/></g></g>
  <g id="right"><rect x="53" y="11" width="7" height="26" fill="url(#sheen87)"/><rect x="59" y="11" width="1" height="26" fill="#1a1a1a"/><rect x="58" y="11" width="1" height="26" fill="#5c5e60"/></g>
  <g id="bottomleft"><rect x="4" y="37" width="7" height="7" fill="url(#sheen88)"/><rect x="4" y="43" width="7" height="1" fill="#1a1a1a"/><rect x="4" y="37" width="1" height="7" fill="#1a1a1a"/><rect x="5" y="37" width="1" height="7" fill="#ffffff"/><rect x="4" y="42" width="7" height="1" fill="#5c5e60"/></g>
  <g id="bottom"><rect x="11" y="37" width="42" height="7" fill="url(#sheen89)"/><rect x="11" y="43" width="42" height="1" fill="#1a1a1a"/><rect x="11" y="42" width="42" height="1" fill="#5c5e60"/></g>
  <g id="bottomright"><rect x="53" y="37" width="7" height="7" fill="url(#sheen90)"/><rect x="53" y="43" width="7" height="1" fill="#1a1a1a"/><rect x="59" y="37" width="1" height="7" fill="#1a1a1a"/><rect x="53" y="42" width="7" height="1" fill="#5c5e60"/><rect x="58" y="37" width="1" height="7" fill="#5c5e60"/></g>
</svg>
