<?xml version="1.0" encoding="UTF-8" standalone="no"?>
<svg xmlns="http://www.w3.org/2000/svg" width="68" height="52" viewBox="0 0 68 52">
  <g id="topleft"><rect x="4" y="4" width="7" height="7" fill="#dadcdf"/><rect x="4" y="4" width="7" height="1" fill="#1a1a1a"/><rect x="4" y="4" width="1" height="7" fill="#1a1a1a"/><rect x="4" y="5" width="7" height="1" fill="#ffffff"/><rect x="5" y="4" width="1" height="7" fill="#ffffff"/></g>
  <g id="top"><rect x="11" y="4" width="42" height="7" fill="#dadcdf"/><rect x="11" y="4" width="42" height="1" fill="#1a1a1a"/><rect x="11" y="5" width="42" height="1" fill="#ffffff"/></g>
  <g id="topright"><rect x="53" y="4" width="7" height="7" fill="#dadcdf"/><rect x="53" y="4" width="7" height="1" fill="#1a1a1a"/><rect x="59" y="4" width="1" height="7" fill="#1a1a1a"/><rect x="53" y="5" width="7" height="1" fill="#ffffff"/><rect x="58" y="4" width="1" height="7" fill="#7c8188"/></g>
  <g id="left"><rect x="4" y="11" width="7" height="26" fill="#dadcdf"/><rect x="4" y="11" width="1" height="26" fill="#1a1a1a"/><rect x="5" y="11" width="1" height="26" fill="#ffffff"/></g>
  <g id="center"><rect x="11" y="11" width="42" height="26" fill="#dadcdf"/><rect x="13" y="13" width="38" height="1" fill="#ffffff" fill-opacity="0.10"/><rect x="13" y="14" width="38" height="1" fill="#000000" fill-opacity="0.055"/><rect x="13" y="16" width="38" height="1" fill="#ffffff" fill-opacity="0.10"/><rect x="13" y="17" width="38" height="1" fill="#000000" fill-opacity="0.055"/><rect x="13" y="19" width="38" height="1" fill="#ffffff" fill-opacity="0.10"/><rect x="13" y="20" width="38" height="1" fill="#000000" fill-opacity="0.055"/><rect x="13" y="22" width="38" height="1" fill="#ffffff" fill-opacity="0.10"/><rect x="13" y="23" width="38" height="1" fill="#000000" fill-opacity="0.055"/><rect x="13" y="25" width="38" height="1" fill="#ffffff" fill-opacity="0.10"/><rect x="13" y="26" width="38" height="1" fill="#000000" fill-opacity="0.055"/><rect x="13" y="28" width="38" height="1" fill="#ffffff" fill-opacity="0.10"/><rect x="13" y="29" width="38" height="1" fill="#000000" fill-opacity="0.055"/><rect x="13" y="31" width="38" height="1" fill="#ffffff" fill-opacity="0.10"/><rect x="13" y="32" width="38" height="1" fill="#000000" fill-opacity="0.055"/><rect x="13" y="34" width="38" height="1" fill="#ffffff" fill-opacity="0.10"/></g>
  <g id="right"><rect x="53" y="11" width="7" height="26" fill="#dadcdf"/><rect x="59" y="11" width="1" height="26" fill="#1a1a1a"/><rect x="58" y="11" width="1" height="26" fill="#7c8188"/></g>
  <g id="bottomleft"><rect x="4" y="37" width="7" height="7" fill="#dadcdf"/><rect x="4" y="43" width="7" height="1" fill="#1a1a1a"/><rect x="4" y="37" width="1" height="7" fill="#1a1a1a"/><rect x="5" y="37" width="1" height="7" fill="#ffffff"/><rect x="4" y="42" width="7" height="1" fill="#7c8188"/></g>
  <g id="bottom"><rect x="11" y="37" width="42" height="7" fill="#dadcdf"/><rect x="11" y="43" width="42" height="1" fill="#1a1a1a"/><rect x="11" y="42" width="42" height="1" fill="#7c8188"/></g>
  <g id="bottomright"><rect x="53" y="37" width="7" height="7" fill="#dadcdf"/><rect x="53" y="43" width="7" height="1" fill="#1a1a1a"/><rect x="59" y="37" width="1" height="7" fill="#1a1a1a"/><rect x="53" y="42" width="7" height="1" fill="#7c8188"/><rect x="58" y="37" width="1" height="7" fill="#7c8188"/></g>
</svg>
