<?xml version="1.0" encoding="UTF-8" standalone="no"?>
<svg xmlns="http://www.w3.org/2000/svg" width="84" height="132" viewBox="0 0 84 132">
  <defs><linearGradient id="sheen37" x1="0" y1="0" x2="0" y2="1"><stop offset="0.0" stop-color="#acb0b2"/><stop offset="0.16" stop-color="#bfc3c5"/><stop offset="0.42" stop-color="#a3a6a9"/><stop offset="0.72" stop-color="#96989a"/><stop offset="1.0" stop-color="#878a8b"/></linearGradient><linearGradient id="sheen38" x1="0" y1="0" x2="0" y2="1"><stop offset="0.0" stop-color="#acb0b2"/><stop offset="0.16" stop-color="#bfc3c5"/><stop offset="0.42" stop-color="#a3a6a9"/><stop offset="0.72" stop-color="#96989a"/><stop offset="1.0" stop-color="#878a8b"/></linearGradient><linearGradient id="sheen39" x1="0" y1="0" x2="0" y2="1"><stop offset="0.0" stop-color="#acb0b2"/><stop offset="0.16" stop-color="#bfc3c5"/><stop offset="0.42" stop-color="#a3a6a9"/><stop offset="0.72" stop-color="#96989a"/><stop offset="1.0" stop-color="#878a8b"/></linearGradient><linearGradient id="sheen40" x1="0" y1="0" x2="0" y2="1"><stop offset="0.0" stop-color="#acb0b2"/><stop offset="0.16" stop-color="#bfc3c5"/><stop offset="0.42" stop-color="#a3a6a9"/><stop offset="0.72" stop-color="#96989a"/><stop offset="1.0" stop-color="#878a8b"/></linearGradient><clipPath id="gc12064_5"><rect x="11" y="11" width="38" height="14"/></clipPath><linearGradient id="sheen41" x1="0" y1="0" x2="0" y2="1"><stop offset="0.0" stop-color="#acb0b2"/><stop offset="0.16" stop-color="#bfc3c5"/><stop offset="0.42" stop-color="#a3a6a9"/><stop offset="0.72" stop-color="#96989a"/><stop offset="1.0" stop-color="#878a8b"/></linearGradient><linearGradient id="sheen42" x1="0" y1="0" x2="0" y2="1"><stop offset="0.0" stop-color="#acb0b2"/><stop offset="0.16" stop-color="#bfc3c5"/><stop offset="0.42" stop-color="#a3a6a9"/><stop offset="0.72" stop-color="#96989a"/><stop offset="1.0" stop-color="#878a8b"/></linearGradient><linearGradient id="sheen43" x1="0" y1="0" x2="0" y2="1"><stop offset="0.0" stop-color="#acb0b2"/><stop offset="0.16" stop-color="#bfc3c5"/><stop offset="0.42" stop-color="#a3a6a9"/><stop offset="0.72" stop-color="#96989a"/><stop offset="1.0" stop-color="#878a8b"/></linearGradient><linearGradient id="sheen44" x1="0" y1="0" x2="0" y2="1"><stop offset="0.0" stop-color="#acb0b2"/><stop offset="0.16" stop-color="#bfc3c5"/><stop offset="0.42" stop-color="#a3a6a9"/><stop offset="0.72" stop-color="#96989a"/><stop offset="1.0" stop-color="#878a8b"/></linearGradient><linearGradient id="sheen45" x1="0" y1="0" x2="0" y2="1"><stop offset="0.0" stop-color="#acb0b2"/><stop offset="0.16" stop-color="#bfc3c5"/><stop offset="0.42" stop-color="#a3a6a9"/><stop offset="0.72" stop-color="#96989a"/><stop offset="1.0" stop-color="#878a8b"/></linearGradient><linearGradient id="sheen46" x1="0" y1="0" x2="0" y2="1"><stop offset="0.0" stop-color="#babdc0"/><stop offset="0.16" stop-color="#ced2d4"/><stop offset="0.42" stop-color="#b0b3b5"/><stop offset="0.72" stop-color="#a1a4a6"/><stop offset="1.0" stop-color="#929496"/></linearGradient><linearGradient id="sheen47" x1="0" y1="0" x2="0" y2="1"><stop offset="0.0" stop-color="#babdc0"/><stop offset="0.16" stop-color="#ced2d4"/><stop offset="0.42" stop-color="#b0b3b5"/><stop offset="0.72" stop-color="#a1a4a6"/><stop offset="1.0" stop-color="#929496"/></linearGradient><linearGradient id="sheen48" x1="0" y1="0" x2="0" y2="1"><stop offset="0.0" stop-color="#babdc0"/><stop offset="0.16" stop-color="#ced2d4"/><stop offset="0.42" stop-color="#b0b3b5"/><stop offset="0.72" stop-color="#a1a4a6"/><stop offset="1.0" stop-color="#929496"/></linearGradient><linearGradient id="sheen49" x1="0" y1="0" x2="0" y2="1"><stop offset="0.0" stop-color="#babdc0"/><stop offset="0.16" stop-color="#ced2d4"/><stop offset="0.42" stop-color="#b0b3b5"/><stop offset="0.72" stop-color="#a1a4a6"/><stop offset="1.0" stop-color="#929496"/></linearGradient><clipPath id="gc43328_6"><rect x="11" y="43" width="38" height="14"/></clipPath><linearGradient id="sheen50" x1="0" y1="0" x2="0" y2="1"><stop offset="0.0" stop-color="#babdc0"/><stop offset="0.16" stop-color="#ced2d4"/><stop offset="0.42" stop-color="#b0b3b5"/><stop offset="0.72" stop-color="#a1a4a6"/><stop offset="1.0" stop-color="#929496"/></linearGradient><linearGradient id="sheen51" x1="0" y1="0" x2="0" y2="1"><stop offset="0.0" stop-color="#babdc0"/><stop offset="0.16" stop-color="#ced2d4"/><stop offset="0.42" stop-color="#b0b3b5"/><stop offset="0.72" stop-color="#a1a4a6"/><stop offset="1.0" stop-color="#929496"/></linearGradient><linearGradient id="sheen52" x1="0" y1="0" x2="0" y2="1"><stop offset="0.0" stop-color="#babdc0"/><stop offset="0.16" stop-color="#ced2d4"/><stop offset="0.42" stop-color="#b0b3b5"/><stop offset="0.72" stop-color="#a1a4a6"/><stop offset="1.0" stop-color="#929496"/></linearGradient><linearGradient id="sheen53" x1="0" y1="0" x2="0" y2="1"><stop offset="0.0" stop-color="#babdc0"/><stop offset="0.16" stop-color="#ced2d4"/><stop offset="0.42" stop-color="#b0b3b5"/><stop offset="0.72" stop-color="#a1a4a6"/><stop offset="1.0" stop-color="#929496"/></linearGradient><linearGradient id="sheen54" x1="0" y1="0" x2="0" y2="1"><stop offset="0.0" stop-color="#babdc0"/><stop offset="0.16" stop-color="#ced2d4"/><stop offset="0.42" stop-color="#b0b3b5"/><stop offset="0.72" stop-color="#a1a4a6"/><stop offset="1.0" stop-color="#929496"/></linearGradient><linearGradient id="sheen55" x1="0" y1="0" x2="0" y2="1"><stop offset="0.0" stop-color="#cccccc"/><stop offset="0.16" stop-color="#e2e2e2"/><stop offset="0.42" stop-color="#c1c1c1"/><stop offset="0.72" stop-color="#b1b1b1"/><stop offset="1.0" stop-color="#a0a0a0"/></linearGradient><linearGradient id="sheen56" x1="0" y1="0" x2="0" y2="1"><stop offset="0.0" stop-color="#cccccc"/><stop offset="0.16" stop-color="#e2e2e2"/><stop offset="0.42" stop-color="#c1c1c1"/><stop offset="0.72" stop-color="#b1b1b1"/><stop offset="1.0" stop-color="#a0a0a0"/></linearGradient><linearGradient id="sheen57" x1="0" y1="0" x2="0" y2="1"><stop offset="0.0" stop-color="#cccccc"/><stop offset="0.16" stop-color="#e2e2e2"/><stop offset="0.42" stop-color="#c1c1c1"/><stop offset="0.72" stop-color="#b1b1b1"/><stop offset="1.0" stop-color="#a0a0a0"/></linearGradient><linearGradient id="sheen58" x1="0" y1="0" x2="0" y2="1"><stop offset="0.0" stop-color="#cccccc"/><stop offset="0.16" stop-color="#e2e2e2"/><stop offset="0.42" stop-color="#c1c1c1"/><stop offset="0.72" stop-color="#b1b1b1"/><stop offset="1.0" stop-color="#a0a0a0"/></linearGradient><clipPath id="gc9056_7"><rect x="11" y="75" width="38" height="14"/></clipPath><linearGradient id="sheen59" x1="0" y1="0" x2="0" y2="1"><stop offset="0.0" stop-color="#cccccc"/><stop offset="0.16" stop-color="#e2e2e2"/><stop offset="0.42" stop-color="#c1c1c1"/><stop offset="0.72" stop-color="#b1b1b1"/><stop offset="1.0" stop-color="#a0a0a0"/></linearGradient><linearGradient id="sheen60" x1="0" y1="0" x2="0" y2="1"><stop offset="0.0" stop-color="#cccccc"/><stop offset="0.16" stop-color="#e2e2e2"/><stop offset="0.42" stop-color="#c1c1c1"/><stop offset="0.72" stop-color="#b1b1b1"/><stop offset="1.0" stop-color="#a0a0a0"/></linearGradient><linearGradient id="sheen61" x1="0" y1="0" x2="0" y2="1"><stop offset="0.0" stop-color="#cccccc"/><stop offset="0.16" stop-color="#e2e2e2"/><stop offset="0.42" stop-color="#c1c1c1"/><stop offset="0.72" stop-color="#b1b1b1"/><stop offset="1.0" stop-color="#a0a0a0"/></linearGradient><linearGradient id="sheen62" x1="0" y1="0" x2="0" y2="1"><stop offset="0.0" stop-color="#cccccc"/><stop offset="0.16" stop-color="#e2e2e2"/><stop offset="0.42" stop-color="#c1c1c1"/><stop offset="0.72" stop-color="#b1b1b1"/><stop offset="1.0" stop-color="#a0a0a0"/></linearGradient><linearGradient id="sheen63" x1="0" y1="0" x2="0" y2="1"><stop offset="0.0" stop-color="#cccccc"/><stop offset="0.16" stop-color="#e2e2e2"/><stop offset="0.42" stop-color="#c1c1c1"/><stop offset="0.72" stop-color="#b1b1b1"/><stop offset="1.0" stop-color="#a0a0a0"/></linearGradient><linearGradient id="sheen64" x1="0" y1="0" x2="0" y2="1"><stop offset="0.0" stop-color="#92959b"/><stop offset="0.16" stop-color="#a1a5ab"/><stop offset="0.42" stop-color="#8a8d92"/><stop offset="0.72" stop-color="#7e8186"/><stop offset="1.0" stop-color="#727579"/></linearGradient><linearGradient id="sheen65" x1="0" y1="0" x2="0" y2="1"><stop offset="0.0" stop-color="#92959b"/><stop offset="0.16" stop-color="#a1a5ab"/><stop offset="0.42" stop-color="#8a8d92"/><stop offset="0.72" stop-color="#7e8186"/><stop offset="1.0" stop-color="#727579"/></linearGradient><linearGradient id="sheen66" x1="0" y1="0" x2="0" y2="1"><stop offset="0.0" stop-color="#92959b"/><stop offset="0.16" stop-color="#a1a5ab"/><stop offset="0.42" stop-color="#8a8d92"/><stop offset="0.72" stop-color="#7e8186"/><stop offset="1.0" stop-color="#727579"/></linearGradient><linearGradient id="sheen67" x1="0" y1="0" x2="0" y2="1"><stop offset="0.0" stop-color="#92959b"/><stop offset="0.16" stop-color="#a1a5ab"/><stop offset="0.42" stop-color="#8a8d92"/><stop offset="0.72" stop-color="#7e8186"/><stop offset="1.0" stop-color="#727579"/></linearGradient><clipPath id="gc40320_8"><rect x="11" y="107" width="38" height="14"/></clipPath><linearGradient id="sheen68" x1="0" y1="0" x2="0" y2="1"><stop offset="0.0" stop-color="#92959b"/><stop offset="0.16" stop-color="#a1a5ab"/><stop offset="0.42" stop-color="#8a8d92"/><stop offset="0.72" stop-color="#7e8186"/><stop offset="1.0" stop-color="#727579"/></linearGradient><linearGradient id="sheen69" x1="0" y1="0" x2="0" y2="1"><stop offset="0.0" stop-color="#92959b"/><stop offset="0.16" stop-color="#a1a5ab"/><stop offset="0.42" stop-color="#8a8d92"/><stop offset="0.72" stop-color="#7e8186"/><stop offset="1.0" stop-color="#727579"/></linearGradient><linearGradient id="sheen70" x1="0" y1="0" x2="0" y2="1"><stop offset="0.0" stop-color="#92959b"/><stop offset="0.16" stop-color="#a1a5ab"/><stop offset="0.42" stop-color="#8a8d92"/><stop offset="0.72" stop-color="#7e8186"/><stop offset="1.0" stop-color="#727579"/></linearGradient><linearGradient id="sheen71" x1="0" y1="0" x2="0" y2="1"><stop offset="0.0" stop-color="#92959b"/><stop offset="0.16" stop-color="#a1a5ab"/><stop offset="0.42" stop-color="#8a8d92"/><stop offset="0.72" stop-color="#7e8186"/><stop offset="1.0" stop-color="#727579"/></linearGradient><linearGradient id="sheen72" x1="0" y1="0" x2="0" y2="1"><stop offset="0.0" stop-color="#92959b"/><stop offset="0.16" stop-color="#a1a5ab"/><stop offset="0.42" stop-color="#8a8d92"/><stop offset="0.72" stop-color="#7e8186"/><stop offset="1.0" stop-color="#727579"/></linearGradient></defs>
  <g id="normal-topleft"><rect x="4" y="4" width="6" height="6" fill="url(#sheen37)"/><rect x="4" y="4" width="6" height="1" fill="#1a1a1a"/><rect x="4" y="4" width="1" height="6" fill="#1a1a1a"/><rect x="4" y="5" width="6" height="1" fill="#ffffff"/><rect x="5" y="4" width="1" height="6" fill="#ffffff"/></g>
  <g id="normal-top"><rect x="10" y="4" width="40" height="6" fill="url(#sheen38)"/><rect x="10" y="4" width="40" height="1" fill="#1a1a1a"/><rect x="10" y="5" width="40" height="1" fill="#ffffff"/></g>
  <g id="normal-left"><rect x="4" y="10" width="6" height="16" fill="url(#sheen39)"/><rect x="4" y="10" width="1" height="16" fill="#1a1a1a"/><rect x="5" y="10" width="1" height="16" fill="#ffffff"/></g>
  <g id="normal-center"><rect x="10" y="10" width="40" height="16" fill="url(#sheen40)"/><g clip-path="url(#gc12064_5)"><line x1="12" y1="11" x2="42" y2="15" stroke="#ffffff" stroke-opacity="0.114"/><line x1="11" y1="15" x2="45" y2="19" stroke="#000000" stroke-opacity="0.071"/><line x1="15" y1="17" x2="43" y2="20" stroke="#ffffff" stroke-opacity="0.098"/><line x1="11" y1="19" x2="49" y2="24" stroke="#000000" stroke-opacity="0.055"/></g></g>
  <g id="normal-bottomleft"><rect x="4" y="26" width="6" height="6" fill="url(#sheen41)"/><rect x="4" y="31" width="6" height="1" fill="#1a1a1a"/><rect x="4" y="26" width="1" height="6" fill="#1a1a1a"/><rect x="5" y="26" width="1" height="6" fill="#ffffff"/><rect x="4" y="30" width="6" height="1" fill="#5c5e60"/></g>
  <g id="normal-bottom"><rect x="10" y="26" width="40" height="6" fill="url(#sheen42)"/><rect x="10" y="31" width="40" height="1" fill="#1a1a1a"/><rect x="10" y="30" width="40" height="1" fill="#5c5e60"/></g>
  <g id="normal-topright"><rect x="50" y="4" width="26" height="6" fill="url(#sheen43)"/><rect x="50" y="4" width="26" height="1" fill="#1a1a1a"/><rect x="75" y="4" width="1" height="6" fill="#1a1a1a"/><rect x="50" y="5" width="26" height="1" fill="#ffffff"/><rect x="74" y="4" width="1" height="6" fill="#5c5e60"/><rect x="53" y="8" width="19" height="2" fill="#828587"/><rect x="53" y="8" width="19" height="1" fill="#1a1a1a"/><rect x="54" y="9" width="17" height="1" fill="#5c5e60"/><rect x="53" y="8" width="1" height="2" fill="#1a1a1a"/><rect x="71" y="8" width="1" height="2" fill="#1a1a1a"/></g>
  <g id="normal-right"><rect x="50" y="10" width="26" height="16" fill="url(#sheen44)"/><rect x="75" y="10" width="1" height="16" fill="#1a1a1a"/><rect x="74" y="10" width="1" height="16" fill="#5c5e60"/><rect x="53" y="10" width="19" height="16" fill="#828587"/><rect x="53" y="10" width="1" height="16" fill="#1a1a1a"/><rect x="54" y="10" width="1" height="16" fill="#5c5e60"/><rect x="71" y="10" width="1" height="16" fill="#1a1a1a"/><rect x="70" y="10" width="1" height="16" fill="#ffffff"/><polygon points="58.5,16.0 66.5,16.0 62.5,21.0" fill="#1a1a1a"/></g>
  <g id="normal-bottomright"><rect x="50" y="26" width="26" height="6" fill="url(#sheen45)"/><rect x="50" y="31" width="26" height="1" fill="#1a1a1a"/><rect x="75" y="26" width="1" height="6" fill="#1a1a1a"/><rect x="50" y="30" width="26" height="1" fill="#5c5e60"/><rect x="74" y="26" width="1" height="6" fill="#5c5e60"/><rect x="53" y="26" width="19" height="2" fill="#828587"/><rect x="53" y="27" width="19" height="1" fill="#ffffff"/><rect x="53" y="26" width="1" height="2" fill="#1a1a1a"/><rect x="71" y="26" width="1" height="2" fill="#1a1a1a"/></g>
  <g id="hover-topleft"><rect x="4" y="36" width="6" height="6" fill="url(#sheen46)"/><rect x="4" y="36" width="6" height="1" fill="#1a1a1a"/><rect x="4" y="36" width="1" height="6" fill="#1a1a1a"/><rect x="4" y="37" width="6" height="1" fill="#ffffff"/><rect x="5" y="36" width="1" height="6" fill="#ffffff"/></g>
  <g id="hover-top"><rect x="10" y="36" width="40" height="6" fill="url(#sheen47)"/><rect x="10" y="36" width="40" height="1" fill="#1a1a1a"/><rect x="10" y="37" width="40" height="1" fill="#ffffff"/></g>
  <g id="hover-left"><rect x="4" y="42" width="6" height="16" fill="url(#sheen48)"/><rect x="4" y="42" width="1" height="16" fill="#1a1a1a"/><rect x="5" y="42" width="1" height="16" fill="#ffffff"/></g>
  <g id="hover-center"><rect x="10" y="42" width="40" height="16" fill="url(#sheen49)"/><g clip-path="url(#gc43328_6)"><line x1="17" y1="45" x2="49" y2="49" stroke="#000000" stroke-opacity="0.043"/><line x1="13" y1="47" x2="43" y2="51" stroke="#000000" stroke-opacity="0.059"/><line x1="17" y1="49" x2="45" y2="52" stroke="#ffffff" stroke-opacity="0.125"/><line x1="13" y1="51" x2="48" y2="55" stroke="#000000" stroke-opacity="0.063"/></g></g>
  <g id="hover-bottomleft"><rect x="4" y="58" width="6" height="6" fill="url(#sheen50)"/><rect x="4" y="63" width="6" height="1" fill="#1a1a1a"/><rect x="4" y="58" width="1" height="6" fill="#1a1a1a"/><rect x="5" y="58" width="1" height="6" fill="#ffffff"/><rect x="4" y="62" width="6" height="1" fill="#5c5e60"/></g>
  <g id="hover-bottom"><rect x="10" y="58" width="40" height="6" fill="url(#sheen51)"/><rect x="10" y="63" width="40" height="1" fill="#1a1a1a"/><rect x="10" y="62" width="40" height="1" fill="#5c5e60"/></g>
  <g id="hover-topright"><rect x="50" y="36" width="26" height="6" fill="url(#sheen52)"/><rect x="50" y="36" width="26" height="1" fill="#1a1a1a"/><rect x="75" y="36" width="1" height="6" fill="#1a1a1a"/><rect x="50" y="37" width="26" height="1" fill="#ffffff"/><rect x="74" y="36" width="1" height="6" fill="#5c5e60"/><rect x="53" y="40" width="19" height="2" fill="#828587"/><rect x="53" y="40" width="19" height="1" fill="#1a1a1a"/><rect x="54" y="41" width="17" height="1" fill="#5c5e60"/><rect x="53" y="40" width="1" height="2" fill="#1a1a1a"/><rect x="71" y="40" width="1" height="2" fill="#1a1a1a"/></g>
  <g id="hover-right"><rect x="50" y="42" width="26" height="16" fill="url(#sheen53)"/><rect x="75" y="42" width="1" height="16" fill="#1a1a1a"/><rect x="74" y="42" width="1" height="16" fill="#5c5e60"/><rect x="53" y="42" width="19" height="16" fill="#828587"/><rect x="53" y="42" width="1" height="16" fill="#1a1a1a"/><rect x="54" y="42" width="1" height="16" fill="#5c5e60"/><rect x="71" y="42" width="1" height="16" fill="#1a1a1a"/><rect x="70" y="42" width="1" height="16" fill="#ffffff"/><polygon points="58.5,48.0 66.5,48.0 62.5,53.0" fill="#1a1a1a"/></g>
  <g id="hover-bottomright"><rect x="50" y="58" width="26" height="6" fill="url(#sheen54)"/><rect x="50" y="63" width="26" height="1" fill="#1a1a1a"/><rect x="75" y="58" width="1" height="6" fill="#1a1a1a"/><rect x="50" y="62" width="26" height="1" fill="#5c5e60"/><rect x="74" y="58" width="1" height="6" fill="#5c5e60"/><rect x="53" y="58" width="19" height="2" fill="#828587"/><rect x="53" y="59" width="19" height="1" fill="#ffffff"/><rect x="53" y="58" width="1" height="2" fill="#1a1a1a"/><rect x="71" y="58" width="1" height="2" fill="#1a1a1a"/></g>
  <g id="focus-topleft"><rect x="4" y="68" width="6" height="6" fill="url(#sheen55)"/><rect x="4" y="68" width="6" height="1" fill="#487697"/><rect x="4" y="68" width="1" height="6" fill="#487697"/><rect x="4" y="69" width="6" height="1" fill="#ffffff"/><rect x="5" y="68" width="1" height="6" fill="#ffffff"/></g>
  <g id="focus-top"><rect x="10" y="68" width="40" height="6" fill="url(#sheen56)"/><rect x="10" y="68" width="40" height="1" fill="#487697"/><rect x="10" y="69" width="40" height="1" fill="#ffffff"/></g>
  <g id="focus-left"><rect x="4" y="74" width="6" height="16" fill="url(#sheen57)"/><rect x="4" y="74" width="1" height="16" fill="#487697"/><rect x="5" y="74" width="1" height="16" fill="#ffffff"/></g>
  <g id="focus-center"><rect x="10" y="74" width="40" height="16" fill="url(#sheen58)"/><g clip-path="url(#gc9056_7)"><line x1="15" y1="75" x2="47" y2="79" stroke="#ffffff" stroke-opacity="0.082"/><line x1="13" y1="76" x2="49" y2="80" stroke="#000000" stroke-opacity="0.075"/><line x1="16" y1="79" x2="48" y2="83" stroke="#ffffff" stroke-opacity="0.098"/><line x1="14" y1="80" x2="45" y2="84" stroke="#ffffff" stroke-opacity="0.086"/><line x1="15" y1="84" x2="45" y2="88" stroke="#000000" stroke-opacity="0.067"/><line x1="14" y1="86" x2="47" y2="90" stroke="#ffffff" stroke-opacity="0.125"/><line x1="18" y1="88" x2="49" y2="92" stroke="#000000" stroke-opacity="0.039"/></g></g>
  <g id="focus-bottomleft"><rect x="4" y="90" width="6" height="6" fill="url(#sheen59)"/><rect x="4" y="95" width="6" height="1" fill="#487697"/><rect x="4" y="90" width="1" height="6" fill="#487697"/><rect x="5" y="90" width="1" height="6" fill="#ffffff"/><rect x="4" y="94" width="6" height="1" fill="#5c5e60"/></g>
  <g id="focus-bottom"><rect x="10" y="90" width="40" height="6" fill="url(#sheen60)"/><rect x="10" y="95" width="40" height="1" fill="#487697"/><rect x="10" y="94" width="40" height="1" fill="#5c5e60"/></g>
  <g id="focus-topright"><rect x="50" y="68" width="26" height="6" fill="url(#sheen61)"/><rect x="50" y="68" width="26" height="1" fill="#487697"/><rect x="75" y="68" width="1" height="6" fill="#487697"/><rect x="50" y="69" width="26" height="1" fill="#ffffff"/><rect x="74" y="68" width="1" height="6" fill="#5c5e60"/><rect x="53" y="72" width="19" height="2" fill="#828587"/><rect x="53" y="72" width="19" height="1" fill="#487697"/><rect x="54" y="73" width="17" height="1" fill="#5c5e60"/><rect x="53" y="72" width="1" height="2" fill="#487697"/><rect x="71" y="72" width="1" height="2" fill="#487697"/></g>
  <g id="focus-right"><rect x="50" y="74" width="26" height="16" fill="url(#sheen62)"/><rect x="75" y="74" width="1" height="16" fill="#487697"/><rect x="74" y="74" width="1" height="16" fill="#5c5e60"/><rect x="53" y="74" width="19" height="16" fill="#828587"/><rect x="53" y="74" width="1" height="16" fill="#487697"/><rect x="54" y="74" width="1" height="16" fill="#5c5e60"/><rect x="71" y="74" width="1" height="16" fill="#487697"/><rect x="70" y="74" width="1" height="16" fill="#ffffff"/><polygon points="58.5,80.0 66.5,80.0 62.5,85.0" fill="#1a1a1a"/></g>
  <g id="focus-bottomright"><rect x="50" y="90" width="26" height="6" fill="url(#sheen63)"/><rect x="50" y="95" width="26" height="1" fill="#487697"/><rect x="75" y="90" width="1" height="6" fill="#487697"/><rect x="50" y="94" width="26" height="1" fill="#5c5e60"/><rect x="74" y="90" width="1" height="6" fill="#5c5e60"/><rect x="53" y="90" width="19" height="2" fill="#828587"/><rect x="53" y="91" width="19" height="1" fill="#ffffff"/><rect x="53" y="90" width="1" height="2" fill="#487697"/><rect x="71" y="90" width="1" height="2" fill="#487697"/></g>
  <g id="pressed-topleft"><rect x="4" y="100" width="6" height="6" fill="url(#sheen64)"/><rect x="4" y="100" width="6" height="1" fill="#1a1a1a"/><rect x="4" y="100" width="1" height="6" fill="#1a1a1a"/><rect x="4" y="101" width="6" height="1" fill="#7a7c7e"/><rect x="5" y="100" width="1" height="6" fill="#7a7c7e"/></g>
  <g id="pressed-top"><rect x="10" y="100" width="40" height="6" fill="url(#sheen65)"/><rect x="10" y="100" width="40" height="1" fill="#1a1a1a"/><rect x="10" y="101" width="40" height="1" fill="#7a7c7e"/></g>
  <g id="pressed-left"><rect x="4" y="106" width="6" height="16" fill="url(#sheen66)"/><rect x="4" y="106" width="1" height="16" fill="#1a1a1a"/><rect x="5" y="106" width="1" height="16" fill="#7a7c7e"/></g>
  <g id="pressed-center"><rect x="10" y="106" width="40" height="16" fill="url(#sheen67)"/><g clip-path="url(#gc40320_8)"><line x1="17" y1="107" x2="49" y2="111" stroke="#000000" stroke-opacity="0.055"/><line x1="16" y1="110" x2="49" y2="114" stroke="#ffffff" stroke-opacity="0.114"/><line x1="17" y1="114" x2="42" y2="117" stroke="#ffffff" stroke-opacity="0.125"/><line x1="13" y1="116" x2="47" y2="120" stroke="#ffffff" stroke-opacity="0.090"/><line x1="14" y1="119" x2="48" y2="123" stroke="#ffffff" stroke-opacity="0.125"/></g></g>
  <g id="pressed-bottomleft"><rect x="4" y="122" width="6" height="6" fill="url(#sheen68)"/><rect x="4" y="127" width="6" height="1" fill="#1a1a1a"/><rect x="4" y="122" width="1" height="6" fill="#1a1a1a"/><rect x="5" y="122" width="1" height="6" fill="#7a7c7e"/><rect x="4" y="126" width="6" height="1" fill="#ffffff"/></g>
  <g id="pressed-bottom"><rect x="10" y="122" width="40" height="6" fill="url(#sheen69)"/><rect x="10" y="127" width="40" height="1" fill="#1a1a1a"/><rect x="10" y="126" width="40" height="1" fill="#ffffff"/></g>
  <g id="pressed-topright"><rect x="50" y="100" width="26" height="6" fill="url(#sheen70)"/><rect x="50" y="100" width="26" height="1" fill="#1a1a1a"/><rect x="75" y="100" width="1" height="6" fill="#1a1a1a"/><rect x="50" y="101" width="26" height="1" fill="#7a7c7e"/><rect x="74" y="100" width="1" height="6" fill="#ffffff"/><rect x="53" y="104" width="19" height="2" fill="#828587"/><rect x="53" y="104" width="19" height="1" fill="#1a1a1a"/><rect x="54" y="105" width="17" height="1" fill="#5c5e60"/><rect x="53" y="104" width="1" height="2" fill="#1a1a1a"/><rect x="71" y="104" width="1" height="2" fill="#1a1a1a"/></g>
  <g id="pressed-right"><rect x="50" y="106" width="26" height="16" fill="url(#sheen71)"/><rect x="75" y="106" width="1" height="16" fill="#1a1a1a"/><rect x="74" y="106" width="1" height="16" fill="#ffffff"/><rect x="53" y="106" width="19" height="16" fill="#828587"/><rect x="53" y="106" width="1" height="16" fill="#1a1a1a"/><rect x="54" y="106" width="1" height="16" fill="#5c5e60"/><rect x="71" y="106" width="1" height="16" fill="#1a1a1a"/><rect x="70" y="106" width="1" height="16" fill="#ffffff"/><polygon points="58.5,112.0 66.5,112.0 62.5,117.0" fill="#1a1a1a"/></g>
  <g id="pressed-bottomright"><rect x="50" y="122" width="26" height="6" fill="url(#sheen72)"/><rect x="50" y="127" width="26" height="1" fill="#1a1a1a"/><rect x="75" y="122" width="1" height="6" fill="#1a1a1a"/><rect x="50" y="126" width="26" height="1" fill="#ffffff"/><rect x="74" y="122" width="1" height="6" fill="#ffffff"/><rect x="53" y="122" width="19" height="2" fill="#828587"/><rect x="53" y="123" width="19" height="1" fill="#ffffff"/><rect x="53" y="122" width="1" height="2" fill="#1a1a1a"/><rect x="71" y="122" width="1" height="2" fill="#1a1a1a"/></g>
</svg>
