<?xml version="1.0" encoding="UTF-8" standalone="no"?>
<svg xmlns="http://www.w3.org/2000/svg" width="60" height="68" viewBox="0 0 60 68">
  <g id="base-topleft"><rect x="4" y="4" width="6" height="6" fill="#ffffff"/><rect x="4" y="4" width="6" height="1" fill="#1a1a1a"/><rect x="4" y="4" width="1" height="6" fill="#1a1a1a"/><rect x="4" y="5" width="6" height="1" fill="#999ca0"/><rect x="5" y="4" width="1" height="6" fill="#999ca0"/></g>
  <g id="base-top"><rect x="10" y="4" width="36" height="6" fill="#ffffff"/><rect x="10" y="4" width="36" height="1" fill="#1a1a1a"/><rect x="10" y="5" width="36" height="1" fill="#999ca0"/></g>
  <g id="base-topright"><rect x="46" y="4" width="6" height="6" fill="#ffffff"/><rect x="46" y="4" width="6" height="1" fill="#1a1a1a"/><rect x="51" y="4" width="1" height="6" fill="#1a1a1a"/><rect x="46" y="5" width="6" height="1" fill="#999ca0"/><rect x="50" y="4" width="1" height="6" fill="#ffffff"/></g>
  <g id="base-left"><rect x="4" y="10" width="6" height="12" fill="#ffffff"/><rect x="4" y="10" width="1" height="12" fill="#1a1a1a"/><rect x="5" y="10" width="1" height="12" fill="#999ca0"/></g>
  <g id="base-center"><rect x="10" y="10" width="36" height="12" fill="#ffffff"/><rect x="12" y="12" width="32" height="1" fill="#ffffff" fill-opacity="0.10"/><rect x="12" y="13" width="32" height="1" fill="#000000" fill-opacity="0.055"/><rect x="12" y="15" width="32" height="1" fill="#ffffff" fill-opacity="0.10"/><rect x="12" y="16" width="32" height="1" fill="#000000" fill-opacity="0.055"/><rect x="12" y="18" width="32" height="1" fill="#ffffff" fill-opacity="0.10"/><rect x="12" y="19" width="32" height="1" fill="#000000" fill-opacity="0.055"/></g>
  <g id="base-right"><rect x="46" y="10" width="6" height="12" fill="#ffffff"/><rect x="51" y="10" width="1" height="12" fill="#1a1a1a"/><rect x="50" y="10" width="1" height="12" fill="#ffffff"/></g>
  <g id="base-bottomleft"><rect x="4" y="22" width="6" height="6" fill="#ffffff"/><rect x="4" y="27" width="6" height="1" fill="#1a1a1a"/><rect x="4" y="22" width="1" height="6" fill="#1a1a1a"/><rect x="5" y="22" width="1" height="6" fill="#999ca0"/><rect x="4" y="26" width="6" height="1" fill="#ffffff"/></g>
  <g id="base-bottom"><rect x="10" y="22" width="36" height="6" fill="#ffffff"/><rect x="10" y="27" width="36" height="1" fill="#1a1a1a"/><rect x="10" y="26" width="36" height="1" fill="#ffffff"/></g>
  <g id="base-bottomright"><rect x="46" y="22" width="6" height="6" fill="#ffffff"/><rect x="46" y="27" width="6" height="1" fill="#1a1a1a"/><rect x="51" y="22" width="1" height="6" fill="#1a1a1a"/><rect x="46" y="26" width="6" height="1" fill="#ffffff"/><rect x="50" y="22" width="1" height="6" fill="#ffffff"/></g>
  <g id="focus-topleft"><rect x="4" y="36" width="6" height="6" fill="#ffffff"/><rect x="4" y="36" width="6" height="1" fill="#487697"/><rect x="4" y="36" width="1" height="6" fill="#487697"/><rect x="4" y="37" width="6" height="1" fill="#999ca0"/><rect x="5" y="36" width="1" height="6" fill="#999ca0"/></g>
  <g id="focus-top"><rect x="10" y="36" width="36" height="6" fill="#ffffff"/><rect x="10" y="36" width="36" height="1" fill="#487697"/><rect x="10" y="37" width="36" height="1" fill="#999ca0"/></g>
  <g id="focus-topright"><rect x="46" y="36" width="6" height="6" fill="#ffffff"/><rect x="46" y="36" width="6" height="1" fill="#487697"/><rect x="51" y="36" width="1" height="6" fill="#487697"/><rect x="46" y="37" width="6" height="1" fill="#999ca0"/><rect x="50" y="36" width="1" height="6" fill="#ffffff"/></g>
  <g id="focus-left"><rect x="4" y="42" width="6" height="12" fill="#ffffff"/><rect x="4" y="42" width="1" height="12" fill="#487697"/><rect x="5" y="42" width="1" height="12" fill="#999ca0"/></g>
  <g id="focus-center"><rect x="10" y="42" width="36" height="12" fill="#ffffff"/><rect x="12" y="44" width="32" height="1" fill="#ffffff" fill-opacity="0.10"/><rect x="12" y="45" width="32" height="1" fill="#000000" fill-opacity="0.055"/><rect x="12" y="47" width="32" height="1" fill="#ffffff" fill-opacity="0.10"/><rect x="12" y="48" width="32" height="1" fill="#000000" fill-opacity="0.055"/><rect x="12" y="50" width="32" height="1" fill="#ffffff" fill-opacity="0.10"/><rect x="12" y="51" width="32" height="1" fill="#000000" fill-opacity="0.055"/></g>
  <g id="focus-right"><rect x="46" y="42" width="6" height="12" fill="#ffffff"/><rect x="51" y="42" width="1" height="12" fill="#487697"/><rect x="50" y="42" width="1" height="12" fill="#ffffff"/></g>
  <g id="focus-bottomleft"><rect x="4" y="54" width="6" height="6" fill="#ffffff"/><rect x="4" y="59" width="6" height="1" fill="#487697"/><rect x="4" y="54" width="1" height="6" fill="#487697"/><rect x="5" y="54" width="1" height="6" fill="#999ca0"/><rect x="4" y="58" width="6" height="1" fill="#ffffff"/></g>
  <g id="focus-bottom"><rect x="10" y="54" width="36" height="6" fill="#ffffff"/><rect x="10" y="59" width="36" height="1" fill="#487697"/><rect x="10" y="58" width="36" height="1" fill="#ffffff"/></g>
  <g id="focus-bottomright"><rect x="46" y="54" width="6" height="6" fill="#ffffff"/><rect x="46" y="59" width="6" height="1" fill="#487697"/><rect x="51" y="54" width="1" height="6" fill="#487697"/><rect x="46" y="58" width="6" height="1" fill="#ffffff"/><rect x="50" y="54" width="1" height="6" fill="#ffffff"/></g>
</svg>
