<?xml version="1.0" encoding="UTF-8" standalone="no"?>
<svg xmlns="http://www.w3.org/2000/svg" width="60" height="68" viewBox="0 0 60 68">
  <g id="slider-topleft"><rect x="4" y="4" width="6" height="6" fill="#cacdd1"/><rect x="4" y="4" width="6" height="1" fill="#1a1a1a"/><rect x="4" y="4" width="1" height="6" fill="#1a1a1a"/><rect x="4" y="5" width="6" height="1" fill="#ffffff"/><rect x="5" y="4" width="1" height="6" fill="#ffffff"/></g>
  <g id="slider-top"><rect x="10" y="4" width="36" height="6" fill="#cacdd1"/><rect x="10" y="4" width="36" height="1" fill="#1a1a1a"/><rect x="10" y="5" width="36" height="1" fill="#ffffff"/></g>
  <g id="slider-topright"><rect x="46" y="4" width="6" height="6" fill="#cacdd1"/><rect x="46" y="4" width="6" height="1" fill="#1a1a1a"/><rect x="51" y="4" width="1" height="6" fill="#1a1a1a"/><rect x="46" y="5" width="6" height="1" fill="#ffffff"/><rect x="50" y="4" width="1" height="6" fill="#7c8188"/></g>
  <g id="slider-left"><rect x="4" y="10" width="6" height="12" fill="#cacdd1"/><rect x="4" y="10" width="1" height="12" fill="#1a1a1a"/><rect x="5" y="10" width="1" height="12" fill="#ffffff"/></g>
  <g id="slider-center"><rect x="10" y="10" width="36" height="12" fill="#cacdd1"/><rect x="12" y="12" width="32" height="1" fill="#ffffff" fill-opacity="0.10"/><rect x="12" y="13" width="32" height="1" fill="#000000" fill-opacity="0.055"/><rect x="12" y="15" width="32" height="1" fill="#ffffff" fill-opacity="0.10"/><rect x="12" y="16" width="32" height="1" fill="#000000" fill-opacity="0.055"/><rect x="12" y="18" width="32" height="1" fill="#ffffff" fill-opacity="0.10"/><rect x="12" y="19" width="32" height="1" fill="#000000" fill-opacity="0.055"/></g>
  <g id="slider-right"><rect x="46" y="10" width="6" height="12" fill="#cacdd1"/><rect x="51" y="10" width="1" height="12" fill="#1a1a1a"/><rect x="50" y="10" width="1" height="12" fill="#7c8188"/></g>
  <g id="slider-bottomleft"><rect x="4" y="22" width="6" height="6" fill="#cacdd1"/><rect x="4" y="27" width="6" height="1" fill="#1a1a1a"/><rect x="4" y="22" width="1" height="6" fill="#1a1a1a"/><rect x="5" y="22" width="1" height="6" fill="#ffffff"/><rect x="4" y="26" width="6" height="1" fill="#7c8188"/></g>
  <g id="slider-bottom"><rect x="10" y="22" width="36" height="6" fill="#cacdd1"/><rect x="10" y="27" width="36" height="1" fill="#1a1a1a"/><rect x="10" y="26" width="36" height="1" fill="#7c8188"/></g>
  <g id="slider-bottomright"><rect x="46" y="22" width="6" height="6" fill="#cacdd1"/><rect x="46" y="27" width="6" height="1" fill="#1a1a1a"/><rect x="51" y="22" width="1" height="6" fill="#1a1a1a"/><rect x="46" y="26" width="6" height="1" fill="#7c8188"/><rect x="50" y="22" width="1" height="6" fill="#7c8188"/></g>
  <g id="groove-topleft"><rect x="4" y="36" width="6" height="6" fill="#bec1c5"/><rect x="4" y="36" width="6" height="1" fill="#1a1a1a"/><rect x="4" y="36" width="1" height="6" fill="#1a1a1a"/><rect x="4" y="37" width="6" height="1" fill="#999ca0"/><rect x="5" y="36" width="1" height="6" fill="#999ca0"/></g>
  <g id="groove-top"><rect x="10" y="36" width="36" height="6" fill="#bec1c5"/><rect x="10" y="36" width="36" height="1" fill="#1a1a1a"/><rect x="10" y="37" width="36" height="1" fill="#999ca0"/></g>
  <g id="groove-topright"><rect x="46" y="36" width="6" height="6" fill="#bec1c5"/><rect x="46" y="36" width="6" height="1" fill="#1a1a1a"/><rect x="51" y="36" width="1" height="6" fill="#1a1a1a"/><rect x="46" y="37" width="6" height="1" fill="#999ca0"/><rect x="50" y="36" width="1" height="6" fill="#ffffff"/></g>
  <g id="groove-left"><rect x="4" y="42" width="6" height="12" fill="#bec1c5"/><rect x="4" y="42" width="1" height="12" fill="#1a1a1a"/><rect x="5" y="42" width="1" height="12" fill="#999ca0"/></g>
  <g id="groove-center"><rect x="10" y="42" width="36" height="12" fill="#bec1c5"/><rect x="12" y="44" width="32" height="1" fill="#ffffff" fill-opacity="0.10"/><rect x="12" y="45" width="32" height="1" fill="#000000" fill-opacity="0.055"/><rect x="12" y="47" width="32" height="1" fill="#ffffff" fill-opacity="0.10"/><rect x="12" y="48" width="32" height="1" fill="#000000" fill-opacity="0.055"/><rect x="12" y="50" width="32" height="1" fill="#ffffff" fill-opacity="0.10"/><rect x="12" y="51" width="32" height="1" fill="#000000" fill-opacity="0.055"/></g>
  <g id="groove-right"><rect x="46" y="42" width="6" height="12" fill="#bec1c5"/><rect x="51" y="42" width="1" height="12" fill="#1a1a1a"/><rect x="50" y="42" width="1" height="12" fill="#ffffff"/></g>
  <g id="groove-bottomleft"><rect x="4" y="54" width="6" height="6" fill="#bec1c5"/><rect x="4" y="59" width="6" height="1" fill="#1a1a1a"/><rect x="4" y="54" width="1" height="6" fill="#1a1a1a"/><rect x="5" y="54" width="1" height="6" fill="#999ca0"/><rect x="4" y="58" width="6" height="1" fill="#ffffff"/></g>
  <g id="groove-bottom"><rect x="10" y="54" width="36" height="6" fill="#bec1c5"/><rect x="10" y="59" width="36" height="1" fill="#1a1a1a"/><rect x="10" y="58" width="36" height="1" fill="#ffffff"/></g>
  <g id="groove-bottomright"><rect x="46" y="54" width="6" height="6" fill="#bec1c5"/><rect x="46" y="59" width="6" height="1" fill="#1a1a1a"/><rect x="51" y="54" width="1" height="6" fill="#1a1a1a"/><rect x="46" y="58" width="6" height="1" fill="#ffffff"/><rect x="50" y="54" width="1" height="6" fill="#ffffff"/></g>
</svg>
