<?xml version="1.0" encoding="UTF-8" standalone="no"?>
<svg xmlns="http://www.w3.org/2000/svg" width="60" height="68" viewBox="0 0 60 68">
  <defs><linearGradient id="sheen145" x1="0" y1="0" x2="0" y2="1"><stop offset="0.0" stop-color="#929597"/><stop offset="0.16" stop-color="#a1a5a7"/><stop offset="0.42" stop-color="#8a8d8f"/><stop offset="0.72" stop-color="#7e8183"/><stop offset="1.0" stop-color="#727576"/></linearGradient><linearGradient id="sheen146" x1="0" y1="0" x2="0" y2="1"><stop offset="0.0" stop-color="#929597"/><stop offset="0.16" stop-color="#a1a5a7"/><stop offset="0.42" stop-color="#8a8d8f"/><stop offset="0.72" stop-color="#7e8183"/><stop offset="1.0" stop-color="#727576"/></linearGradient><linearGradient id="sheen147" x1="0" y1="0" x2="0" y2="1"><stop offset="0.0" stop-color="#929597"/><stop offset="0.16" stop-color="#a1a5a7"/><stop offset="0.42" stop-color="#8a8d8f"/><stop offset="0.72" stop-color="#7e8183"/><stop offset="1.0" stop-color="#727576"/></linearGradient><linearGradient id="sheen148" x1="0" y1="0" x2="0" y2="1"><stop offset="0.0" stop-color="#929597"/><stop offset="0.16" stop-color="#a1a5a7"/><stop offset="0.42" stop-color="#8a8d8f"/><stop offset="0.72" stop-color="#7e8183"/><stop offset="1.0" stop-color="#727576"/></linearGradient><linearGradient id="sheen149" x1="0" y1="0" x2="0" y2="1"><stop offset="0.0" stop-color="#929597"/><stop offset="0.16" stop-color="#a1a5a7"/><stop offset="0.42" stop-color="#8a8d8f"/><stop offset="0.72" stop-color="#7e8183"/><stop offset="1.0" stop-color="#727576"/></linearGradient><linearGradient id="sheen150" x1="0" y1="0" x2="0" y2="1"><stop offset="0.0" stop-color="#929597"/><stop offset="0.16" stop-color="#a1a5a7"/><stop offset="0.42" stop-color="#8a8d8f"/><stop offset="0.72" stop-color="#7e8183"/><stop offset="1.0" stop-color="#727576"/></linearGradient><linearGradient id="sheen151" x1="0" y1="0" x2="0" y2="1"><stop offset="0.0" stop-color="#929597"/><stop offset="0.16" stop-color="#a1a5a7"/><stop offset="0.42" stop-color="#8a8d8f"/><stop offset="0.72" stop-color="#7e8183"/><stop offset="1.0" stop-color="#727576"/></linearGradient><linearGradient id="sheen152" x1="0" y1="0" x2="0" y2="1"><stop offset="0.0" stop-color="#929597"/><stop offset="0.16" stop-color="#a1a5a7"/><stop offset="0.42" stop-color="#8a8d8f"/><stop offset="0.72" stop-color="#7e8183"/><stop offset="1.0" stop-color="#727576"/></linearGradient><linearGradient id="sheen153" x1="0" y1="0" x2="0" y2="1"><stop offset="0.0" stop-color="#929597"/><stop offset="0.16" stop-color="#a1a5a7"/><stop offset="0.42" stop-color="#8a8d8f"/><stop offset="0.72" stop-color="#7e8183"/><stop offset="1.0" stop-color="#727576"/></linearGradient><linearGradient id="sheen154" x1="0" y1="0" x2="0" y2="1"><stop offset="0.0" stop-color="#acb0b2"/><stop offset="0.16" stop-color="#bfc3c5"/><stop offset="0.42" stop-color="#a3a6a9"/><stop offset="0.72" stop-color="#96989a"/><stop offset="1.0" stop-color="#878a8b"/></linearGradient><linearGradient id="sheen155" x1="0" y1="0" x2="0" y2="1"><stop offset="0.0" stop-color="#acb0b2"/><stop offset="0.16" stop-color="#bfc3c5"/><stop offset="0.42" stop-color="#a3a6a9"/><stop offset="0.72" stop-color="#96989a"/><stop offset="1.0" stop-color="#878a8b"/></linearGradient><linearGradient id="sheen156" x1="0" y1="0" x2="0" y2="1"><stop offset="0.0" stop-color="#acb0b2"/><stop offset="0.16" stop-color="#bfc3c5"/><stop offset="0.42" stop-color="#a3a6a9"/><stop offset="0.72" stop-color="#96989a"/><stop offset="1.0" stop-color="#878a8b"/></linearGradient><linearGradient id="sheen157" x1="0" y1="0" x2="0" y2="1"><stop offset="0.0" stop-color="#acb0b2"/><stop offset="0.16" stop-color="#bfc3c5"/><stop offset="0.42" stop-color="#a3a6a9"/><stop offset="0.72" stop-color="#96989a"/><stop offset="1.0" stop-color="#878a8b"/></linearGradient><linearGradient id="sheen158" x1="0" y1="0" x2="0" y2="1"><stop offset="0.0" stop-color="#acb0b2"/><stop offset="0.16" stop-color="#bfc3c5"/><stop offset="0.42" stop-color="#a3a6a9"/><stop offset="0.72" stop-color="#96989a"/><stop offset="1.0" stop-color="#878a8b"/></linearGradient><linearGradient id="sheen159" x1="0" y1="0" x2="0" y2="1"><stop offset="0.0" stop-color="#acb0b2"/><stop offset="0.16" stop-color="#bfc3c5"/><stop offset="0.42" stop-color="#a3a6a9"/><stop offset="0.72" stop-color="#96989a"/><stop offset="1.0" stop-color="#878a8b"/></linearGradient><linearGradient id="sheen160" x1="0" y1="0" x2="0" y2="1"><stop offset="0.0" stop-color="#acb0b2"/><stop offset="0.16" stop-color="#bfc3c5"/><stop offset="0.42" stop-color="#a3a6a9"/><stop offset="0.72" stop-color="#96989a"/><stop offset="1.0" stop-color="#878a8b"/></linearGradient><linearGradient id="sheen161" x1="0" y1="0" x2="0" y2="1"><stop offset="0.0" stop-color="#acb0b2"/><stop offset="0.16" stop-color="#bfc3c5"/><stop offset="0.42" stop-color="#a3a6a9"/><stop offset="0.72" stop-color="#96989a"/><stop offset="1.0" stop-color="#878a8b"/></linearGradient><linearGradient id="sheen162" x1="0" y1="0" x2="0" y2="1"><stop offset="0.0" stop-color="#acb0b2"/><stop offset="0.16" stop-color="#bfc3c5"/><stop offset="0.42" stop-color="#a3a6a9"/><stop offset="0.72" stop-color="#96989a"/><stop offset="1.0" stop-color="#878a8b"/></linearGradient></defs>
  <g id="groove-topleft"><rect x="4" y="4" width="6" height="6" fill="url(#sheen145)"/><rect x="4" y="4" width="6" height="1" fill="#1a1a1a"/><rect x="4" y="4" width="1" height="6" fill="#1a1a1a"/><rect x="4" y="5" width="6" height="1" fill="#7a7c7e"/><rect x="5" y="4" width="1" height="6" fill="#7a7c7e"/></g>
  <g id="groove-top"><rect x="10" y="4" width="36" height="6" fill="url(#sheen146)"/><rect x="10" y="4" width="36" height="1" fill="#1a1a1a"/><rect x="10" y="5" width="36" height="1" fill="#7a7c7e"/></g>
  <g id="groove-topright"><rect x="46" y="4" width="6" height="6" fill="url(#sheen147)"/><rect x="46" y="4" width="6" height="1" fill="#1a1a1a"/><rect x="51" y="4" width="1" height="6" fill="#1a1a1a"/><rect x="46" y="5" width="6" height="1" fill="#7a7c7e"/><rect x="50" y="4" width="1" height="6" fill="#ffffff"/></g>
  <g id="groove-left"><rect x="4" y="10" width="6" height="12" fill="url(#sheen148)"/><rect x="4" y="10" width="1" height="12" fill="#1a1a1a"/><rect x="5" y="10" width="1" height="12" fill="#7a7c7e"/></g>
  <g id="groove-center"><rect x="10" y="10" width="36" height="12" fill="url(#sheen149)"/><clipPath id="gc11896"><rect x="11" y="11" width="34" height="10"/></clipPath><g clip-path="url(#gc11896)"><line x1="15" y1="15" x2="45" y2="19" stroke="#ffffff" stroke-opacity="0.106"/><line x1="13" y1="16" x2="40" y2="19" stroke="#000000" stroke-opacity="0.039"/></g></g>
  <g id="groove-right"><rect x="46" y="10" width="6" height="12" fill="url(#sheen150)"/><rect x="51" y="10" width="1" height="12" fill="#1a1a1a"/><rect x="50" y="10" width="1" height="12" fill="#ffffff"/></g>
  <g id="groove-bottomleft"><rect x="4" y="22" width="6" height="6" fill="url(#sheen151)"/><rect x="4" y="27" width="6" height="1" fill="#1a1a1a"/><rect x="4" y="22" width="1" height="6" fill="#1a1a1a"/><rect x="5" y="22" width="1" height="6" fill="#7a7c7e"/><rect x="4" y="26" width="6" height="1" fill="#ffffff"/></g>
  <g id="groove-bottom"><rect x="10" y="22" width="36" height="6" fill="url(#sheen152)"/><rect x="10" y="27" width="36" height="1" fill="#1a1a1a"/><rect x="10" y="26" width="36" height="1" fill="#ffffff"/></g>
  <g id="groove-bottomright"><rect x="46" y="22" width="6" height="6" fill="url(#sheen153)"/><rect x="46" y="27" width="6" height="1" fill="#1a1a1a"/><rect x="51" y="22" width="1" height="6" fill="#1a1a1a"/><rect x="46" y="26" width="6" height="1" fill="#ffffff"/><rect x="50" y="22" width="1" height="6" fill="#ffffff"/></g>
  <g id="handle-topleft"><rect x="4" y="36" width="6" height="6" fill="url(#sheen154)"/><rect x="4" y="36" width="6" height="1" fill="#1a1a1a"/><rect x="4" y="36" width="1" height="6" fill="#1a1a1a"/><rect x="4" y="37" width="6" height="1" fill="#ffffff"/><rect x="5" y="36" width="1" height="6" fill="#ffffff"/></g>
  <g id="handle-top"><rect x="10" y="36" width="36" height="6" fill="url(#sheen155)"/><rect x="10" y="36" width="36" height="1" fill="#1a1a1a"/><rect x="10" y="37" width="36" height="1" fill="#ffffff"/></g>
  <g id="handle-topright"><rect x="46" y="36" width="6" height="6" fill="url(#sheen156)"/><rect x="46" y="36" width="6" height="1" fill="#1a1a1a"/><rect x="51" y="36" width="1" height="6" fill="#1a1a1a"/><rect x="46" y="37" width="6" height="1" fill="#ffffff"/><rect x="50" y="36" width="1" height="6" fill="#5c5e60"/></g>
  <g id="handle-left"><rect x="4" y="42" width="6" height="12" fill="url(#sheen157)"/><rect x="4" y="42" width="1" height="12" fill="#1a1a1a"/><rect x="5" y="42" width="1" height="12" fill="#ffffff"/></g>
  <g id="handle-center"><rect x="10" y="42" width="36" height="12" fill="url(#sheen158)"/><clipPath id="gc43160"><rect x="11" y="43" width="34" height="10"/></clipPath><g clip-path="url(#gc43160)"><line x1="16" y1="43" x2="39" y2="46" stroke="#000000" stroke-opacity="0.047"/><line x1="14" y1="46" x2="39" y2="49" stroke="#ffffff" stroke-opacity="0.102"/></g></g>
  <g id="handle-right"><rect x="46" y="42" width="6" height="12" fill="url(#sheen159)"/><rect x="51" y="42" width="1" height="12" fill="#1a1a1a"/><rect x="50" y="42" width="1" height="12" fill="#5c5e60"/></g>
  <g id="handle-bottomleft"><rect x="4" y="54" width="6" height="6" fill="url(#sheen160)"/><rect x="4" y="59" width="6" height="1" fill="#1a1a1a"/><rect x="4" y="54" width="1" height="6" fill="#1a1a1a"/><rect x="5" y="54" width="1" height="6" fill="#ffffff"/><rect x="4" y="58" width="6" height="1" fill="#5c5e60"/></g>
  <g id="handle-bottom"><rect x="10" y="54" width="36" height="6" fill="url(#sheen161)"/><rect x="10" y="59" width="36" height="1" fill="#1a1a1a"/><rect x="10" y="58" width="36" height="1" fill="#5c5e60"/></g>
  <g id="handle-bottomright"><rect x="46" y="54" width="6" height="6" fill="url(#sheen162)"/><rect x="46" y="59" width="6" height="1" fill="#1a1a1a"/><rect x="51" y="54" width="1" height="6" fill="#1a1a1a"/><rect x="46" y="58" width="6" height="1" fill="#5c5e60"/><rect x="50" y="54" width="1" height="6" fill="#5c5e60"/></g>
</svg>
