<?xml version="1.0" encoding="UTF-8" standalone="no"?>
<svg xmlns="http://www.w3.org/2000/svg" width="60" height="68" viewBox="0 0 60 68">
  <defs><linearGradient id="sheen109" x1="0" y1="0" x2="0" y2="1"><stop offset="0.0" stop-color="#acb0b2"/><stop offset="0.16" stop-color="#bfc3c5"/><stop offset="0.42" stop-color="#a3a6a9"/><stop offset="0.72" stop-color="#96989a"/><stop offset="1.0" stop-color="#878a8b"/></linearGradient><linearGradient id="sheen110" x1="0" y1="0" x2="0" y2="1"><stop offset="0.0" stop-color="#acb0b2"/><stop offset="0.16" stop-color="#bfc3c5"/><stop offset="0.42" stop-color="#a3a6a9"/><stop offset="0.72" stop-color="#96989a"/><stop offset="1.0" stop-color="#878a8b"/></linearGradient><linearGradient id="sheen111" x1="0" y1="0" x2="0" y2="1"><stop offset="0.0" stop-color="#acb0b2"/><stop offset="0.16" stop-color="#bfc3c5"/><stop offset="0.42" stop-color="#a3a6a9"/><stop offset="0.72" stop-color="#96989a"/><stop offset="1.0" stop-color="#878a8b"/></linearGradient><linearGradient id="sheen112" x1="0" y1="0" x2="0" y2="1"><stop offset="0.0" stop-color="#acb0b2"/><stop offset="0.16" stop-color="#bfc3c5"/><stop offset="0.42" stop-color="#a3a6a9"/><stop offset="0.72" stop-color="#96989a"/><stop offset="1.0" stop-color="#878a8b"/></linearGradient><linearGradient id="sheen113" x1="0" y1="0" x2="0" y2="1"><stop offset="0.0" stop-color="#acb0b2"/><stop offset="0.16" stop-color="#bfc3c5"/><stop offset="0.42" stop-color="#a3a6a9"/><stop offset="0.72" stop-color="#96989a"/><stop offset="1.0" stop-color="#878a8b"/></linearGradient><clipPath id="gc11896_13"><rect x="11" y="11" width="34" height="10"/></clipPath><linearGradient id="sheen114" x1="0" y1="0" x2="0" y2="1"><stop offset="0.0" stop-color="#acb0b2"/><stop offset="0.16" stop-color="#bfc3c5"/><stop offset="0.42" stop-color="#a3a6a9"/><stop offset="0.72" stop-color="#96989a"/><stop offset="1.0" stop-color="#878a8b"/></linearGradient><linearGradient id="sheen115" x1="0" y1="0" x2="0" y2="1"><stop offset="0.0" stop-color="#acb0b2"/><stop offset="0.16" stop-color="#bfc3c5"/><stop offset="0.42" stop-color="#a3a6a9"/><stop offset="0.72" stop-color="#96989a"/><stop offset="1.0" stop-color="#878a8b"/></linearGradient><linearGradient id="sheen116" x1="0" y1="0" x2="0" y2="1"><stop offset="0.0" stop-color="#acb0b2"/><stop offset="0.16" stop-color="#bfc3c5"/><stop offset="0.42" stop-color="#a3a6a9"/><stop offset="0.72" stop-color="#96989a"/><stop offset="1.0" stop-color="#878a8b"/></linearGradient><linearGradient id="sheen117" x1="0" y1="0" x2="0" y2="1"><stop offset="0.0" stop-color="#acb0b2"/><stop offset="0.16" stop-color="#bfc3c5"/><stop offset="0.42" stop-color="#a3a6a9"/><stop offset="0.72" stop-color="#96989a"/><stop offset="1.0" stop-color="#878a8b"/></linearGradient><linearGradient id="sheen118" x1="0" y1="0" x2="0" y2="1"><stop offset="0.0" stop-color="#929597"/><stop offset="0.16" stop-color="#a1a5a7"/><stop offset="0.42" stop-color="#8a8d8f"/><stop offset="0.72" stop-color="#7e8183"/><stop offset="1.0" stop-color="#727576"/></linearGradient><linearGradient id="sheen119" x1="0" y1="0" x2="0" y2="1"><stop offset="0.0" stop-color="#929597"/><stop offset="0.16" stop-color="#a1a5a7"/><stop offset="0.42" stop-color="#8a8d8f"/><stop offset="0.72" stop-color="#7e8183"/><stop offset="1.0" stop-color="#727576"/></linearGradient><linearGradient id="sheen120" x1="0" y1="0" x2="0" y2="1"><stop offset="0.0" stop-color="#929597"/><stop offset="0.16" stop-color="#a1a5a7"/><stop offset="0.42" stop-color="#8a8d8f"/><stop offset="0.72" stop-color="#7e8183"/><stop offset="1.0" stop-color="#727576"/></linearGradient><linearGradient id="sheen121" x1="0" y1="0" x2="0" y2="1"><stop offset="0.0" stop-color="#929597"/><stop offset="0.16" stop-color="#a1a5a7"/><stop offset="0.42" stop-color="#8a8d8f"/><stop offset="0.72" stop-color="#7e8183"/><stop offset="1.0" stop-color="#727576"/></linearGradient><linearGradient id="sheen122" x1="0" y1="0" x2="0" y2="1"><stop offset="0.0" stop-color="#929597"/><stop offset="0.16" stop-color="#a1a5a7"/><stop offset="0.42" stop-color="#8a8d8f"/><stop offset="0.72" stop-color="#7e8183"/><stop offset="1.0" stop-color="#727576"/></linearGradient><clipPath id="gc43160_14"><rect x="11" y="43" width="34" height="10"/></clipPath><linearGradient id="sheen123" x1="0" y1="0" x2="0" y2="1"><stop offset="0.0" stop-color="#929597"/><stop offset="0.16" stop-color="#a1a5a7"/><stop offset="0.42" stop-color="#8a8d8f"/><stop offset="0.72" stop-color="#7e8183"/><stop offset="1.0" stop-color="#727576"/></linearGradient><linearGradient id="sheen124" x1="0" y1="0" x2="0" y2="1"><stop offset="0.0" stop-color="#929597"/><stop offset="0.16" stop-color="#a1a5a7"/><stop offset="0.42" stop-color="#8a8d8f"/><stop offset="0.72" stop-color="#7e8183"/><stop offset="1.0" stop-color="#727576"/></linearGradient><linearGradient id="sheen125" x1="0" y1="0" x2="0" y2="1"><stop offset="0.0" stop-color="#929597"/><stop offset="0.16" stop-color="#a1a5a7"/><stop offset="0.42" stop-color="#8a8d8f"/><stop offset="0.72" stop-color="#7e8183"/><stop offset="1.0" stop-color="#727576"/></linearGradient><linearGradient id="sheen126" x1="0" y1="0" x2="0" y2="1"><stop offset="0.0" stop-color="#929597"/><stop offset="0.16" stop-color="#a1a5a7"/><stop offset="0.42" stop-color="#8a8d8f"/><stop offset="0.72" stop-color="#7e8183"/><stop offset="1.0" stop-color="#727576"/></linearGradient></defs>
  <g id="active-tab-topleft"><rect x="4" y="4" width="6" height="6" fill="url(#sheen109)"/><rect x="4" y="4" width="6" height="1" fill="#1a1a1a"/><rect x="4" y="4" width="1" height="6" fill="#1a1a1a"/><rect x="4" y="5" width="6" height="1" fill="#ffffff"/><rect x="5" y="4" width="1" height="6" fill="#ffffff"/></g>
  <g id="active-tab-top"><rect x="10" y="4" width="36" height="6" fill="url(#sheen110)"/><rect x="10" y="4" width="36" height="1" fill="#1a1a1a"/><rect x="10" y="5" width="36" height="1" fill="#ffffff"/></g>
  <g id="active-tab-topright"><rect x="46" y="4" width="6" height="6" fill="url(#sheen111)"/><rect x="46" y="4" width="6" height="1" fill="#1a1a1a"/><rect x="51" y="4" width="1" height="6" fill="#1a1a1a"/><rect x="46" y="5" width="6" height="1" fill="#ffffff"/><rect x="50" y="4" width="1" height="6" fill="#5c5e60"/></g>
  <g id="active-tab-left"><rect x="4" y="10" width="6" height="12" fill="url(#sheen112)"/><rect x="4" y="10" width="1" height="12" fill="#1a1a1a"/><rect x="5" y="10" width="1" height="12" fill="#ffffff"/></g>
  <g id="active-tab-center"><rect x="10" y="10" width="36" height="12" fill="url(#sheen113)"/><g clip-path="url(#gc11896_13)"><line x1="15" y1="15" x2="45" y2="19" stroke="#ffffff" stroke-opacity="0.106"/><line x1="13" y1="16" x2="40" y2="19" stroke="#000000" stroke-opacity="0.039"/></g></g>
  <g id="active-tab-right"><rect x="46" y="10" width="6" height="12" fill="url(#sheen114)"/><rect x="51" y="10" width="1" height="12" fill="#1a1a1a"/><rect x="50" y="10" width="1" height="12" fill="#5c5e60"/></g>
  <g id="active-tab-bottomleft"><rect x="4" y="22" width="6" height="6" fill="url(#sheen115)"/><rect x="4" y="27" width="6" height="1" fill="#1a1a1a"/><rect x="4" y="22" width="1" height="6" fill="#1a1a1a"/><rect x="5" y="22" width="1" height="6" fill="#ffffff"/><rect x="4" y="26" width="6" height="1" fill="#5c5e60"/></g>
  <g id="active-tab-bottom"><rect x="10" y="22" width="36" height="6" fill="url(#sheen116)"/><rect x="10" y="27" width="36" height="1" fill="#1a1a1a"/><rect x="10" y="26" width="36" height="1" fill="#5c5e60"/></g>
  <g id="active-tab-bottomright"><rect x="46" y="22" width="6" height="6" fill="url(#sheen117)"/><rect x="46" y="27" width="6" height="1" fill="#1a1a1a"/><rect x="51" y="22" width="1" height="6" fill="#1a1a1a"/><rect x="46" y="26" width="6" height="1" fill="#5c5e60"/><rect x="50" y="22" width="1" height="6" fill="#5c5e60"/></g>
  <g id="inactive-tab-topleft"><rect x="4" y="36" width="6" height="6" fill="url(#sheen118)"/><rect x="4" y="36" width="6" height="1" fill="#1a1a1a"/><rect x="4" y="36" width="1" height="6" fill="#1a1a1a"/><rect x="4" y="37" width="6" height="1" fill="#7a7c7e"/><rect x="5" y="36" width="1" height="6" fill="#7a7c7e"/></g>
  <g id="inactive-tab-top"><rect x="10" y="36" width="36" height="6" fill="url(#sheen119)"/><rect x="10" y="36" width="36" height="1" fill="#1a1a1a"/><rect x="10" y="37" width="36" height="1" fill="#7a7c7e"/></g>
  <g id="inactive-tab-topright"><rect x="46" y="36" width="6" height="6" fill="url(#sheen120)"/><rect x="46" y="36" width="6" height="1" fill="#1a1a1a"/><rect x="51" y="36" width="1" height="6" fill="#1a1a1a"/><rect x="46" y="37" width="6" height="1" fill="#7a7c7e"/><rect x="50" y="36" width="1" height="6" fill="#ffffff"/></g>
  <g id="inactive-tab-left"><rect x="4" y="42" width="6" height="12" fill="url(#sheen121)"/><rect x="4" y="42" width="1" height="12" fill="#1a1a1a"/><rect x="5" y="42" width="1" height="12" fill="#7a7c7e"/></g>
  <g id="inactive-tab-center"><rect x="10" y="42" width="36" height="12" fill="url(#sheen122)"/><g clip-path="url(#gc43160_14)"><line x1="16" y1="43" x2="39" y2="46" stroke="#000000" stroke-opacity="0.047"/><line x1="14" y1="46" x2="39" y2="49" stroke="#ffffff" stroke-opacity="0.102"/></g></g>
  <g id="inactive-tab-right"><rect x="46" y="42" width="6" height="12" fill="url(#sheen123)"/><rect x="51" y="42" width="1" height="12" fill="#1a1a1a"/><rect x="50" y="42" width="1" height="12" fill="#ffffff"/></g>
  <g id="inactive-tab-bottomleft"><rect x="4" y="54" width="6" height="6" fill="url(#sheen124)"/><rect x="4" y="59" width="6" height="1" fill="#1a1a1a"/><rect x="4" y="54" width="1" height="6" fill="#1a1a1a"/><rect x="5" y="54" width="1" height="6" fill="#7a7c7e"/><rect x="4" y="58" width="6" height="1" fill="#ffffff"/></g>
  <g id="inactive-tab-bottom"><rect x="10" y="54" width="36" height="6" fill="url(#sheen125)"/><rect x="10" y="59" width="36" height="1" fill="#1a1a1a"/><rect x="10" y="58" width="36" height="1" fill="#ffffff"/></g>
  <g id="inactive-tab-bottomright"><rect x="46" y="54" width="6" height="6" fill="url(#sheen126)"/><rect x="46" y="59" width="6" height="1" fill="#1a1a1a"/><rect x="51" y="54" width="1" height="6" fill="#1a1a1a"/><rect x="46" y="58" width="6" height="1" fill="#ffffff"/><rect x="50" y="54" width="1" height="6" fill="#ffffff"/></g>
</svg>
