<?xml version="1.0" encoding="UTF-8" standalone="no"?>
<svg xmlns="http://www.w3.org/2000/svg" width="60" height="132" viewBox="0 0 60 132">
  <defs><linearGradient id="sheen163" x1="0" y1="0" x2="0" y2="1"><stop offset="0.0" stop-color="#acb0b2"/><stop offset="0.16" stop-color="#bfc3c5"/><stop offset="0.42" stop-color="#a3a6a9"/><stop offset="0.72" stop-color="#96989a"/><stop offset="1.0" stop-color="#878a8b"/></linearGradient><linearGradient id="sheen164" x1="0" y1="0" x2="0" y2="1"><stop offset="0.0" stop-color="#acb0b2"/><stop offset="0.16" stop-color="#bfc3c5"/><stop offset="0.42" stop-color="#a3a6a9"/><stop offset="0.72" stop-color="#96989a"/><stop offset="1.0" stop-color="#878a8b"/></linearGradient><linearGradient id="sheen165" x1="0" y1="0" x2="0" y2="1"><stop offset="0.0" stop-color="#acb0b2"/><stop offset="0.16" stop-color="#bfc3c5"/><stop offset="0.42" stop-color="#a3a6a9"/><stop offset="0.72" stop-color="#96989a"/><stop offset="1.0" stop-color="#878a8b"/></linearGradient><linearGradient id="sheen166" x1="0" y1="0" x2="0" y2="1"><stop offset="0.0" stop-color="#acb0b2"/><stop offset="0.16" stop-color="#bfc3c5"/><stop offset="0.42" stop-color="#a3a6a9"/><stop offset="0.72" stop-color="#96989a"/><stop offset="1.0" stop-color="#878a8b"/></linearGradient><linearGradient id="sheen167" x1="0" y1="0" x2="0" y2="1"><stop offset="0.0" stop-color="#acb0b2"/><stop offset="0.16" stop-color="#bfc3c5"/><stop offset="0.42" stop-color="#a3a6a9"/><stop offset="0.72" stop-color="#96989a"/><stop offset="1.0" stop-color="#878a8b"/></linearGradient><linearGradient id="sheen168" x1="0" y1="0" x2="0" y2="1"><stop offset="0.0" stop-color="#acb0b2"/><stop offset="0.16" stop-color="#bfc3c5"/><stop offset="0.42" stop-color="#a3a6a9"/><stop offset="0.72" stop-color="#96989a"/><stop offset="1.0" stop-color="#878a8b"/></linearGradient><linearGradient id="sheen169" x1="0" y1="0" x2="0" y2="1"><stop offset="0.0" stop-color="#acb0b2"/><stop offset="0.16" stop-color="#bfc3c5"/><stop offset="0.42" stop-color="#a3a6a9"/><stop offset="0.72" stop-color="#96989a"/><stop offset="1.0" stop-color="#878a8b"/></linearGradient><linearGradient id="sheen170" x1="0" y1="0" x2="0" y2="1"><stop offset="0.0" stop-color="#acb0b2"/><stop offset="0.16" stop-color="#bfc3c5"/><stop offset="0.42" stop-color="#a3a6a9"/><stop offset="0.72" stop-color="#96989a"/><stop offset="1.0" stop-color="#878a8b"/></linearGradient><linearGradient id="sheen171" x1="0" y1="0" x2="0" y2="1"><stop offset="0.0" stop-color="#acb0b2"/><stop offset="0.16" stop-color="#bfc3c5"/><stop offset="0.42" stop-color="#a3a6a9"/><stop offset="0.72" stop-color="#96989a"/><stop offset="1.0" stop-color="#878a8b"/></linearGradient><linearGradient id="sheen172" x1="0" y1="0" x2="0" y2="1"><stop offset="0.0" stop-color="#babdc0"/><stop offset="0.16" stop-color="#ced2d4"/><stop offset="0.42" stop-color="#b0b3b5"/><stop offset="0.72" stop-color="#a1a4a6"/><stop offset="1.0" stop-color="#929496"/></linearGradient><linearGradient id="sheen173" x1="0" y1="0" x2="0" y2="1"><stop offset="0.0" stop-color="#babdc0"/><stop offset="0.16" stop-color="#ced2d4"/><stop offset="0.42" stop-color="#b0b3b5"/><stop offset="0.72" stop-color="#a1a4a6"/><stop offset="1.0" stop-color="#929496"/></linearGradient><linearGradient id="sheen174" x1="0" y1="0" x2="0" y2="1"><stop offset="0.0" stop-color="#babdc0"/><stop offset="0.16" stop-color="#ced2d4"/><stop offset="0.42" stop-color="#b0b3b5"/><stop offset="0.72" stop-color="#a1a4a6"/><stop offset="1.0" stop-color="#929496"/></linearGradient><linearGradient id="sheen175" x1="0" y1="0" x2="0" y2="1"><stop offset="0.0" stop-color="#babdc0"/><stop offset="0.16" stop-color="#ced2d4"/><stop offset="0.42" stop-color="#b0b3b5"/><stop offset="0.72" stop-color="#a1a4a6"/><stop offset="1.0" stop-color="#929496"/></linearGradient><linearGradient id="sheen176" x1="0" y1="0" x2="0" y2="1"><stop offset="0.0" stop-color="#babdc0"/><stop offset="0.16" stop-color="#ced2d4"/><stop offset="0.42" stop-color="#b0b3b5"/><stop offset="0.72" stop-color="#a1a4a6"/><stop offset="1.0" stop-color="#929496"/></linearGradient><linearGradient id="sheen177" x1="0" y1="0" x2="0" y2="1"><stop offset="0.0" stop-color="#babdc0"/><stop offset="0.16" stop-color="#ced2d4"/><stop offset="0.42" stop-color="#b0b3b5"/><stop offset="0.72" stop-color="#a1a4a6"/><stop offset="1.0" stop-color="#929496"/></linearGradient><linearGradient id="sheen178" x1="0" y1="0" x2="0" y2="1"><stop offset="0.0" stop-color="#babdc0"/><stop offset="0.16" stop-color="#ced2d4"/><stop offset="0.42" stop-color="#b0b3b5"/><stop offset="0.72" stop-color="#a1a4a6"/><stop offset="1.0" stop-color="#929496"/></linearGradient><linearGradient id="sheen179" x1="0" y1="0" x2="0" y2="1"><stop offset="0.0" stop-color="#babdc0"/><stop offset="0.16" stop-color="#ced2d4"/><stop offset="0.42" stop-color="#b0b3b5"/><stop offset="0.72" stop-color="#a1a4a6"/><stop offset="1.0" stop-color="#929496"/></linearGradient><linearGradient id="sheen180" x1="0" y1="0" x2="0" y2="1"><stop offset="0.0" stop-color="#babdc0"/><stop offset="0.16" stop-color="#ced2d4"/><stop offset="0.42" stop-color="#b0b3b5"/><stop offset="0.72" stop-color="#a1a4a6"/><stop offset="1.0" stop-color="#929496"/></linearGradient><linearGradient id="sheen181" x1="0" y1="0" x2="0" y2="1"><stop offset="0.0" stop-color="#cccccc"/><stop offset="0.16" stop-color="#e2e2e2"/><stop offset="0.42" stop-color="#c1c1c1"/><stop offset="0.72" stop-color="#b1b1b1"/><stop offset="1.0" stop-color="#a0a0a0"/></linearGradient><linearGradient id="sheen182" x1="0" y1="0" x2="0" y2="1"><stop offset="0.0" stop-color="#cccccc"/><stop offset="0.16" stop-color="#e2e2e2"/><stop offset="0.42" stop-color="#c1c1c1"/><stop offset="0.72" stop-color="#b1b1b1"/><stop offset="1.0" stop-color="#a0a0a0"/></linearGradient><linearGradient id="sheen183" x1="0" y1="0" x2="0" y2="1"><stop offset="0.0" stop-color="#cccccc"/><stop offset="0.16" stop-color="#e2e2e2"/><stop offset="0.42" stop-color="#c1c1c1"/><stop offset="0.72" stop-color="#b1b1b1"/><stop offset="1.0" stop-color="#a0a0a0"/></linearGradient><linearGradient id="sheen184" x1="0" y1="0" x2="0" y2="1"><stop offset="0.0" stop-color="#cccccc"/><stop offset="0.16" stop-color="#e2e2e2"/><stop offset="0.42" stop-color="#c1c1c1"/><stop offset="0.72" stop-color="#b1b1b1"/><stop offset="1.0" stop-color="#a0a0a0"/></linearGradient><linearGradient id="sheen185" x1="0" y1="0" x2="0" y2="1"><stop offset="0.0" stop-color="#cccccc"/><stop offset="0.16" stop-color="#e2e2e2"/><stop offset="0.42" stop-color="#c1c1c1"/><stop offset="0.72" stop-color="#b1b1b1"/><stop offset="1.0" stop-color="#a0a0a0"/></linearGradient><linearGradient id="sheen186" x1="0" y1="0" x2="0" y2="1"><stop offset="0.0" stop-color="#cccccc"/><stop offset="0.16" stop-color="#e2e2e2"/><stop offset="0.42" stop-color="#c1c1c1"/><stop offset="0.72" stop-color="#b1b1b1"/><stop offset="1.0" stop-color="#a0a0a0"/></linearGradient><linearGradient id="sheen187" x1="0" y1="0" x2="0" y2="1"><stop offset="0.0" stop-color="#cccccc"/><stop offset="0.16" stop-color="#e2e2e2"/><stop offset="0.42" stop-color="#c1c1c1"/><stop offset="0.72" stop-color="#b1b1b1"/><stop offset="1.0" stop-color="#a0a0a0"/></linearGradient><linearGradient id="sheen188" x1="0" y1="0" x2="0" y2="1"><stop offset="0.0" stop-color="#cccccc"/><stop offset="0.16" stop-color="#e2e2e2"/><stop offset="0.42" stop-color="#c1c1c1"/><stop offset="0.72" stop-color="#b1b1b1"/><stop offset="1.0" stop-color="#a0a0a0"/></linearGradient><linearGradient id="sheen189" x1="0" y1="0" x2="0" y2="1"><stop offset="0.0" stop-color="#cccccc"/><stop offset="0.16" stop-color="#e2e2e2"/><stop offset="0.42" stop-color="#c1c1c1"/><stop offset="0.72" stop-color="#b1b1b1"/><stop offset="1.0" stop-color="#a0a0a0"/></linearGradient><linearGradient id="sheen190" x1="0" y1="0" x2="0" y2="1"><stop offset="0.0" stop-color="#92959b"/><stop offset="0.16" stop-color="#a1a5ab"/><stop offset="0.42" stop-color="#8a8d92"/><stop offset="0.72" stop-color="#7e8186"/><stop offset="1.0" stop-color="#727579"/></linearGradient><linearGradient id="sheen191" x1="0" y1="0" x2="0" y2="1"><stop offset="0.0" stop-color="#92959b"/><stop offset="0.16" stop-color="#a1a5ab"/><stop offset="0.42" stop-color="#8a8d92"/><stop offset="0.72" stop-color="#7e8186"/><stop offset="1.0" stop-color="#727579"/></linearGradient><linearGradient id="sheen192" x1="0" y1="0" x2="0" y2="1"><stop offset="0.0" stop-color="#92959b"/><stop offset="0.16" stop-color="#a1a5ab"/><stop offset="0.42" stop-color="#8a8d92"/><stop offset="0.72" stop-color="#7e8186"/><stop offset="1.0" stop-color="#727579"/></linearGradient><linearGradient id="sheen193" x1="0" y1="0" x2="0" y2="1"><stop offset="0.0" stop-color="#92959b"/><stop offset="0.16" stop-color="#a1a5ab"/><stop offset="0.42" stop-color="#8a8d92"/><stop offset="0.72" stop-color="#7e8186"/><stop offset="1.0" stop-color="#727579"/></linearGradient><linearGradient id="sheen194" x1="0" y1="0" x2="0" y2="1"><stop offset="0.0" stop-color="#92959b"/><stop offset="0.16" stop-color="#a1a5ab"/><stop offset="0.42" stop-color="#8a8d92"/><stop offset="0.72" stop-color="#7e8186"/><stop offset="1.0" stop-color="#727579"/></linearGradient><linearGradient id="sheen195" x1="0" y1="0" x2="0" y2="1"><stop offset="0.0" stop-color="#92959b"/><stop offset="0.16" stop-color="#a1a5ab"/><stop offset="0.42" stop-color="#8a8d92"/><stop offset="0.72" stop-color="#7e8186"/><stop offset="1.0" stop-color="#727579"/></linearGradient><linearGradient id="sheen196" x1="0" y1="0" x2="0" y2="1"><stop offset="0.0" stop-color="#92959b"/><stop offset="0.16" stop-color="#a1a5ab"/><stop offset="0.42" stop-color="#8a8d92"/><stop offset="0.72" stop-color="#7e8186"/><stop offset="1.0" stop-color="#727579"/></linearGradient><linearGradient id="sheen197" x1="0" y1="0" x2="0" y2="1"><stop offset="0.0" stop-color="#92959b"/><stop offset="0.16" stop-color="#a1a5ab"/><stop offset="0.42" stop-color="#8a8d92"/><stop offset="0.72" stop-color="#7e8186"/><stop offset="1.0" stop-color="#727579"/></linearGradient><linearGradient id="sheen198" x1="0" y1="0" x2="0" y2="1"><stop offset="0.0" stop-color="#92959b"/><stop offset="0.16" stop-color="#a1a5ab"/><stop offset="0.42" stop-color="#8a8d92"/><stop offset="0.72" stop-color="#7e8186"/><stop offset="1.0" stop-color="#727579"/></linearGradient></defs>
  <g id="normal-topleft"><rect x="4" y="4" width="6" height="6" fill="url(#sheen163)"/><rect x="4" y="4" width="6" height="1" fill="#1a1a1a"/><rect x="4" y="4" width="1" height="6" fill="#1a1a1a"/><rect x="4" y="5" width="6" height="1" fill="#ffffff"/><rect x="5" y="4" width="1" height="6" fill="#ffffff"/></g>
  <g id="normal-top"><rect x="10" y="4" width="36" height="6" fill="url(#sheen164)"/><rect x="10" y="4" width="36" height="1" fill="#1a1a1a"/><rect x="10" y="5" width="36" height="1" fill="#ffffff"/></g>
  <g id="normal-topright"><rect x="46" y="4" width="6" height="6" fill="url(#sheen165)"/><rect x="46" y="4" width="6" height="1" fill="#1a1a1a"/><rect x="51" y="4" width="1" height="6" fill="#1a1a1a"/><rect x="46" y="5" width="6" height="1" fill="#ffffff"/><rect x="50" y="4" width="1" height="6" fill="#5c5e60"/></g>
  <g id="normal-left"><rect x="4" y="10" width="6" height="12" fill="url(#sheen166)"/><rect x="4" y="10" width="1" height="12" fill="#1a1a1a"/><rect x="5" y="10" width="1" height="12" fill="#ffffff"/></g>
  <g id="normal-center"><rect x="10" y="10" width="36" height="12" fill="url(#sheen167)"/><clipPath id="gc11896"><rect x="11" y="11" width="34" height="10"/></clipPath><g clip-path="url(#gc11896)"><line x1="15" y1="15" x2="45" y2="19" stroke="#ffffff" stroke-opacity="0.106"/><line x1="13" y1="16" x2="40" y2="19" stroke="#000000" stroke-opacity="0.039"/></g></g>
  <g id="normal-right"><rect x="46" y="10" width="6" height="12" fill="url(#sheen168)"/><rect x="51" y="10" width="1" height="12" fill="#1a1a1a"/><rect x="50" y="10" width="1" height="12" fill="#5c5e60"/></g>
  <g id="normal-bottomleft"><rect x="4" y="22" width="6" height="6" fill="url(#sheen169)"/><rect x="4" y="27" width="6" height="1" fill="#1a1a1a"/><rect x="4" y="22" width="1" height="6" fill="#1a1a1a"/><rect x="5" y="22" width="1" height="6" fill="#ffffff"/><rect x="4" y="26" width="6" height="1" fill="#5c5e60"/></g>
  <g id="normal-bottom"><rect x="10" y="22" width="36" height="6" fill="url(#sheen170)"/><rect x="10" y="27" width="36" height="1" fill="#1a1a1a"/><rect x="10" y="26" width="36" height="1" fill="#5c5e60"/></g>
  <g id="normal-bottomright"><rect x="46" y="22" width="6" height="6" fill="url(#sheen171)"/><rect x="46" y="27" width="6" height="1" fill="#1a1a1a"/><rect x="51" y="22" width="1" height="6" fill="#1a1a1a"/><rect x="46" y="26" width="6" height="1" fill="#5c5e60"/><rect x="50" y="22" width="1" height="6" fill="#5c5e60"/></g>
  <g id="hover-topleft"><rect x="4" y="36" width="6" height="6" fill="url(#sheen172)"/><rect x="4" y="36" width="6" height="1" fill="#1a1a1a"/><rect x="4" y="36" width="1" height="6" fill="#1a1a1a"/><rect x="4" y="37" width="6" height="1" fill="#ffffff"/><rect x="5" y="36" width="1" height="6" fill="#ffffff"/></g>
  <g id="hover-top"><rect x="10" y="36" width="36" height="6" fill="url(#sheen173)"/><rect x="10" y="36" width="36" height="1" fill="#1a1a1a"/><rect x="10" y="37" width="36" height="1" fill="#ffffff"/></g>
  <g id="hover-topright"><rect x="46" y="36" width="6" height="6" fill="url(#sheen174)"/><rect x="46" y="36" width="6" height="1" fill="#1a1a1a"/><rect x="51" y="36" width="1" height="6" fill="#1a1a1a"/><rect x="46" y="37" width="6" height="1" fill="#ffffff"/><rect x="50" y="36" width="1" height="6" fill="#5c5e60"/></g>
  <g id="hover-left"><rect x="4" y="42" width="6" height="12" fill="url(#sheen175)"/><rect x="4" y="42" width="1" height="12" fill="#1a1a1a"/><rect x="5" y="42" width="1" height="12" fill="#ffffff"/></g>
  <g id="hover-center"><rect x="10" y="42" width="36" height="12" fill="url(#sheen176)"/><clipPath id="gc43160"><rect x="11" y="43" width="34" height="10"/></clipPath><g clip-path="url(#gc43160)"><line x1="16" y1="43" x2="39" y2="46" stroke="#000000" stroke-opacity="0.047"/><line x1="14" y1="46" x2="39" y2="49" stroke="#ffffff" stroke-opacity="0.102"/></g></g>
  <g id="hover-right"><rect x="46" y="42" width="6" height="12" fill="url(#sheen177)"/><rect x="51" y="42" width="1" height="12" fill="#1a1a1a"/><rect x="50" y="42" width="1" height="12" fill="#5c5e60"/></g>
  <g id="hover-bottomleft"><rect x="4" y="54" width="6" height="6" fill="url(#sheen178)"/><rect x="4" y="59" width="6" height="1" fill="#1a1a1a"/><rect x="4" y="54" width="1" height="6" fill="#1a1a1a"/><rect x="5" y="54" width="1" height="6" fill="#ffffff"/><rect x="4" y="58" width="6" height="1" fill="#5c5e60"/></g>
  <g id="hover-bottom"><rect x="10" y="54" width="36" height="6" fill="url(#sheen179)"/><rect x="10" y="59" width="36" height="1" fill="#1a1a1a"/><rect x="10" y="58" width="36" height="1" fill="#5c5e60"/></g>
  <g id="hover-bottomright"><rect x="46" y="54" width="6" height="6" fill="url(#sheen180)"/><rect x="46" y="59" width="6" height="1" fill="#1a1a1a"/><rect x="51" y="54" width="1" height="6" fill="#1a1a1a"/><rect x="46" y="58" width="6" height="1" fill="#5c5e60"/><rect x="50" y="54" width="1" height="6" fill="#5c5e60"/></g>
  <g id="focus-topleft"><rect x="4" y="68" width="6" height="6" fill="url(#sheen181)"/><rect x="4" y="68" width="6" height="1" fill="#487697"/><rect x="4" y="68" width="1" height="6" fill="#487697"/><rect x="4" y="69" width="6" height="1" fill="#ffffff"/><rect x="5" y="68" width="1" height="6" fill="#ffffff"/></g>
  <g id="focus-top"><rect x="10" y="68" width="36" height="6" fill="url(#sheen182)"/><rect x="10" y="68" width="36" height="1" fill="#487697"/><rect x="10" y="69" width="36" height="1" fill="#ffffff"/></g>
  <g id="focus-topright"><rect x="46" y="68" width="6" height="6" fill="url(#sheen183)"/><rect x="46" y="68" width="6" height="1" fill="#487697"/><rect x="51" y="68" width="1" height="6" fill="#487697"/><rect x="46" y="69" width="6" height="1" fill="#ffffff"/><rect x="50" y="68" width="1" height="6" fill="#5c5e60"/></g>
  <g id="focus-left"><rect x="4" y="74" width="6" height="12" fill="url(#sheen184)"/><rect x="4" y="74" width="1" height="12" fill="#487697"/><rect x="5" y="74" width="1" height="12" fill="#ffffff"/></g>
  <g id="focus-center"><rect x="10" y="74" width="36" height="12" fill="url(#sheen185)"/><clipPath id="gc8888"><rect x="11" y="75" width="34" height="10"/></clipPath><g clip-path="url(#gc8888)"><line x1="12" y1="75" x2="45" y2="79" stroke="#ffffff" stroke-opacity="0.110"/><line x1="16" y1="80" x2="43" y2="83" stroke="#ffffff" stroke-opacity="0.114"/><line x1="11" y1="83" x2="45" y2="87" stroke="#ffffff" stroke-opacity="0.082"/></g></g>
  <g id="focus-right"><rect x="46" y="74" width="6" height="12" fill="url(#sheen186)"/><rect x="51" y="74" width="1" height="12" fill="#487697"/><rect x="50" y="74" width="1" height="12" fill="#5c5e60"/></g>
  <g id="focus-bottomleft"><rect x="4" y="86" width="6" height="6" fill="url(#sheen187)"/><rect x="4" y="91" width="6" height="1" fill="#487697"/><rect x="4" y="86" width="1" height="6" fill="#487697"/><rect x="5" y="86" width="1" height="6" fill="#ffffff"/><rect x="4" y="90" width="6" height="1" fill="#5c5e60"/></g>
  <g id="focus-bottom"><rect x="10" y="86" width="36" height="6" fill="url(#sheen188)"/><rect x="10" y="91" width="36" height="1" fill="#487697"/><rect x="10" y="90" width="36" height="1" fill="#5c5e60"/></g>
  <g id="focus-bottomright"><rect x="46" y="86" width="6" height="6" fill="url(#sheen189)"/><rect x="46" y="91" width="6" height="1" fill="#487697"/><rect x="51" y="86" width="1" height="6" fill="#487697"/><rect x="46" y="90" width="6" height="1" fill="#5c5e60"/><rect x="50" y="86" width="1" height="6" fill="#5c5e60"/></g>
  <g id="pressed-topleft"><rect x="4" y="100" width="6" height="6" fill="url(#sheen190)"/><rect x="4" y="100" width="6" height="1" fill="#1a1a1a"/><rect x="4" y="100" width="1" height="6" fill="#1a1a1a"/><rect x="4" y="101" width="6" height="1" fill="#7a7c7e"/><rect x="5" y="100" width="1" height="6" fill="#7a7c7e"/></g>
  <g id="pressed-top"><rect x="10" y="100" width="36" height="6" fill="url(#sheen191)"/><rect x="10" y="100" width="36" height="1" fill="#1a1a1a"/><rect x="10" y="101" width="36" height="1" fill="#7a7c7e"/></g>
  <g id="pressed-topright"><rect x="46" y="100" width="6" height="6" fill="url(#sheen192)"/><rect x="46" y="100" width="6" height="1" fill="#1a1a1a"/><rect x="51" y="100" width="1" height="6" fill="#1a1a1a"/><rect x="46" y="101" width="6" height="1" fill="#7a7c7e"/><rect x="50" y="100" width="1" height="6" fill="#ffffff"/></g>
  <g id="pressed-left"><rect x="4" y="106" width="6" height="12" fill="url(#sheen193)"/><rect x="4" y="106" width="1" height="12" fill="#1a1a1a"/><rect x="5" y="106" width="1" height="12" fill="#7a7c7e"/></g>
  <g id="pressed-center"><rect x="10" y="106" width="36" height="12" fill="url(#sheen194)"/><clipPath id="gc40152"><rect x="11" y="107" width="34" height="10"/></clipPath><g clip-path="url(#gc40152)"><line x1="11" y1="107" x2="43" y2="111" stroke="#ffffff" stroke-opacity="0.094"/><line x1="11" y1="110" x2="43" y2="114" stroke="#000000" stroke-opacity="0.047"/><line x1="16" y1="113" x2="42" y2="116" stroke="#ffffff" stroke-opacity="0.106"/><line x1="12" y1="115" x2="44" y2="119" stroke="#000000" stroke-opacity="0.067"/></g></g>
  <g id="pressed-right"><rect x="46" y="106" width="6" height="12" fill="url(#sheen195)"/><rect x="51" y="106" width="1" height="12" fill="#1a1a1a"/><rect x="50" y="106" width="1" height="12" fill="#ffffff"/></g>
  <g id="pressed-bottomleft"><rect x="4" y="118" width="6" height="6" fill="url(#sheen196)"/><rect x="4" y="123" width="6" height="1" fill="#1a1a1a"/><rect x="4" y="118" width="1" height="6" fill="#1a1a1a"/><rect x="5" y="118" width="1" height="6" fill="#7a7c7e"/><rect x="4" y="122" width="6" height="1" fill="#ffffff"/></g>
  <g id="pressed-bottom"><rect x="10" y="118" width="36" height="6" fill="url(#sheen197)"/><rect x="10" y="123" width="36" height="1" fill="#1a1a1a"/><rect x="10" y="122" width="36" height="1" fill="#ffffff"/></g>
  <g id="pressed-bottomright"><rect x="46" y="118" width="6" height="6" fill="url(#sheen198)"/><rect x="46" y="123" width="6" height="1" fill="#1a1a1a"/><rect x="51" y="118" width="1" height="6" fill="#1a1a1a"/><rect x="46" y="122" width="6" height="1" fill="#ffffff"/><rect x="50" y="118" width="1" height="6" fill="#ffffff"/></g>
</svg>
