<?xml version="1.0" encoding="UTF-8" standalone="no"?>
<svg xmlns="http://www.w3.org/2000/svg" width="68" height="48" viewBox="0 0 68 48">
  <defs><linearGradient id="sheen100" x1="0" y1="0" x2="0" y2="1"><stop offset="0.0" stop-color="#e2e0d9"/><stop offset="0.16" stop-color="#faf8f1"/><stop offset="0.42" stop-color="#d6d4ce"/><stop offset="0.72" stop-color="#c4c2bc"/><stop offset="1.0" stop-color="#b1afaa"/></linearGradient><linearGradient id="sheen101" x1="0" y1="0" x2="0" y2="1"><stop offset="0.0" stop-color="#e2e0d9"/><stop offset="0.16" stop-color="#faf8f1"/><stop offset="0.42" stop-color="#d6d4ce"/><stop offset="0.72" stop-color="#c4c2bc"/><stop offset="1.0" stop-color="#b1afaa"/></linearGradient><linearGradient id="sheen102" x1="0" y1="0" x2="0" y2="1"><stop offset="0.0" stop-color="#e2e0d9"/><stop offset="0.16" stop-color="#faf8f1"/><stop offset="0.42" stop-color="#d6d4ce"/><stop offset="0.72" stop-color="#c4c2bc"/><stop offset="1.0" stop-color="#b1afaa"/></linearGradient><linearGradient id="sheen103" x1="0" y1="0" x2="0" y2="1"><stop offset="0.0" stop-color="#e2e0d9"/><stop offset="0.16" stop-color="#faf8f1"/><stop offset="0.42" stop-color="#d6d4ce"/><stop offset="0.72" stop-color="#c4c2bc"/><stop offset="1.0" stop-color="#b1afaa"/></linearGradient><linearGradient id="sheen104" x1="0" y1="0" x2="0" y2="1"><stop offset="0.0" stop-color="#e2e0d9"/><stop offset="0.16" stop-color="#faf8f1"/><stop offset="0.42" stop-color="#d6d4ce"/><stop offset="0.72" stop-color="#c4c2bc"/><stop offset="1.0" stop-color="#b1afaa"/></linearGradient><linearGradient id="sheen105" x1="0" y1="0" x2="0" y2="1"><stop offset="0.0" stop-color="#e2e0d9"/><stop offset="0.16" stop-color="#faf8f1"/><stop offset="0.42" stop-color="#d6d4ce"/><stop offset="0.72" stop-color="#c4c2bc"/><stop offset="1.0" stop-color="#b1afaa"/></linearGradient><linearGradient id="sheen106" x1="0" y1="0" x2="0" y2="1"><stop offset="0.0" stop-color="#e2e0d9"/><stop offset="0.16" stop-color="#faf8f1"/><stop offset="0.42" stop-color="#d6d4ce"/><stop offset="0.72" stop-color="#c4c2bc"/><stop offset="1.0" stop-color="#b1afaa"/></linearGradient><linearGradient id="sheen107" x1="0" y1="0" x2="0" y2="1"><stop offset="0.0" stop-color="#e2e0d9"/><stop offset="0.16" stop-color="#faf8f1"/><stop offset="0.42" stop-color="#d6d4ce"/><stop offset="0.72" stop-color="#c4c2bc"/><stop offset="1.0" stop-color="#b1afaa"/></linearGradient><linearGradient id="sheen108" x1="0" y1="0" x2="0" y2="1"><stop offset="0.0" stop-color="#e2e0d9"/><stop offset="0.16" stop-color="#faf8f1"/><stop offset="0.42" stop-color="#d6d4ce"/><stop offset="0.72" stop-color="#c4c2bc"/><stop offset="1.0" stop-color="#b1afaa"/></linearGradient></defs>
  <g id="topleft"><rect x="4" y="4" width="6" height="6" fill="url(#sheen100)"/><rect x="4" y="4" width="6" height="1" fill="#1a1a1a"/><rect x="4" y="4" width="1" height="6" fill="#1a1a1a"/><rect x="4" y="5" width="6" height="1" fill="#ffffff"/><rect x="5" y="4" width="1" height="6" fill="#ffffff"/></g>
  <g id="top"><rect x="10" y="4" width="44" height="6" fill="url(#sheen101)"/><rect x="10" y="4" width="44" height="1" fill="#1a1a1a"/><rect x="10" y="5" width="44" height="1" fill="#ffffff"/></g>
  <g id="topright"><rect x="54" y="4" width="6" height="6" fill="url(#sheen102)"/><rect x="54" y="4" width="6" height="1" fill="#1a1a1a"/><rect x="59" y="4" width="1" height="6" fill="#1a1a1a"/><rect x="54" y="5" width="6" height="1" fill="#ffffff"/><rect x="58" y="4" width="1" height="6" fill="#5c5e60"/></g>
  <g id="left"><rect x="4" y="10" width="6" height="24" fill="url(#sheen103)"/><rect x="4" y="10" width="1" height="24" fill="#1a1a1a"/><rect x="5" y="10" width="1" height="24" fill="#ffffff"/></g>
  <g id="center"><rect x="10" y="10" width="44" height="24" fill="url(#sheen104)"/><clipPath id="gc12348_12"><rect x="11" y="11" width="42" height="22"/></clipPath><g clip-path="url(#gc12348_12)"><line x1="13" y1="15" x2="45" y2="19" stroke="#ffffff" stroke-opacity="0.082"/><line x1="16" y1="16" x2="52" y2="20" stroke="#ffffff" stroke-opacity="0.090"/><line x1="19" y1="17" x2="49" y2="21" stroke="#ffffff" stroke-opacity="0.114"/><line x1="16" y1="24" x2="52" y2="28" stroke="#000000" stroke-opacity="0.043"/><line x1="12" y1="25" x2="51" y2="30" stroke="#000000" stroke-opacity="0.051"/><line x1="16" y1="27" x2="53" y2="31" stroke="#ffffff" stroke-opacity="0.129"/></g></g>
  <g id="right"><rect x="54" y="10" width="6" height="24" fill="url(#sheen105)"/><rect x="59" y="10" width="1" height="24" fill="#1a1a1a"/><rect x="58" y="10" width="1" height="24" fill="#5c5e60"/></g>
  <g id="bottomleft"><rect x="4" y="34" width="6" height="6" fill="url(#sheen106)"/><rect x="4" y="39" width="6" height="1" fill="#1a1a1a"/><rect x="4" y="34" width="1" height="6" fill="#1a1a1a"/><rect x="5" y="34" width="1" height="6" fill="#ffffff"/><rect x="4" y="38" width="6" height="1" fill="#5c5e60"/></g>
  <g id="bottom"><rect x="10" y="34" width="44" height="6" fill="url(#sheen107)"/><rect x="10" y="39" width="44" height="1" fill="#1a1a1a"/><rect x="10" y="38" width="44" height="1" fill="#5c5e60"/></g>
  <g id="bottomright"><rect x="54" y="34" width="6" height="6" fill="url(#sheen108)"/><rect x="54" y="39" width="6" height="1" fill="#1a1a1a"/><rect x="59" y="34" width="1" height="6" fill="#1a1a1a"/><rect x="54" y="38" width="6" height="1" fill="#5c5e60"/><rect x="58" y="34" width="1" height="6" fill="#5c5e60"/></g>
</svg>
