<?xml version="1.0" encoding="UTF-8" standalone="no"?>
<svg xmlns="http://www.w3.org/2000/svg" width="68" height="48" viewBox="0 0 68 48">
  <g id="topleft"><rect x="4" y="4" width="6" height="6" fill="#e9e8e2"/><rect x="4" y="4" width="6" height="1" fill="#1a1a1a"/><rect x="4" y="4" width="1" height="6" fill="#1a1a1a"/><rect x="4" y="5" width="6" height="1" fill="#ffffff"/><rect x="5" y="4" width="1" height="6" fill="#ffffff"/></g>
  <g id="top"><rect x="10" y="4" width="44" height="6" fill="#e9e8e2"/><rect x="10" y="4" width="44" height="1" fill="#1a1a1a"/><rect x="10" y="5" width="44" height="1" fill="#ffffff"/></g>
  <g id="topright"><rect x="54" y="4" width="6" height="6" fill="#e9e8e2"/><rect x="54" y="4" width="6" height="1" fill="#1a1a1a"/><rect x="59" y="4" width="1" height="6" fill="#1a1a1a"/><rect x="54" y="5" width="6" height="1" fill="#ffffff"/><rect x="58" y="4" width="1" height="6" fill="#7c8188"/></g>
  <g id="left"><rect x="4" y="10" width="6" height="24" fill="#e9e8e2"/><rect x="4" y="10" width="1" height="24" fill="#1a1a1a"/><rect x="5" y="10" width="1" height="24" fill="#ffffff"/></g>
  <g id="center"><rect x="10" y="10" width="44" height="24" fill="#e9e8e2"/><rect x="12" y="12" width="40" height="1" fill="#ffffff" fill-opacity="0.10"/><rect x="12" y="13" width="40" height="1" fill="#000000" fill-opacity="0.055"/><rect x="12" y="15" width="40" height="1" fill="#ffffff" fill-opacity="0.10"/><rect x="12" y="16" width="40" height="1" fill="#000000" fill-opacity="0.055"/><rect x="12" y="18" width="40" height="1" fill="#ffffff" fill-opacity="0.10"/><rect x="12" y="19" width="40" height="1" fill="#000000" fill-opacity="0.055"/><rect x="12" y="21" width="40" height="1" fill="#ffffff" fill-opacity="0.10"/><rect x="12" y="22" width="40" height="1" fill="#000000" fill-opacity="0.055"/><rect x="12" y="24" width="40" height="1" fill="#ffffff" fill-opacity="0.10"/><rect x="12" y="25" width="40" height="1" fill="#000000" fill-opacity="0.055"/><rect x="12" y="27" width="40" height="1" fill="#ffffff" fill-opacity="0.10"/><rect x="12" y="28" width="40" height="1" fill="#000000" fill-opacity="0.055"/><rect x="12" y="30" width="40" height="1" fill="#ffffff" fill-opacity="0.10"/><rect x="12" y="31" width="40" height="1" fill="#000000" fill-opacity="0.055"/></g>
  <g id="right"><rect x="54" y="10" width="6" height="24" fill="#e9e8e2"/><rect x="59" y="10" width="1" height="24" fill="#1a1a1a"/><rect x="58" y="10" width="1" height="24" fill="#7c8188"/></g>
  <g id="bottomleft"><rect x="4" y="34" width="6" height="6" fill="#e9e8e2"/><rect x="4" y="39" width="6" height="1" fill="#1a1a1a"/><rect x="4" y="34" width="1" height="6" fill="#1a1a1a"/><rect x="5" y="34" width="1" height="6" fill="#ffffff"/><rect x="4" y="38" width="6" height="1" fill="#7c8188"/></g>
  <g id="bottom"><rect x="10" y="34" width="44" height="6" fill="#e9e8e2"/><rect x="10" y="39" width="44" height="1" fill="#1a1a1a"/><rect x="10" y="38" width="44" height="1" fill="#7c8188"/></g>
  <g id="bottomright"><rect x="54" y="34" width="6" height="6" fill="#e9e8e2"/><rect x="54" y="39" width="6" height="1" fill="#1a1a1a"/><rect x="59" y="34" width="1" height="6" fill="#1a1a1a"/><rect x="54" y="38" width="6" height="1" fill="#7c8188"/><rect x="58" y="34" width="1" height="6" fill="#7c8188"/></g>
</svg>
