<?xml version="1.0" encoding="UTF-8" standalone="no"?>
<svg xmlns="http://www.w3.org/2000/svg" version="1.1" width="400" height="400">
  <!-- NeXTSTEP Aurorae decoration, zirconium (brushed-metal) variant: contiguous
       column-aligned 3x3 grid, corners == edge width (no gutter). 2px side frame,
       uniform raised resize bar, with a fine horizontal brushed-aluminum streak
       overlay on every flat chrome surface. Active grid at (10,10); inactive
       +200px; maximized below. -->

  <!-- ===================== ACTIVE ===================== -->
  <g id="decoration-topleft" transform="translate(10,10)">
    <rect x="0" y="0" width="1" height="24" fill="#1a1a1a"/>
    <rect x="1" y="0" width="1" height="24" fill="#cacdd1"/>
    <rect x="1" y="0" width="1" height="1" fill="#1a1a1a"/>
    <rect x="1" y="1" width="1" height="1" fill="#ffffff"/>
    <rect x="1" y="22" width="1" height="1" fill="#7c8188"/>
    <rect x="1" y="23" width="1" height="1" fill="#1a1a1a"/>
  </g>

  <g id="decoration-top" transform="translate(12,10)">
    <rect x="0" y="0" width="20" height="24" fill="#cacdd1"/>
    <rect x="0" y="4" width="20" height="1" fill="#ffffff" fill-opacity="0.35"/>
    <rect x="0" y="7" width="20" height="1" fill="#000000" fill-opacity="0.05"/>
    <rect x="0" y="10" width="20" height="1" fill="#ffffff" fill-opacity="0.35"/>
    <rect x="0" y="13" width="20" height="1" fill="#000000" fill-opacity="0.05"/>
    <rect x="0" y="16" width="20" height="1" fill="#ffffff" fill-opacity="0.35"/>
    <rect x="0" y="19" width="20" height="1" fill="#000000" fill-opacity="0.05"/>
    <rect x="0" y="0" width="20" height="1" fill="#1a1a1a"/>
    <rect x="0" y="1" width="20" height="1" fill="#ffffff"/>
    <rect x="0" y="22" width="20" height="1" fill="#7c8188"/>
    <rect x="0" y="23" width="20" height="1" fill="#1a1a1a"/>
  </g>

  <g id="decoration-topright" transform="translate(32,10)">
    <rect x="1" y="0" width="1" height="24" fill="#1a1a1a"/>
    <rect x="0" y="0" width="1" height="24" fill="#cacdd1"/>
    <rect x="0" y="0" width="1" height="1" fill="#1a1a1a"/>
    <rect x="0" y="1" width="1" height="1" fill="#ffffff"/>
    <rect x="0" y="22" width="1" height="1" fill="#7c8188"/>
    <rect x="0" y="23" width="1" height="1" fill="#1a1a1a"/>
  </g>

  <g id="decoration-left" transform="translate(10,34)">
    <rect x="0" y="0" width="1" height="20" fill="#1a1a1a"/>
    <rect x="1" y="0" width="1" height="20" fill="#7c8188"/>
  </g>

  <g id="decoration-center" transform="translate(12,34)">
    <rect x="0" y="0" width="20" height="20" fill="#cacdd1"/>
    <rect x="0" y="3" width="20" height="1" fill="#ffffff" fill-opacity="0.30"/>
    <rect x="0" y="6" width="20" height="1" fill="#000000" fill-opacity="0.045"/>
    <rect x="0" y="9" width="20" height="1" fill="#ffffff" fill-opacity="0.30"/>
    <rect x="0" y="12" width="20" height="1" fill="#000000" fill-opacity="0.045"/>
    <rect x="0" y="15" width="20" height="1" fill="#ffffff" fill-opacity="0.30"/>
    <rect x="0" y="18" width="20" height="1" fill="#000000" fill-opacity="0.045"/>
  </g>

  <g id="decoration-right" transform="translate(32,34)">
    <rect x="1" y="0" width="1" height="20" fill="#1a1a1a"/>
    <rect x="0" y="0" width="1" height="20" fill="#7c8188"/>
  </g>

  <g id="decoration-bottomleft" transform="translate(10,54)">
    <rect x="0" y="0" width="1" height="8" fill="#1a1a1a"/>
    <rect x="1" y="0" width="1" height="8" fill="#cacdd1"/>
    <rect x="1" y="0" width="1" height="1" fill="#7c8188"/>
    <rect x="1" y="6" width="1" height="1" fill="#7c8188"/>
    <rect x="1" y="7" width="1" height="1" fill="#1a1a1a"/>
  </g>

  <g id="decoration-bottom" transform="translate(12,54)">
    <rect x="0" y="0" width="20" height="8" fill="#cacdd1"/>
    <rect x="0" y="3" width="20" height="1" fill="#ffffff" fill-opacity="0.30"/>
    <rect x="0" y="4" width="20" height="1" fill="#000000" fill-opacity="0.045"/>
    <rect x="0" y="0" width="20" height="1" fill="#7c8188"/>
    <rect x="0" y="6" width="20" height="1" fill="#7c8188"/>
    <rect x="0" y="7" width="20" height="1" fill="#1a1a1a"/>
  </g>

  <g id="decoration-bottomright" transform="translate(32,54)">
    <rect x="1" y="0" width="1" height="8" fill="#1a1a1a"/>
    <rect x="0" y="0" width="1" height="8" fill="#cacdd1"/>
    <rect x="0" y="0" width="1" height="1" fill="#7c8188"/>
    <rect x="0" y="6" width="1" height="1" fill="#7c8188"/>
    <rect x="0" y="7" width="1" height="1" fill="#1a1a1a"/>
  </g>

  <!-- ===================== INACTIVE ===================== -->
  <g id="decoration-inactive-topleft" transform="translate(210,10)">
    <rect x="0" y="0" width="1" height="24" fill="#494949"/>
    <rect x="1" y="0" width="1" height="24" fill="#c7c7c7"/>
    <rect x="1" y="0" width="1" height="1" fill="#494949"/>
    <rect x="1" y="1" width="1" height="1" fill="#e6e6e6"/>
    <rect x="1" y="22" width="1" height="1" fill="#999999"/>
    <rect x="1" y="23" width="1" height="1" fill="#494949"/>
  </g>

  <g id="decoration-inactive-top" transform="translate(212,10)">
    <rect x="0" y="0" width="20" height="24" fill="#c7c7c7"/>
    <rect x="0" y="4" width="20" height="1" fill="#ffffff" fill-opacity="0.25"/>
    <rect x="0" y="7" width="20" height="1" fill="#000000" fill-opacity="0.04"/>
    <rect x="0" y="10" width="20" height="1" fill="#ffffff" fill-opacity="0.25"/>
    <rect x="0" y="13" width="20" height="1" fill="#000000" fill-opacity="0.04"/>
    <rect x="0" y="16" width="20" height="1" fill="#ffffff" fill-opacity="0.25"/>
    <rect x="0" y="19" width="20" height="1" fill="#000000" fill-opacity="0.04"/>
    <rect x="0" y="0" width="20" height="1" fill="#494949"/>
    <rect x="0" y="1" width="20" height="1" fill="#e6e6e6"/>
    <rect x="0" y="22" width="20" height="1" fill="#999999"/>
    <rect x="0" y="23" width="20" height="1" fill="#494949"/>
  </g>

  <g id="decoration-inactive-topright" transform="translate(232,10)">
    <rect x="1" y="0" width="1" height="24" fill="#494949"/>
    <rect x="0" y="0" width="1" height="24" fill="#c7c7c7"/>
    <rect x="0" y="0" width="1" height="1" fill="#494949"/>
    <rect x="0" y="1" width="1" height="1" fill="#e6e6e6"/>
    <rect x="0" y="22" width="1" height="1" fill="#999999"/>
    <rect x="0" y="23" width="1" height="1" fill="#494949"/>
  </g>

  <g id="decoration-inactive-left" transform="translate(210,34)">
    <rect x="0" y="0" width="1" height="20" fill="#494949"/>
    <rect x="1" y="0" width="1" height="20" fill="#999999"/>
  </g>

  <g id="decoration-inactive-center" transform="translate(212,34)">
    <rect x="0" y="0" width="20" height="20" fill="#c7c7c7"/>
    <rect x="0" y="3" width="20" height="1" fill="#ffffff" fill-opacity="0.22"/>
    <rect x="0" y="6" width="20" height="1" fill="#000000" fill-opacity="0.035"/>
    <rect x="0" y="9" width="20" height="1" fill="#ffffff" fill-opacity="0.22"/>
    <rect x="0" y="12" width="20" height="1" fill="#000000" fill-opacity="0.035"/>
    <rect x="0" y="15" width="20" height="1" fill="#ffffff" fill-opacity="0.22"/>
    <rect x="0" y="18" width="20" height="1" fill="#000000" fill-opacity="0.035"/>
  </g>

  <g id="decoration-inactive-right" transform="translate(232,34)">
    <rect x="1" y="0" width="1" height="20" fill="#494949"/>
    <rect x="0" y="0" width="1" height="20" fill="#999999"/>
  </g>

  <g id="decoration-inactive-bottomleft" transform="translate(210,54)">
    <rect x="0" y="0" width="1" height="8" fill="#494949"/>
    <rect x="1" y="0" width="1" height="8" fill="#c7c7c7"/>
    <rect x="1" y="0" width="1" height="1" fill="#999999"/>
    <rect x="1" y="6" width="1" height="1" fill="#999999"/>
    <rect x="1" y="7" width="1" height="1" fill="#494949"/>
  </g>

  <g id="decoration-inactive-bottom" transform="translate(212,54)">
    <rect x="0" y="0" width="20" height="8" fill="#c7c7c7"/>
    <rect x="0" y="3" width="20" height="1" fill="#ffffff" fill-opacity="0.22"/>
    <rect x="0" y="4" width="20" height="1" fill="#000000" fill-opacity="0.035"/>
    <rect x="0" y="0" width="20" height="1" fill="#999999"/>
    <rect x="0" y="6" width="20" height="1" fill="#999999"/>
    <rect x="0" y="7" width="20" height="1" fill="#494949"/>
  </g>

  <g id="decoration-inactive-bottomright" transform="translate(232,54)">
    <rect x="1" y="0" width="1" height="8" fill="#494949"/>
    <rect x="0" y="0" width="1" height="8" fill="#c7c7c7"/>
    <rect x="0" y="0" width="1" height="1" fill="#999999"/>
    <rect x="0" y="6" width="1" height="1" fill="#999999"/>
    <rect x="0" y="7" width="1" height="1" fill="#494949"/>
  </g>

  <!-- ============ MAXIMIZED (center-only, opaque) ============ -->
  <g id="decoration-maximized-center" transform="translate(10,150)">
    <rect x="0" y="0" width="40" height="24" fill="#cacdd1"/>
    <rect x="0" y="4" width="40" height="1" fill="#ffffff" fill-opacity="0.35"/>
    <rect x="0" y="7" width="40" height="1" fill="#000000" fill-opacity="0.05"/>
    <rect x="0" y="10" width="40" height="1" fill="#ffffff" fill-opacity="0.35"/>
    <rect x="0" y="13" width="40" height="1" fill="#000000" fill-opacity="0.05"/>
    <rect x="0" y="16" width="40" height="1" fill="#ffffff" fill-opacity="0.35"/>
    <rect x="0" y="19" width="40" height="1" fill="#000000" fill-opacity="0.05"/>
    <rect x="0" y="0" width="40" height="1" fill="#ffffff"/>
    <rect x="0" y="23" width="40" height="1" fill="#1a1a1a"/>
  </g>
  <g id="decoration-maximized-opaque-center" transform="translate(60,150)">
    <rect x="0" y="0" width="40" height="24" fill="#cacdd1"/>
    <rect x="0" y="4" width="40" height="1" fill="#ffffff" fill-opacity="0.35"/>
    <rect x="0" y="7" width="40" height="1" fill="#000000" fill-opacity="0.05"/>
    <rect x="0" y="10" width="40" height="1" fill="#ffffff" fill-opacity="0.35"/>
    <rect x="0" y="13" width="40" height="1" fill="#000000" fill-opacity="0.05"/>
    <rect x="0" y="16" width="40" height="1" fill="#ffffff" fill-opacity="0.35"/>
    <rect x="0" y="19" width="40" height="1" fill="#000000" fill-opacity="0.05"/>
    <rect x="0" y="0" width="40" height="1" fill="#ffffff"/>
    <rect x="0" y="23" width="40" height="1" fill="#1a1a1a"/>
  </g>
  <g id="decoration-maximized-inactive-center" transform="translate(10,190)">
    <rect x="0" y="0" width="40" height="24" fill="#c7c7c7"/>
    <rect x="0" y="4" width="40" height="1" fill="#ffffff" fill-opacity="0.25"/>
    <rect x="0" y="7" width="40" height="1" fill="#000000" fill-opacity="0.04"/>
    <rect x="0" y="10" width="40" height="1" fill="#ffffff" fill-opacity="0.25"/>
    <rect x="0" y="13" width="40" height="1" fill="#000000" fill-opacity="0.04"/>
    <rect x="0" y="16" width="40" height="1" fill="#ffffff" fill-opacity="0.25"/>
    <rect x="0" y="19" width="40" height="1" fill="#000000" fill-opacity="0.04"/>
    <rect x="0" y="0" width="40" height="1" fill="#e6e6e6"/>
    <rect x="0" y="23" width="40" height="1" fill="#494949"/>
  </g>
  <g id="decoration-maximized-opaque-inactive-center" transform="translate(60,190)">
    <rect x="0" y="0" width="40" height="24" fill="#c7c7c7"/>
    <rect x="0" y="4" width="40" height="1" fill="#ffffff" fill-opacity="0.25"/>
    <rect x="0" y="7" width="40" height="1" fill="#000000" fill-opacity="0.04"/>
    <rect x="0" y="10" width="40" height="1" fill="#ffffff" fill-opacity="0.25"/>
    <rect x="0" y="13" width="40" height="1" fill="#000000" fill-opacity="0.04"/>
    <rect x="0" y="16" width="40" height="1" fill="#ffffff" fill-opacity="0.25"/>
    <rect x="0" y="19" width="40" height="1" fill="#000000" fill-opacity="0.04"/>
    <rect x="0" y="0" width="40" height="1" fill="#e6e6e6"/>
    <rect x="0" y="23" width="40" height="1" fill="#494949"/>
  </g>
</svg>
