<?xml version="1.0" encoding="UTF-8" standalone="no"?>
<svg xmlns="http://www.w3.org/2000/svg" version="1.1" width="400" height="400">
  <!-- NeXTSTEP Aurorae decoration, zirconium (brushed-metal) variant: contiguous
       column-aligned 3x3 grid, corners == edge width (no gutter). 2px side frame,
       uniform raised resize bar, with a soft metal-sheen gradient and irregular
       angled brushed-aluminum grain on the title bar / side frame / resize bar /
       maximized bands, generated by tools/gen_aurorae.py, same texture language
       as qstyle/Kvantum/Plasma Style. Active grid at (10,10); inactive +200px;
       maximized below. -->
  <defs><linearGradient id="sheen1" x1="0" y1="0" x2="0" y2="1"><stop offset="0.0" stop-color="#acb0b2"/><stop offset="0.16" stop-color="#bfc3c5"/><stop offset="0.42" stop-color="#a3a6a9"/><stop offset="0.72" stop-color="#96989a"/><stop offset="1.0" stop-color="#878a8b"/></linearGradient><linearGradient id="sheen2" x1="0" y1="0" x2="0" y2="1"><stop offset="0.0" stop-color="#acb0b2"/><stop offset="0.16" stop-color="#bfc3c5"/><stop offset="0.42" stop-color="#a3a6a9"/><stop offset="0.72" stop-color="#96989a"/><stop offset="1.0" stop-color="#878a8b"/></linearGradient><linearGradient id="sheen3" x1="0" y1="0" x2="0" y2="1"><stop offset="0.0" stop-color="#acb0b2"/><stop offset="0.16" stop-color="#bfc3c5"/><stop offset="0.42" stop-color="#a3a6a9"/><stop offset="0.72" stop-color="#96989a"/><stop offset="1.0" stop-color="#878a8b"/></linearGradient><linearGradient id="sheen4" x1="0" y1="0" x2="0" y2="1"><stop offset="0.0" stop-color="#b0b0b0"/><stop offset="0.16" stop-color="#c3c3c3"/><stop offset="0.42" stop-color="#a6a6a6"/><stop offset="0.72" stop-color="#989898"/><stop offset="1.0" stop-color="#8a8a8a"/></linearGradient><linearGradient id="sheen5" x1="0" y1="0" x2="0" y2="1"><stop offset="0.0" stop-color="#b0b0b0"/><stop offset="0.16" stop-color="#c3c3c3"/><stop offset="0.42" stop-color="#a6a6a6"/><stop offset="0.72" stop-color="#989898"/><stop offset="1.0" stop-color="#8a8a8a"/></linearGradient><linearGradient id="sheen6" x1="0" y1="0" x2="0" y2="1"><stop offset="0.0" stop-color="#b0b0b0"/><stop offset="0.16" stop-color="#c3c3c3"/><stop offset="0.42" stop-color="#a6a6a6"/><stop offset="0.72" stop-color="#989898"/><stop offset="1.0" stop-color="#8a8a8a"/></linearGradient><linearGradient id="sheen7" x1="0" y1="0" x2="0" y2="1"><stop offset="0.0" stop-color="#acb0b2"/><stop offset="0.16" stop-color="#bfc3c5"/><stop offset="0.42" stop-color="#a3a6a9"/><stop offset="0.72" stop-color="#96989a"/><stop offset="1.0" stop-color="#878a8b"/></linearGradient><linearGradient id="sheen8" x1="0" y1="0" x2="0" y2="1"><stop offset="0.0" stop-color="#acb0b2"/><stop offset="0.16" stop-color="#bfc3c5"/><stop offset="0.42" stop-color="#a3a6a9"/><stop offset="0.72" stop-color="#96989a"/><stop offset="1.0" stop-color="#878a8b"/></linearGradient><linearGradient id="sheen9" x1="0" y1="0" x2="0" y2="1"><stop offset="0.0" stop-color="#b0b0b0"/><stop offset="0.16" stop-color="#c3c3c3"/><stop offset="0.42" stop-color="#a6a6a6"/><stop offset="0.72" stop-color="#989898"/><stop offset="1.0" stop-color="#8a8a8a"/></linearGradient><linearGradient id="sheen10" x1="0" y1="0" x2="0" y2="1"><stop offset="0.0" stop-color="#b0b0b0"/><stop offset="0.16" stop-color="#c3c3c3"/><stop offset="0.42" stop-color="#a6a6a6"/><stop offset="0.72" stop-color="#989898"/><stop offset="1.0" stop-color="#8a8a8a"/></linearGradient></defs>
  <g id="decoration-topleft" transform="translate(10,10)"><rect x="0" y="0" width="1" height="24" fill="#1a1a1a"/><rect x="1" y="0" width="1" height="24" fill="#9a9d9f"/><rect x="1" y="0" width="1" height="1" fill="#1a1a1a"/><rect x="1" y="1" width="1" height="1" fill="#ffffff"/><rect x="1" y="22" width="1" height="1" fill="#5c5e60"/><rect x="1" y="23" width="1" height="1" fill="#1a1a1a"/></g>
  <g id="decoration-top" transform="translate(12,10)"><rect x="0" y="0" width="20" height="24" fill="url(#sheen1)"/><clipPath id="gc956"><rect x="1" y="1" width="18" height="22"/></clipPath><g clip-path="url(#gc956)"><line x1="1" y1="1" x2="19" y2="3" stroke="#000000" stroke-opacity="0.047"/><line x1="1" y1="6" x2="17" y2="8" stroke="#000000" stroke-opacity="0.071"/><line x1="4" y1="9" x2="16" y2="10" stroke="#ffffff" stroke-opacity="0.098"/><line x1="1" y1="10" x2="19" y2="12" stroke="#ffffff" stroke-opacity="0.129"/><line x1="4" y1="13" x2="18" y2="15" stroke="#ffffff" stroke-opacity="0.094"/><line x1="1" y1="14" x2="17" y2="16" stroke="#ffffff" stroke-opacity="0.102"/><line x1="2" y1="18" x2="19" y2="20" stroke="#ffffff" stroke-opacity="0.098"/><line x1="1" y1="21" x2="19" y2="23" stroke="#000000" stroke-opacity="0.059"/><line x1="2" y1="22" x2="18" y2="24" stroke="#000000" stroke-opacity="0.067"/></g><rect x="0" y="0" width="20" height="1" fill="#1a1a1a"/><rect x="0" y="1" width="20" height="1" fill="#ffffff"/><rect x="0" y="22" width="20" height="1" fill="#5c5e60"/><rect x="0" y="23" width="20" height="1" fill="#1a1a1a"/></g>
  <g id="decoration-topright" transform="translate(32,10)"><rect x="1" y="0" width="1" height="24" fill="#1a1a1a"/><rect x="0" y="0" width="1" height="24" fill="#9a9d9f"/><rect x="0" y="0" width="1" height="1" fill="#1a1a1a"/><rect x="0" y="1" width="1" height="1" fill="#ffffff"/><rect x="0" y="22" width="1" height="1" fill="#5c5e60"/><rect x="0" y="23" width="1" height="1" fill="#1a1a1a"/></g>
  <g id="decoration-left" transform="translate(10,34)"><rect x="0" y="0" width="1" height="20" fill="#1a1a1a"/><rect x="1" y="0" width="1" height="20" fill="#5c5e60"/></g>
  <g id="decoration-center" transform="translate(12,34)"><rect x="0" y="0" width="20" height="20" fill="url(#sheen2)"/><clipPath id="gc840"><rect x="1" y="1" width="18" height="18"/></clipPath><g clip-path="url(#gc840)"><line x1="1" y1="4" x2="16" y2="6" stroke="#000000" stroke-opacity="0.075"/><line x1="4" y1="5" x2="18" y2="7" stroke="#ffffff" stroke-opacity="0.125"/><line x1="1" y1="8" x2="17" y2="10" stroke="#ffffff" stroke-opacity="0.102"/><line x1="4" y1="9" x2="19" y2="11" stroke="#ffffff" stroke-opacity="0.122"/><line x1="2" y1="14" x2="16" y2="16" stroke="#ffffff" stroke-opacity="0.125"/><line x1="3" y1="15" x2="19" y2="17" stroke="#000000" stroke-opacity="0.059"/><line x1="2" y1="18" x2="19" y2="20" stroke="#ffffff" stroke-opacity="0.098"/></g></g>
  <g id="decoration-right" transform="translate(32,34)"><rect x="1" y="0" width="1" height="20" fill="#1a1a1a"/><rect x="0" y="0" width="1" height="20" fill="#5c5e60"/></g>
  <g id="decoration-bottomleft" transform="translate(10,54)"><rect x="0" y="0" width="1" height="8" fill="#1a1a1a"/><rect x="1" y="0" width="1" height="8" fill="#9a9d9f"/><rect x="1" y="0" width="1" height="1" fill="#5c5e60"/><rect x="1" y="6" width="1" height="1" fill="#5c5e60"/><rect x="1" y="7" width="1" height="1" fill="#1a1a1a"/></g>
  <g id="decoration-bottom" transform="translate(12,54)"><rect x="0" y="0" width="20" height="8" fill="url(#sheen3)"/><clipPath id="gc492"><rect x="1" y="1" width="18" height="6"/></clipPath><g clip-path="url(#gc492)"><line x1="2" y1="1" x2="18" y2="3" stroke="#000000" stroke-opacity="0.075"/></g><rect x="0" y="0" width="20" height="1" fill="#5c5e60"/><rect x="0" y="6" width="20" height="1" fill="#5c5e60"/><rect x="0" y="7" width="20" height="1" fill="#1a1a1a"/></g>
  <g id="decoration-bottomright" transform="translate(32,54)"><rect x="1" y="0" width="1" height="8" fill="#1a1a1a"/><rect x="0" y="0" width="1" height="8" fill="#9a9d9f"/><rect x="0" y="0" width="1" height="1" fill="#5c5e60"/><rect x="0" y="6" width="1" height="1" fill="#5c5e60"/><rect x="0" y="7" width="1" height="1" fill="#1a1a1a"/></g>
  <g id="decoration-inactive-topleft" transform="translate(210,10)"><rect x="0" y="0" width="1" height="24" fill="#4a4a4a"/><rect x="1" y="0" width="1" height="24" fill="#9d9d9d"/><rect x="1" y="0" width="1" height="1" fill="#4a4a4a"/><rect x="1" y="1" width="1" height="1" fill="#dcdcdc"/><rect x="1" y="22" width="1" height="1" fill="#7a7a7a"/><rect x="1" y="23" width="1" height="1" fill="#4a4a4a"/></g>
  <g id="decoration-inactive-top" transform="translate(212,10)"><rect x="0" y="0" width="20" height="24" fill="url(#sheen4)"/><clipPath id="gc956"><rect x="1" y="1" width="18" height="22"/></clipPath><g clip-path="url(#gc956)"><line x1="1" y1="1" x2="19" y2="3" stroke="#000000" stroke-opacity="0.047"/><line x1="1" y1="6" x2="17" y2="8" stroke="#000000" stroke-opacity="0.071"/><line x1="4" y1="9" x2="16" y2="10" stroke="#ffffff" stroke-opacity="0.098"/><line x1="1" y1="10" x2="19" y2="12" stroke="#ffffff" stroke-opacity="0.129"/><line x1="4" y1="13" x2="18" y2="15" stroke="#ffffff" stroke-opacity="0.094"/><line x1="1" y1="14" x2="17" y2="16" stroke="#ffffff" stroke-opacity="0.102"/><line x1="2" y1="18" x2="19" y2="20" stroke="#ffffff" stroke-opacity="0.098"/><line x1="1" y1="21" x2="19" y2="23" stroke="#000000" stroke-opacity="0.059"/><line x1="2" y1="22" x2="18" y2="24" stroke="#000000" stroke-opacity="0.067"/></g><rect x="0" y="0" width="20" height="1" fill="#4a4a4a"/><rect x="0" y="1" width="20" height="1" fill="#dcdcdc"/><rect x="0" y="22" width="20" height="1" fill="#7a7a7a"/><rect x="0" y="23" width="20" height="1" fill="#4a4a4a"/></g>
  <g id="decoration-inactive-topright" transform="translate(232,10)"><rect x="1" y="0" width="1" height="24" fill="#4a4a4a"/><rect x="0" y="0" width="1" height="24" fill="#9d9d9d"/><rect x="0" y="0" width="1" height="1" fill="#4a4a4a"/><rect x="0" y="1" width="1" height="1" fill="#dcdcdc"/><rect x="0" y="22" width="1" height="1" fill="#7a7a7a"/><rect x="0" y="23" width="1" height="1" fill="#4a4a4a"/></g>
  <g id="decoration-inactive-left" transform="translate(210,34)"><rect x="0" y="0" width="1" height="20" fill="#4a4a4a"/><rect x="1" y="0" width="1" height="20" fill="#7a7a7a"/></g>
  <g id="decoration-inactive-center" transform="translate(212,34)"><rect x="0" y="0" width="20" height="20" fill="url(#sheen5)"/><clipPath id="gc840"><rect x="1" y="1" width="18" height="18"/></clipPath><g clip-path="url(#gc840)"><line x1="1" y1="4" x2="16" y2="6" stroke="#000000" stroke-opacity="0.075"/><line x1="4" y1="5" x2="18" y2="7" stroke="#ffffff" stroke-opacity="0.125"/><line x1="1" y1="8" x2="17" y2="10" stroke="#ffffff" stroke-opacity="0.102"/><line x1="4" y1="9" x2="19" y2="11" stroke="#ffffff" stroke-opacity="0.122"/><line x1="2" y1="14" x2="16" y2="16" stroke="#ffffff" stroke-opacity="0.125"/><line x1="3" y1="15" x2="19" y2="17" stroke="#000000" stroke-opacity="0.059"/><line x1="2" y1="18" x2="19" y2="20" stroke="#ffffff" stroke-opacity="0.098"/></g></g>
  <g id="decoration-inactive-right" transform="translate(232,34)"><rect x="1" y="0" width="1" height="20" fill="#4a4a4a"/><rect x="0" y="0" width="1" height="20" fill="#7a7a7a"/></g>
  <g id="decoration-inactive-bottomleft" transform="translate(210,54)"><rect x="0" y="0" width="1" height="8" fill="#4a4a4a"/><rect x="1" y="0" width="1" height="8" fill="#9d9d9d"/><rect x="1" y="0" width="1" height="1" fill="#7a7a7a"/><rect x="1" y="6" width="1" height="1" fill="#7a7a7a"/><rect x="1" y="7" width="1" height="1" fill="#4a4a4a"/></g>
  <g id="decoration-inactive-bottom" transform="translate(212,54)"><rect x="0" y="0" width="20" height="8" fill="url(#sheen6)"/><clipPath id="gc492"><rect x="1" y="1" width="18" height="6"/></clipPath><g clip-path="url(#gc492)"><line x1="2" y1="1" x2="18" y2="3" stroke="#000000" stroke-opacity="0.075"/></g><rect x="0" y="0" width="20" height="1" fill="#7a7a7a"/><rect x="0" y="6" width="20" height="1" fill="#7a7a7a"/><rect x="0" y="7" width="20" height="1" fill="#4a4a4a"/></g>
  <g id="decoration-inactive-bottomright" transform="translate(232,54)"><rect x="1" y="0" width="1" height="8" fill="#4a4a4a"/><rect x="0" y="0" width="1" height="8" fill="#9d9d9d"/><rect x="0" y="0" width="1" height="1" fill="#7a7a7a"/><rect x="0" y="6" width="1" height="1" fill="#7a7a7a"/><rect x="0" y="7" width="1" height="1" fill="#4a4a4a"/></g>
  <g id="decoration-maximized-center" transform="translate(10,150)"><rect x="0" y="0" width="40" height="24" fill="url(#sheen7)"/><clipPath id="gc1216"><rect x="1" y="1" width="38" height="22"/></clipPath><g clip-path="url(#gc1216)"><line x1="7" y1="1" x2="39" y2="5" stroke="#000000" stroke-opacity="0.051"/><line x1="5" y1="4" x2="38" y2="8" stroke="#ffffff" stroke-opacity="0.090"/><line x1="3" y1="7" x2="39" y2="11" stroke="#ffffff" stroke-opacity="0.082"/><line x1="1" y1="10" x2="39" y2="15" stroke="#ffffff" stroke-opacity="0.110"/><line x1="2" y1="13" x2="36" y2="17" stroke="#ffffff" stroke-opacity="0.098"/><line x1="8" y1="16" x2="38" y2="20" stroke="#000000" stroke-opacity="0.043"/><line x1="8" y1="19" x2="38" y2="23" stroke="#ffffff" stroke-opacity="0.086"/><line x1="6" y1="20" x2="35" y2="23" stroke="#ffffff" stroke-opacity="0.106"/><line x1="2" y1="22" x2="33" y2="26" stroke="#000000" stroke-opacity="0.063"/></g><rect x="0" y="0" width="40" height="1" fill="#ffffff"/><rect x="0" y="23" width="40" height="1" fill="#1a1a1a"/></g>
  <g id="decoration-maximized-opaque-center" transform="translate(60,150)"><rect x="0" y="0" width="40" height="24" fill="url(#sheen8)"/><clipPath id="gc1216"><rect x="1" y="1" width="38" height="22"/></clipPath><g clip-path="url(#gc1216)"><line x1="7" y1="1" x2="39" y2="5" stroke="#000000" stroke-opacity="0.051"/><line x1="5" y1="4" x2="38" y2="8" stroke="#ffffff" stroke-opacity="0.090"/><line x1="3" y1="7" x2="39" y2="11" stroke="#ffffff" stroke-opacity="0.082"/><line x1="1" y1="10" x2="39" y2="15" stroke="#ffffff" stroke-opacity="0.110"/><line x1="2" y1="13" x2="36" y2="17" stroke="#ffffff" stroke-opacity="0.098"/><line x1="8" y1="16" x2="38" y2="20" stroke="#000000" stroke-opacity="0.043"/><line x1="8" y1="19" x2="38" y2="23" stroke="#ffffff" stroke-opacity="0.086"/><line x1="6" y1="20" x2="35" y2="23" stroke="#ffffff" stroke-opacity="0.106"/><line x1="2" y1="22" x2="33" y2="26" stroke="#000000" stroke-opacity="0.063"/></g><rect x="0" y="0" width="40" height="1" fill="#ffffff"/><rect x="0" y="23" width="40" height="1" fill="#1a1a1a"/></g>
  <g id="decoration-maximized-inactive-center" transform="translate(10,190)"><rect x="0" y="0" width="40" height="24" fill="url(#sheen9)"/><clipPath id="gc1216"><rect x="1" y="1" width="38" height="22"/></clipPath><g clip-path="url(#gc1216)"><line x1="7" y1="1" x2="39" y2="5" stroke="#000000" stroke-opacity="0.051"/><line x1="5" y1="4" x2="38" y2="8" stroke="#ffffff" stroke-opacity="0.090"/><line x1="3" y1="7" x2="39" y2="11" stroke="#ffffff" stroke-opacity="0.082"/><line x1="1" y1="10" x2="39" y2="15" stroke="#ffffff" stroke-opacity="0.110"/><line x1="2" y1="13" x2="36" y2="17" stroke="#ffffff" stroke-opacity="0.098"/><line x1="8" y1="16" x2="38" y2="20" stroke="#000000" stroke-opacity="0.043"/><line x1="8" y1="19" x2="38" y2="23" stroke="#ffffff" stroke-opacity="0.086"/><line x1="6" y1="20" x2="35" y2="23" stroke="#ffffff" stroke-opacity="0.106"/><line x1="2" y1="22" x2="33" y2="26" stroke="#000000" stroke-opacity="0.063"/></g><rect x="0" y="0" width="40" height="1" fill="#dcdcdc"/><rect x="0" y="23" width="40" height="1" fill="#4a4a4a"/></g>
  <g id="decoration-maximized-opaque-inactive-center" transform="translate(60,190)"><rect x="0" y="0" width="40" height="24" fill="url(#sheen10)"/><clipPath id="gc1216"><rect x="1" y="1" width="38" height="22"/></clipPath><g clip-path="url(#gc1216)"><line x1="7" y1="1" x2="39" y2="5" stroke="#000000" stroke-opacity="0.051"/><line x1="5" y1="4" x2="38" y2="8" stroke="#ffffff" stroke-opacity="0.090"/><line x1="3" y1="7" x2="39" y2="11" stroke="#ffffff" stroke-opacity="0.082"/><line x1="1" y1="10" x2="39" y2="15" stroke="#ffffff" stroke-opacity="0.110"/><line x1="2" y1="13" x2="36" y2="17" stroke="#ffffff" stroke-opacity="0.098"/><line x1="8" y1="16" x2="38" y2="20" stroke="#000000" stroke-opacity="0.043"/><line x1="8" y1="19" x2="38" y2="23" stroke="#ffffff" stroke-opacity="0.086"/><line x1="6" y1="20" x2="35" y2="23" stroke="#ffffff" stroke-opacity="0.106"/><line x1="2" y1="22" x2="33" y2="26" stroke="#000000" stroke-opacity="0.063"/></g><rect x="0" y="0" width="40" height="1" fill="#dcdcdc"/><rect x="0" y="23" width="40" height="1" fill="#4a4a4a"/></g>
</svg>
