<?xml version="1.0" encoding="UTF-8" standalone="no"?>
<svg xmlns="http://www.w3.org/2000/svg" version="1.1" width="160" height="16">
  <!-- NeXT square button, raised bevel; glyph = help. States laid out in a row. -->

  <g id="help" transform="translate(0,0)">
    <rect x="0" y="0" width="18" height="16" fill="#000000" fill-opacity="0"/>
    <rect x="0" y="0" width="18" height="16" fill="#1a1a1a"/>
    <rect x="1" y="1" width="16" height="14" fill="#9a9d9f"/>
    <rect x="1" y="1" width="16" height="1"  fill="#ffffff"/>
    <rect x="1" y="1" width="1"  height="14" fill="#ffffff"/>
    <rect x="1" y="14" width="16" height="1" fill="#5c5e60"/>
    <rect x="16" y="1" width="1" height="14" fill="#5c5e60"/>
    <path d="M6.4 6.6 A2.7 2.7 0 1 1 9 9.4 L9 10.8" fill="none" stroke="#000000" stroke-width="2.1" stroke-linecap="round" stroke-linejoin="round"/><circle cx="9" cy="13.1" r="1.2" fill="#000000"/>
  </g>

  <g id="active-center" transform="translate(22,0)">
    <rect x="0" y="0" width="18" height="16" fill="#000000" fill-opacity="0"/>
    <rect x="0" y="0" width="18" height="16" fill="#1a1a1a"/>
    <rect x="1" y="1" width="16" height="14" fill="#9a9d9f"/>
    <rect x="1" y="1" width="16" height="1"  fill="#ffffff"/>
    <rect x="1" y="1" width="1"  height="14" fill="#ffffff"/>
    <rect x="1" y="14" width="16" height="1" fill="#5c5e60"/>
    <rect x="16" y="1" width="1" height="14" fill="#5c5e60"/>
    <path d="M6.4 6.6 A2.7 2.7 0 1 1 9 9.4 L9 10.8" fill="none" stroke="#000000" stroke-width="2.1" stroke-linecap="round" stroke-linejoin="round"/><circle cx="9" cy="13.1" r="1.2" fill="#000000"/>
  </g>

  <g id="hover-center" transform="translate(44,0)">
    <rect x="0" y="0" width="18" height="16" fill="#000000" fill-opacity="0"/>
    <rect x="0" y="0" width="18" height="16" fill="#1a1a1a"/>
    <rect x="1" y="1" width="16" height="14" fill="#a6a9ab"/>
    <rect x="1" y="1" width="16" height="1"  fill="#ffffff"/>
    <rect x="1" y="1" width="1"  height="14" fill="#ffffff"/>
    <rect x="1" y="14" width="16" height="1" fill="#5c5e60"/>
    <rect x="16" y="1" width="1" height="14" fill="#5c5e60"/>
    <path d="M6.4 6.6 A2.7 2.7 0 1 1 9 9.4 L9 10.8" fill="none" stroke="#000000" stroke-width="2.1" stroke-linecap="round" stroke-linejoin="round"/><circle cx="9" cy="13.1" r="1.2" fill="#000000"/>
  </g>

  <g id="pressed-center" transform="translate(66,0)">
    <rect x="0" y="0" width="18" height="16" fill="#000000" fill-opacity="0"/>
    <rect x="0" y="0" width="18" height="16" fill="#1a1a1a"/>
    <rect x="1" y="1" width="16" height="14" fill="#82858a"/>
    <rect x="1" y="1" width="16" height="1"  fill="#5c5e60"/>
    <rect x="1" y="1" width="1"  height="14" fill="#5c5e60"/>
    <rect x="1" y="14" width="16" height="1" fill="#ffffff"/>
    <rect x="16" y="1" width="1" height="14" fill="#ffffff"/>
    <path d="M7.4 7.6 A2.7 2.7 0 1 1 10 10.4 L10 11.8" fill="none" stroke="#000000" stroke-width="2.1" stroke-linecap="round" stroke-linejoin="round"/><circle cx="10" cy="14.1" r="1.2" fill="#000000"/>
  </g>

  <g id="inactive-center" transform="translate(88,0)">
    <rect x="0" y="0" width="18" height="16" fill="#000000" fill-opacity="0"/>
    <rect x="0" y="0" width="18" height="16" fill="#4a4a4a"/>
    <rect x="1" y="1" width="16" height="14" fill="#9d9d9d"/>
    <rect x="1" y="1" width="16" height="1"  fill="#ebebeb"/>
    <rect x="1" y="1" width="1"  height="14" fill="#ebebeb"/>
    <rect x="1" y="14" width="16" height="1" fill="#a9a9a9"/>
    <rect x="16" y="1" width="1" height="14" fill="#a9a9a9"/>
    <path d="M6.4 6.6 A2.7 2.7 0 1 1 9 9.4 L9 10.8" fill="none" stroke="#555555" stroke-width="2.1" stroke-linecap="round" stroke-linejoin="round"/><circle cx="9" cy="13.1" r="1.2" fill="#555555"/>
  </g>

  <g id="deactivated-center" transform="translate(110,0)">
    <rect x="0" y="0" width="18" height="16" fill="#000000" fill-opacity="0"/>
    <rect x="0" y="0" width="18" height="16" fill="#4a4a4a"/>
    <rect x="1" y="1" width="16" height="14" fill="#9d9d9d"/>
    <rect x="1" y="1" width="16" height="1"  fill="#ebebeb"/>
    <rect x="1" y="1" width="1"  height="14" fill="#ebebeb"/>
    <rect x="1" y="14" width="16" height="1" fill="#a9a9a9"/>
    <rect x="16" y="1" width="1" height="14" fill="#a9a9a9"/>
    <path d="M6.4 6.6 A2.7 2.7 0 1 1 9 9.4 L9 10.8" fill="none" stroke="#777777" stroke-width="2.1" stroke-linecap="round" stroke-linejoin="round"/><circle cx="9" cy="13.1" r="1.2" fill="#777777"/>
  </g>

</svg>
