<?xml version="1.0" encoding="UTF-8" standalone="no"?>
<svg xmlns="http://www.w3.org/2000/svg" version="1.1" width="160" height="16">
  <!-- NeXT square button, raised bevel; glyph = keepbelow. States laid out in a row. -->

  <g id="keepbelow" transform="translate(0,0)">
    <rect x="0" y="0" width="18" height="16" fill="#000000" fill-opacity="0"/>
    <rect x="0" y="0" width="18" height="16" fill="#1a1a1a"/>
    <rect x="1" y="1" width="16" height="14" fill="#cacdd1"/>
    <rect x="1" y="1" width="16" height="1"  fill="#ffffff"/>
    <rect x="1" y="1" width="1"  height="14" fill="#ffffff"/>
    <rect x="1" y="14" width="16" height="1" fill="#7c8188"/>
    <rect x="16" y="1" width="1" height="14" fill="#7c8188"/>
    <path d="M4 12 L14 12 M9 3 L9 9 M5 5 L9 9 L13 5" stroke="#000000" stroke-width="2" stroke-linecap="round" stroke-linejoin="round" fill="none"/>
  </g>

  <g id="active-center" transform="translate(22,0)">
    <rect x="0" y="0" width="18" height="16" fill="#000000" fill-opacity="0"/>
    <rect x="0" y="0" width="18" height="16" fill="#1a1a1a"/>
    <rect x="1" y="1" width="16" height="14" fill="#cacdd1"/>
    <rect x="1" y="1" width="16" height="1"  fill="#ffffff"/>
    <rect x="1" y="1" width="1"  height="14" fill="#ffffff"/>
    <rect x="1" y="14" width="16" height="1" fill="#7c8188"/>
    <rect x="16" y="1" width="1" height="14" fill="#7c8188"/>
    <path d="M4 12 L14 12 M9 3 L9 9 M5 5 L9 9 L13 5" stroke="#000000" stroke-width="2" stroke-linecap="round" stroke-linejoin="round" fill="none"/>
  </g>

  <g id="hover-center" transform="translate(44,0)">
    <rect x="0" y="0" width="18" height="16" fill="#000000" fill-opacity="0"/>
    <rect x="0" y="0" width="18" height="16" fill="#1a1a1a"/>
    <rect x="1" y="1" width="16" height="14" fill="#dbdde0"/>
    <rect x="1" y="1" width="16" height="1"  fill="#ffffff"/>
    <rect x="1" y="1" width="1"  height="14" fill="#ffffff"/>
    <rect x="1" y="14" width="16" height="1" fill="#7c8188"/>
    <rect x="16" y="1" width="1" height="14" fill="#7c8188"/>
    <path d="M4 12 L14 12 M9 3 L9 9 M5 5 L9 9 L13 5" stroke="#000000" stroke-width="2" stroke-linecap="round" stroke-linejoin="round" fill="none"/>
  </g>

  <g id="pressed-center" transform="translate(66,0)">
    <rect x="0" y="0" width="18" height="16" fill="#000000" fill-opacity="0"/>
    <rect x="0" y="0" width="18" height="16" fill="#1a1a1a"/>
    <rect x="1" y="1" width="16" height="14" fill="#b2b5b9"/>
    <rect x="1" y="1" width="16" height="1"  fill="#7c8188"/>
    <rect x="1" y="1" width="1"  height="14" fill="#7c8188"/>
    <rect x="1" y="14" width="16" height="1" fill="#ffffff"/>
    <rect x="16" y="1" width="1" height="14" fill="#ffffff"/>
    <path d="M5 13 L15 13 M10 4 L10 10 M6 6 L10 10 L14 6" stroke="#000000" stroke-width="2" stroke-linecap="round" stroke-linejoin="round" fill="none"/>
  </g>

  <g id="inactive-center" transform="translate(88,0)">
    <rect x="0" y="0" width="18" height="16" fill="#000000" fill-opacity="0"/>
    <rect x="0" y="0" width="18" height="16" fill="#494949"/>
    <rect x="1" y="1" width="16" height="14" fill="#c7c7c7"/>
    <rect x="1" y="1" width="16" height="1"  fill="#ebebeb"/>
    <rect x="1" y="1" width="1"  height="14" fill="#ebebeb"/>
    <rect x="1" y="14" width="16" height="1" fill="#a9a9a9"/>
    <rect x="16" y="1" width="1" height="14" fill="#a9a9a9"/>
    <path d="M4 12 L14 12 M9 3 L9 9 M5 5 L9 9 L13 5" stroke="#555555" stroke-width="2" stroke-linecap="round" stroke-linejoin="round" fill="none"/>
  </g>

  <g id="deactivated-center" transform="translate(110,0)">
    <rect x="0" y="0" width="18" height="16" fill="#000000" fill-opacity="0"/>
    <rect x="0" y="0" width="18" height="16" fill="#494949"/>
    <rect x="1" y="1" width="16" height="14" fill="#c7c7c7"/>
    <rect x="1" y="1" width="16" height="1"  fill="#ebebeb"/>
    <rect x="1" y="1" width="1"  height="14" fill="#ebebeb"/>
    <rect x="1" y="14" width="16" height="1" fill="#a9a9a9"/>
    <rect x="16" y="1" width="1" height="14" fill="#a9a9a9"/>
    <path d="M4 12 L14 12 M9 3 L9 9 M5 5 L9 9 L13 5" stroke="#777777" stroke-width="2" stroke-linecap="round" stroke-linejoin="round" fill="none"/>
  </g>

</svg>
