<?xml version="1.0" encoding="UTF-8" standalone="no"?>
<svg xmlns="http://www.w3.org/2000/svg" version="1.1" width="160" height="16">
  <!-- NeXT square button, raised bevel; glyph = shade. States laid out in a row. -->

  <g id="shade" transform="translate(0,0)">
    <rect x="0" y="0" width="18" height="16" fill="#000000" fill-opacity="0"/>
    <rect x="0" y="0" width="18" height="16" fill="#1a1a1a"/>
    <rect x="1" y="1" width="16" height="14" fill="#9a9d9f"/>
    <rect x="1" y="1" width="16" height="1"  fill="#ffffff"/>
    <rect x="1" y="1" width="1"  height="14" fill="#ffffff"/>
    <rect x="1" y="14" width="16" height="1" fill="#5c5e60"/>
    <rect x="16" y="1" width="1" height="14" fill="#5c5e60"/>
    <path d="M4 5 L14 5" stroke="#000000" stroke-width="2.6" stroke-linecap="round" fill="none"/>
    <path d="M4 12 L14 12" stroke="#000000" stroke-width="1.2" stroke-linecap="round" fill="none"/>
  </g>

  <g id="active-center" transform="translate(22,0)">
    <rect x="0" y="0" width="18" height="16" fill="#000000" fill-opacity="0"/>
    <rect x="0" y="0" width="18" height="16" fill="#1a1a1a"/>
    <rect x="1" y="1" width="16" height="14" fill="#9a9d9f"/>
    <rect x="1" y="1" width="16" height="1"  fill="#ffffff"/>
    <rect x="1" y="1" width="1"  height="14" fill="#ffffff"/>
    <rect x="1" y="14" width="16" height="1" fill="#5c5e60"/>
    <rect x="16" y="1" width="1" height="14" fill="#5c5e60"/>
    <path d="M4 5 L14 5" stroke="#000000" stroke-width="2.6" stroke-linecap="round" fill="none"/>
    <path d="M4 12 L14 12" stroke="#000000" stroke-width="1.2" stroke-linecap="round" fill="none"/>
  </g>

  <g id="hover-center" transform="translate(44,0)">
    <rect x="0" y="0" width="18" height="16" fill="#000000" fill-opacity="0"/>
    <rect x="0" y="0" width="18" height="16" fill="#1a1a1a"/>
    <rect x="1" y="1" width="16" height="14" fill="#a6a9ab"/>
    <rect x="1" y="1" width="16" height="1"  fill="#ffffff"/>
    <rect x="1" y="1" width="1"  height="14" fill="#ffffff"/>
    <rect x="1" y="14" width="16" height="1" fill="#5c5e60"/>
    <rect x="16" y="1" width="1" height="14" fill="#5c5e60"/>
    <path d="M4 5 L14 5" stroke="#000000" stroke-width="2.6" stroke-linecap="round" fill="none"/>
    <path d="M4 12 L14 12" stroke="#000000" stroke-width="1.2" stroke-linecap="round" fill="none"/>
  </g>

  <g id="pressed-center" transform="translate(66,0)">
    <rect x="0" y="0" width="18" height="16" fill="#000000" fill-opacity="0"/>
    <rect x="0" y="0" width="18" height="16" fill="#1a1a1a"/>
    <rect x="1" y="1" width="16" height="14" fill="#82858a"/>
    <rect x="1" y="1" width="16" height="1"  fill="#5c5e60"/>
    <rect x="1" y="1" width="1"  height="14" fill="#5c5e60"/>
    <rect x="1" y="14" width="16" height="1" fill="#ffffff"/>
    <rect x="16" y="1" width="1" height="14" fill="#ffffff"/>
    <path d="M5 6 L15 6" stroke="#000000" stroke-width="2.6" stroke-linecap="round" fill="none"/>
    <path d="M5 13 L15 13" stroke="#000000" stroke-width="1.2" stroke-linecap="round" fill="none"/>
  </g>

  <g id="inactive-center" transform="translate(88,0)">
    <rect x="0" y="0" width="18" height="16" fill="#000000" fill-opacity="0"/>
    <rect x="0" y="0" width="18" height="16" fill="#4a4a4a"/>
    <rect x="1" y="1" width="16" height="14" fill="#9d9d9d"/>
    <rect x="1" y="1" width="16" height="1"  fill="#ebebeb"/>
    <rect x="1" y="1" width="1"  height="14" fill="#ebebeb"/>
    <rect x="1" y="14" width="16" height="1" fill="#a9a9a9"/>
    <rect x="16" y="1" width="1" height="14" fill="#a9a9a9"/>
    <path d="M4 5 L14 5" stroke="#555555" stroke-width="2.6" stroke-linecap="round" fill="none"/>
    <path d="M4 12 L14 12" stroke="#555555" stroke-width="1.2" stroke-linecap="round" fill="none"/>
  </g>

  <g id="deactivated-center" transform="translate(110,0)">
    <rect x="0" y="0" width="18" height="16" fill="#000000" fill-opacity="0"/>
    <rect x="0" y="0" width="18" height="16" fill="#4a4a4a"/>
    <rect x="1" y="1" width="16" height="14" fill="#9d9d9d"/>
    <rect x="1" y="1" width="16" height="1"  fill="#ebebeb"/>
    <rect x="1" y="1" width="1"  height="14" fill="#ebebeb"/>
    <rect x="1" y="14" width="16" height="1" fill="#a9a9a9"/>
    <rect x="16" y="1" width="1" height="14" fill="#a9a9a9"/>
    <path d="M4 5 L14 5" stroke="#777777" stroke-width="2.6" stroke-linecap="round" fill="none"/>
    <path d="M4 12 L14 12" stroke="#777777" stroke-width="1.2" stroke-linecap="round" fill="none"/>
  </g>

</svg>
