<?xml version="1.0" encoding="UTF-8" standalone="no"?>
<svg xmlns="http://www.w3.org/2000/svg" width="48" height="48" viewBox="3.5 3.5 41 41">
  <!-- TenshiSTEP document-page-setup: doc + ruler corner -->
  <path d="M9 6 H26 L34 14 V38 H9 Z" fill="#ffffff" stroke="#cdd1d7" stroke-width="1.5" stroke-linejoin="round"/>
  <path d="M26 6 V14 H34 Z" fill="#b0b0b0" stroke="#cdd1d7" stroke-width="1.1" stroke-linejoin="round"/>
  <path d="M10.4 7.4 H25 V13.4 H33" fill="none" stroke="#ffffff" stroke-width="1.1"/>
  <path d="M13 19 H29 M13 23 H29 M13 27 H24" fill="none" stroke="#6e6e6e" stroke-width="1.3"/>
  <path d="M43 25 V43 H25 V37.5 H37.5 V25 Z" fill="#d3b64f" stroke="#cdd1d7" stroke-width="1.4" stroke-linejoin="round"/>
  <path d="M38.5 26 V37 M26 38.5 H37" fill="none" stroke="#ffffff" stroke-width="1"/>
  <path d="M41.8 26 V41.8 H26" fill="none" stroke="#7e6d2f" stroke-width="1"/>
  <path d="M37.5 29 H40.5 M37.5 33 H39.5 M37.5 37 H40.5 M29 43 V40 M33 43 V41 M37 43 V40" fill="none" stroke="#cdd1d7" stroke-width="1"/>
</svg>
