<?xml version="1.0" encoding="UTF-8" standalone="no"?>
<svg xmlns="http://www.w3.org/2000/svg" width="48" height="48" viewBox="3.5 3.5 41 41">
  <!-- TenshiSTEP run: gear + green play -->
  <g fill="#b0b0b0" stroke="#cdd1d7" stroke-width="1.4" stroke-linejoin="round">
    <rect x="21.6" y="6" width="4.8" height="8" rx="1" transform="rotate(0 24 24)"/>
    <rect x="21.6" y="6" width="4.8" height="8" rx="1" transform="rotate(45 24 24)"/>
    <rect x="21.6" y="6" width="4.8" height="8" rx="1" transform="rotate(90 24 24)"/>
    <rect x="21.6" y="6" width="4.8" height="8" rx="1" transform="rotate(135 24 24)"/>
    <rect x="21.6" y="6" width="4.8" height="8" rx="1" transform="rotate(180 24 24)"/>
    <rect x="21.6" y="6" width="4.8" height="8" rx="1" transform="rotate(225 24 24)"/>
    <rect x="21.6" y="6" width="4.8" height="8" rx="1" transform="rotate(270 24 24)"/>
    <rect x="21.6" y="6" width="4.8" height="8" rx="1" transform="rotate(315 24 24)"/>
  </g>
  <circle cx="24" cy="24" r="12" fill="#b0b0b0" stroke="#cdd1d7" stroke-width="1.6"/>
  <path d="M15.5 17 A12 12 0 0 1 24 12" fill="none" stroke="#ffffff" stroke-width="1.2"/>
  <path d="M32.5 31 A12 12 0 0 1 24 36" fill="none" stroke="#6e6e6e" stroke-width="1.2"/>
  <path d="M20.5 17.5 L20.5 30.5 L31 24 Z" fill="#3e8e5a" stroke="#cdd1d7" stroke-width="1.5" stroke-linejoin="round"/>
  <path d="M21.6 19 L21.6 27" fill="none" stroke="#ffffff" stroke-width="1"/>
</svg>
