<?xml version="1.0" encoding="UTF-8" standalone="no"?>
<svg xmlns="http://www.w3.org/2000/svg" width="48" height="48" viewBox="0 0 48 48">
  <!-- TenshiSTEP-darkmode emblem: beveled indigo tile with an OPENSTEP-idiom angel -->
  <rect x="3" y="3" width="42" height="42" rx="6" fill="#6a5fd6" stroke="#1a1a1a" stroke-width="1.8"/>
  <path d="M6 9 A3 3 0 0 1 9 6 H39" fill="none" stroke="#ffffff" stroke-width="1.6" opacity="0.6"/>
  <path d="M42 9 V39 A3 3 0 0 1 39 42 H9" fill="none" stroke="#1a1a1a" stroke-width="1.6" opacity="0.4"/>
  <!-- halo -->
  <ellipse cx="24" cy="10" rx="7" ry="2.7" fill="none" stroke="#e6c14a" stroke-width="2.1"/>
  <!-- wings -->
  <path d="M23 21 C15 14 7.5 16.5 6 26 C12 23 17.5 23.5 23 28 Z" fill="#cabef6" stroke="#1a1a1a" stroke-width="1.3" stroke-linejoin="round"/>
  <path d="M25 21 C33 14 40.5 16.5 42 26 C36 23 30.5 23.5 25 28 Z" fill="#cabef6" stroke="#1a1a1a" stroke-width="1.3" stroke-linejoin="round"/>
  <path d="M21 26.5 C16.5 24 12 24 8.5 25.5" fill="none" stroke="#8478d0" stroke-width="1.1"/>
  <path d="M27 26.5 C31.5 24 36 24 39.5 25.5" fill="none" stroke="#8478d0" stroke-width="1.1"/>
  <!-- robe -->
  <path d="M21 19.5 L27 19.5 L33 41 Q24 44 15 41 Z" fill="#ffffff" stroke="#1a1a1a" stroke-width="1.4" stroke-linejoin="round"/>
  <path d="M24 21 L24 42" stroke="#8478d0" stroke-width="1.2"/>
  <!-- head -->
  <circle cx="24" cy="15.5" r="4.3" fill="#ffffff" stroke="#1a1a1a" stroke-width="1.4"/>
</svg>
