<?xml version="1.0" encoding="UTF-8" standalone="no"?>
<svg xmlns="http://www.w3.org/2000/svg" width="76" height="56" viewBox="0 0 76 56">
  <defs><linearGradient id="sheen91" x1="0" y1="0" x2="0" y2="1"><stop offset="0.0" stop-color="#acb0b2"/><stop offset="0.16" stop-color="#bfc3c5"/><stop offset="0.42" stop-color="#a3a6a9"/><stop offset="0.72" stop-color="#96989a"/><stop offset="1.0" stop-color="#878a8b"/></linearGradient><linearGradient id="sheen92" x1="0" y1="0" x2="0" y2="1"><stop offset="0.0" stop-color="#acb0b2"/><stop offset="0.16" stop-color="#bfc3c5"/><stop offset="0.42" stop-color="#a3a6a9"/><stop offset="0.72" stop-color="#96989a"/><stop offset="1.0" stop-color="#878a8b"/></linearGradient><linearGradient id="sheen93" x1="0" y1="0" x2="0" y2="1"><stop offset="0.0" stop-color="#acb0b2"/><stop offset="0.16" stop-color="#bfc3c5"/><stop offset="0.42" stop-color="#a3a6a9"/><stop offset="0.72" stop-color="#96989a"/><stop offset="1.0" stop-color="#878a8b"/></linearGradient><linearGradient id="sheen94" x1="0" y1="0" x2="0" y2="1"><stop offset="0.0" stop-color="#acb0b2"/><stop offset="0.16" stop-color="#bfc3c5"/><stop offset="0.42" stop-color="#a3a6a9"/><stop offset="0.72" stop-color="#96989a"/><stop offset="1.0" stop-color="#878a8b"/></linearGradient><linearGradient id="sheen95" x1="0" y1="0" x2="0" y2="1"><stop offset="0.0" stop-color="#acb0b2"/><stop offset="0.16" stop-color="#bfc3c5"/><stop offset="0.42" stop-color="#a3a6a9"/><stop offset="0.72" stop-color="#96989a"/><stop offset="1.0" stop-color="#878a8b"/></linearGradient><clipPath id="gc14732_11"><rect x="13" y="13" width="46" height="26"/></clipPath><linearGradient id="sheen96" x1="0" y1="0" x2="0" y2="1"><stop offset="0.0" stop-color="#acb0b2"/><stop offset="0.16" stop-color="#bfc3c5"/><stop offset="0.42" stop-color="#a3a6a9"/><stop offset="0.72" stop-color="#96989a"/><stop offset="1.0" stop-color="#878a8b"/></linearGradient><linearGradient id="sheen97" x1="0" y1="0" x2="0" y2="1"><stop offset="0.0" stop-color="#acb0b2"/><stop offset="0.16" stop-color="#bfc3c5"/><stop offset="0.42" stop-color="#a3a6a9"/><stop offset="0.72" stop-color="#96989a"/><stop offset="1.0" stop-color="#878a8b"/></linearGradient><linearGradient id="sheen98" x1="0" y1="0" x2="0" y2="1"><stop offset="0.0" stop-color="#acb0b2"/><stop offset="0.16" stop-color="#bfc3c5"/><stop offset="0.42" stop-color="#a3a6a9"/><stop offset="0.72" stop-color="#96989a"/><stop offset="1.0" stop-color="#878a8b"/></linearGradient><linearGradient id="sheen99" x1="0" y1="0" x2="0" y2="1"><stop offset="0.0" stop-color="#acb0b2"/><stop offset="0.16" stop-color="#bfc3c5"/><stop offset="0.42" stop-color="#a3a6a9"/><stop offset="0.72" stop-color="#96989a"/><stop offset="1.0" stop-color="#878a8b"/></linearGradient></defs>
  <g id="topleft"><rect x="4" y="4" width="8" height="8" fill="url(#sheen91)"/><rect x="4" y="4" width="8" height="1" fill="#1a1a1a"/><rect x="4" y="4" width="1" height="8" fill="#1a1a1a"/><rect x="4" y="5" width="8" height="1" fill="#ffffff"/><rect x="5" y="4" width="1" height="8" fill="#ffffff"/></g>
  <g id="top"><rect x="12" y="4" width="48" height="8" fill="url(#sheen92)"/><rect x="12" y="4" width="48" height="1" fill="#1a1a1a"/><rect x="12" y="5" width="48" height="1" fill="#ffffff"/></g>
  <g id="topright"><rect x="60" y="4" width="8" height="8" fill="url(#sheen93)"/><rect x="60" y="4" width="8" height="1" fill="#1a1a1a"/><rect x="67" y="4" width="1" height="8" fill="#1a1a1a"/><rect x="60" y="5" width="8" height="1" fill="#ffffff"/><rect x="66" y="4" width="1" height="8" fill="#5c5e60"/></g>
  <g id="left"><rect x="4" y="12" width="8" height="28" fill="url(#sheen94)"/><rect x="4" y="12" width="1" height="28" fill="#1a1a1a"/><rect x="5" y="12" width="1" height="28" fill="#ffffff"/></g>
  <g id="center"><rect x="12" y="12" width="48" height="28" fill="url(#sheen95)"/><g clip-path="url(#gc14732_11)"><line x1="20" y1="13" x2="54" y2="17" stroke="#ffffff" stroke-opacity="0.122"/><line x1="22" y1="14" x2="58" y2="18" stroke="#000000" stroke-opacity="0.043"/><line x1="19" y1="17" x2="56" y2="21" stroke="#ffffff" stroke-opacity="0.122"/><line x1="21" y1="18" x2="57" y2="22" stroke="#ffffff" stroke-opacity="0.094"/><line x1="19" y1="22" x2="53" y2="26" stroke="#ffffff" stroke-opacity="0.125"/><line x1="22" y1="25" x2="56" y2="29" stroke="#000000" stroke-opacity="0.059"/><line x1="21" y1="28" x2="55" y2="32" stroke="#ffffff" stroke-opacity="0.090"/><line x1="17" y1="34" x2="57" y2="39" stroke="#000000" stroke-opacity="0.071"/><line x1="18" y1="37" x2="58" y2="42" stroke="#ffffff" stroke-opacity="0.114"/></g></g>
  <g id="right"><rect x="60" y="12" width="8" height="28" fill="url(#sheen96)"/><rect x="67" y="12" width="1" height="28" fill="#1a1a1a"/><rect x="66" y="12" width="1" height="28" fill="#5c5e60"/></g>
  <g id="bottomleft"><rect x="4" y="40" width="8" height="8" fill="url(#sheen97)"/><rect x="4" y="47" width="8" height="1" fill="#1a1a1a"/><rect x="4" y="40" width="1" height="8" fill="#1a1a1a"/><rect x="5" y="40" width="1" height="8" fill="#ffffff"/><rect x="4" y="46" width="8" height="1" fill="#5c5e60"/></g>
  <g id="bottom"><rect x="12" y="40" width="48" height="8" fill="url(#sheen98)"/><rect x="12" y="47" width="48" height="1" fill="#1a1a1a"/><rect x="12" y="46" width="48" height="1" fill="#5c5e60"/></g>
  <g id="bottomright"><rect x="60" y="40" width="8" height="8" fill="url(#sheen99)"/><rect x="60" y="47" width="8" height="1" fill="#1a1a1a"/><rect x="67" y="40" width="1" height="8" fill="#1a1a1a"/><rect x="60" y="46" width="8" height="1" fill="#5c5e60"/><rect x="66" y="40" width="1" height="8" fill="#5c5e60"/></g>
</svg>
