<?xml version="1.0" encoding="UTF-8" standalone="no"?>
<svg xmlns="http://www.w3.org/2000/svg" width="76" height="56" viewBox="0 0 76 56">
  <g id="topleft"><rect x="4" y="4" width="8" height="8" fill="#dfe1e3"/><rect x="4" y="4" width="8" height="1" fill="#1a1a1a"/><rect x="4" y="4" width="1" height="8" fill="#1a1a1a"/><rect x="4" y="5" width="8" height="1" fill="#ffffff"/><rect x="5" y="4" width="1" height="8" fill="#ffffff"/></g>
  <g id="top"><rect x="12" y="4" width="48" height="8" fill="#dfe1e3"/><rect x="12" y="4" width="48" height="1" fill="#1a1a1a"/><rect x="12" y="5" width="48" height="1" fill="#ffffff"/></g>
  <g id="topright"><rect x="60" y="4" width="8" height="8" fill="#dfe1e3"/><rect x="60" y="4" width="8" height="1" fill="#1a1a1a"/><rect x="67" y="4" width="1" height="8" fill="#1a1a1a"/><rect x="60" y="5" width="8" height="1" fill="#ffffff"/><rect x="66" y="4" width="1" height="8" fill="#7c8188"/></g>
  <g id="left"><rect x="4" y="12" width="8" height="28" fill="#dfe1e3"/><rect x="4" y="12" width="1" height="28" fill="#1a1a1a"/><rect x="5" y="12" width="1" height="28" fill="#ffffff"/></g>
  <g id="center"><rect x="12" y="12" width="48" height="28" fill="#dfe1e3"/><rect x="14" y="14" width="44" height="1" fill="#ffffff" fill-opacity="0.10"/><rect x="14" y="15" width="44" height="1" fill="#000000" fill-opacity="0.055"/><rect x="14" y="17" width="44" height="1" fill="#ffffff" fill-opacity="0.10"/><rect x="14" y="18" width="44" height="1" fill="#000000" fill-opacity="0.055"/><rect x="14" y="20" width="44" height="1" fill="#ffffff" fill-opacity="0.10"/><rect x="14" y="21" width="44" height="1" fill="#000000" fill-opacity="0.055"/><rect x="14" y="23" width="44" height="1" fill="#ffffff" fill-opacity="0.10"/><rect x="14" y="24" width="44" height="1" fill="#000000" fill-opacity="0.055"/><rect x="14" y="26" width="44" height="1" fill="#ffffff" fill-opacity="0.10"/><rect x="14" y="27" width="44" height="1" fill="#000000" fill-opacity="0.055"/><rect x="14" y="29" width="44" height="1" fill="#ffffff" fill-opacity="0.10"/><rect x="14" y="30" width="44" height="1" fill="#000000" fill-opacity="0.055"/><rect x="14" y="32" width="44" height="1" fill="#ffffff" fill-opacity="0.10"/><rect x="14" y="33" width="44" height="1" fill="#000000" fill-opacity="0.055"/><rect x="14" y="35" width="44" height="1" fill="#ffffff" fill-opacity="0.10"/><rect x="14" y="36" width="44" height="1" fill="#000000" fill-opacity="0.055"/></g>
  <g id="right"><rect x="60" y="12" width="8" height="28" fill="#dfe1e3"/><rect x="67" y="12" width="1" height="28" fill="#1a1a1a"/><rect x="66" y="12" width="1" height="28" fill="#7c8188"/></g>
  <g id="bottomleft"><rect x="4" y="40" width="8" height="8" fill="#dfe1e3"/><rect x="4" y="47" width="8" height="1" fill="#1a1a1a"/><rect x="4" y="40" width="1" height="8" fill="#1a1a1a"/><rect x="5" y="40" width="1" height="8" fill="#ffffff"/><rect x="4" y="46" width="8" height="1" fill="#7c8188"/></g>
  <g id="bottom"><rect x="12" y="40" width="48" height="8" fill="#dfe1e3"/><rect x="12" y="47" width="48" height="1" fill="#1a1a1a"/><rect x="12" y="46" width="48" height="1" fill="#7c8188"/></g>
  <g id="bottomright"><rect x="60" y="40" width="8" height="8" fill="#dfe1e3"/><rect x="60" y="47" width="8" height="1" fill="#1a1a1a"/><rect x="67" y="40" width="1" height="8" fill="#1a1a1a"/><rect x="60" y="46" width="8" height="1" fill="#7c8188"/><rect x="66" y="40" width="1" height="8" fill="#7c8188"/></g>
</svg>
