<?xml version="1.0" encoding="UTF-8" standalone="no"?>
<svg xmlns="http://www.w3.org/2000/svg" width="48" height="48" viewBox="2.5 2.5 43 43">
  <!-- TenshiSTEP-zirconium system emblem: gear -->
  <path d="M39.22 21.04 L43.63 20.18 L43.63 27.82 L39.22 26.96 L36.85 32.67 L40.58 35.18 L35.18 40.58 L32.67 36.85 L26.96 39.22 L27.82 43.63 L20.18 43.63 L21.04 39.22 L15.33 36.85 L12.82 40.58 L7.42 35.18 L11.15 32.67 L8.78 26.96 L4.37 27.82 L4.37 20.18 L8.78 21.04 L11.15 15.33 L7.42 12.82 L12.82 7.42 L15.33 11.15 L21.04 8.78 L20.18 4.37 L27.82 4.37 L26.96 8.78 L32.67 11.15 L35.18 7.42 L40.58 12.82 L36.85 15.33 Z" fill="#8a8a8a" stroke="#1a1a1a" stroke-width="2" stroke-linejoin="round"/>
  <circle cx="24" cy="24" r="8.0" fill="#4d4d4d" stroke="#1a1a1a" stroke-width="2"/>
  <path d="M12 20 A13 13 0 0 1 20 12" fill="none" stroke="#ffffff" stroke-width="1.4"/>
</svg>
